<svg width="186" height="38" fill="none" xmlns="http://www.w3.org/2000/svg"><path d="m102.233 19.32 8.026-18.137a.365.365 0 0 1 .309-.183h.076c.133 0 .259.025.341.183l7.95 18.137c.051.158.051.31-.233.31h-.677c-.183 0-.309-.133-.366-.234l-2.111-4.796h-9.953l-2.086 4.796a.415.415 0 0 1-.366.234h-.733c-.184 0-.259-.107-.184-.31h.007Zm12.873-5.731L110.65 3.085h-.05l-4.538 10.504h9.044ZM121.855 1.474c0-.209.183-.341.392-.341h.442l12.507 16.285h.025V1.733c0-.183.158-.341.341-.341h.518c.184 0 .342.158.342.341v17.828c0 .233-.209.34-.418.34h-.341s-.234-.075-12.614-16.443h-.025v15.844a.348.348 0 0 1-.341.34h-.493a.348.348 0 0 1-.341-.34V1.474h.006ZM141.951 1.733c0-.183.158-.341.341-.341h.576c.183 0 .341.158.341.341v17.562c0 .209-.184.341-.367.341h-.55a.348.348 0 0 1-.341-.34V1.732ZM156.802 1.133a9.373 9.373 0 0 1 9.41 9.41c0 5.213-4.171 9.353-9.41 9.353s-9.385-4.12-9.385-9.353 4.171-9.41 9.385-9.41Zm0 17.619c4.563 0 8.26-3.647 8.26-8.21 0-4.562-3.704-8.26-8.26-8.26-4.556 0-8.234 3.704-8.234 8.26a8.197 8.197 0 0 0 8.234 8.21ZM170.434 1.474c0-.209.183-.341.391-.341h.443l12.506 16.285h.025V1.733c0-.183.158-.341.342-.341h.518c.183 0 .341.158.341.341v17.828c0 .233-.208.34-.417.34h-.341s-.234-.075-12.614-16.443h-.025v15.844a.348.348 0 0 1-.342.34h-.492a.348.348 0 0 1-.342-.34V1.474h.007Z" fill="#212E62" stroke="#212E62" stroke-width=".72" stroke-miterlimit="10"/><path d="M104.628 26.834c.013-.063.076-.107.139-.107h.164c.076 0 .12.032.152.107l3.109 9.259h.032l3.122-9.259c.031-.075.075-.107.151-.107h.165c.063 0 .12.044.139.107l2.142 10.409c.032.151-.032.196-.164.196h-.361c-.088 0-.164-.076-.183-.165l-1.706-8.834h-.032l-3.046 9.03c-.031.089-.12.12-.208.12h-.063c-.076 0-.165-.012-.196-.12l-3.046-9.03h-.032l-1.706 8.834a.19.19 0 0 1-.184.165h-.36c-.139 0-.196-.045-.164-.196l2.142-10.409h-.006ZM114.777 37.255l4.645-10.496a.211.211 0 0 1 .183-.108h.045c.076 0 .151.013.196.108l4.6 10.496c.032.089.032.184-.132.184h-.392a.23.23 0 0 1-.209-.14l-1.22-2.774h-5.763l-1.207 2.775c-.032.063-.107.139-.209.139h-.423c-.107 0-.152-.063-.107-.184h-.007Zm7.451-3.317-2.578-6.08h-.032l-2.623 6.08h5.233ZM126.133 27.075a.19.19 0 0 1 .196-.196h3.741c1.839 0 3.362 1.39 3.362 3.229 0 1.523-1.055 2.743-2.49 3.153l2.2 3.906c.076.12.044.272-.108.272h-.467c-.108 0-.165-.045-.209-.14l-2.186-3.95c-.196.014-.361.014-.557.014h-2.774v3.873c0 .108-.088.196-.24.196h-.272a.197.197 0 0 1-.196-.196V27.075Zm3.906 5.656c1.447 0 2.667-1.132 2.667-2.623 0-1.492-1.22-2.534-2.686-2.534h-3.166v5.157h3.185ZM135.935 27.106c0-.133.089-.227.228-.227h.271c.133 0 .228.088.228.227v4.658l5.125-4.778c.12-.107.164-.107.303-.107h.424c.164 0 .183.164.088.259l-5.245 4.872 5.416 5.17c.088.075.063.259-.139.259h-.48c-.133 0-.209-.032-.329-.152l-5.157-5.005v4.96c0 .152-.107.197-.227.197h-.304c-.12 0-.196-.076-.196-.196V27.106h-.006ZM144.77 27.075c0-.108.088-.196.196-.196h6.048c.107 0 .196.088.196.196v.259a.197.197 0 0 1-.196.196h-5.517v4.164h4.777c.108 0 .196.089.196.196v.26a.197.197 0 0 1-.196.195h-4.777v4.462h5.517c.107 0 .196.088.196.196v.24a.197.197 0 0 1-.196.196h-6.048a.197.197 0 0 1-.196-.196V27.075ZM155.387 27.53h-2.882c-.152 0-.196-.089-.196-.228v-.227a.19.19 0 0 1 .196-.196h6.484a.19.19 0 0 1 .196.196v.259a.19.19 0 0 1-.196.196h-2.894v9.713c0 .107-.089.196-.241.196h-.271a.197.197 0 0 1-.196-.196V27.53ZM160.904 27.075c0-.108.088-.196.196-.196h.335c.107 0 .196.088.196.196v10.161c0 .12-.108.196-.209.196h-.316a.197.197 0 0 1-.196-.196V27.075h-.006ZM164.822 26.923c0-.12.107-.196.227-.196h.259l7.236 9.423h.013v-9.082c0-.107.088-.196.196-.196h.303c.108 0 .196.089.196.196v10.314c0 .133-.12.196-.24.196h-.196s-.139-.045-7.299-9.518h-.013v9.17a.197.197 0 0 1-.196.196h-.284a.197.197 0 0 1-.196-.196V26.917l-.006.006ZM181.152 26.727c1.523 0 2.667.512 3.646 1.403.076.076.089.196.013.272a4.817 4.817 0 0 1-.24.259c-.089.107-.164.088-.259 0-.847-.784-1.947-1.27-3.179-1.27-2.623 0-4.689 2.142-4.689 4.752s2.066 4.752 4.689 4.752c1.839 0 2.983-.708 3.135-.828V33.23h-2.579c-.164 0-.196-.063-.196-.196v-.303c0-.12.032-.184.196-.184h3.09c.108 0 .196.089.196.184v3.5c0 .228-.088.304-.208.392-.272.184-1.643.967-3.621.967-3.034 0-5.46-2.382-5.46-5.416 0-3.033 2.426-5.44 5.46-5.44l.006-.007Z" fill="#3AC4E4" stroke="#3AC4E4" stroke-width=".72" stroke-miterlimit="10"/><path d="M1.72 36.636a.725.725 0 0 1-.385-1.334l53.374-34.08a.725.725 0 0 1 .733-.026.71.71 0 0 1 .373.632v27.237a.72.72 0 1 1-1.44 0V3.142L2.111 36.522a.72.72 0 0 1-.386.114H1.72Z" fill="#212E62" stroke="#212E62" stroke-width=".72" stroke-miterlimit="10"/><path d="M19.168 36.636a.725.725 0 0 1-.386-1.334l53.376-34.08a.725.725 0 0 1 .733-.026.71.71 0 0 1 .372.632v27.237a.72.72 0 1 1-1.44 0V3.142L19.56 36.516a.72.72 0 0 1-.386.114l-.006.006Z" fill="#3AC4E4" stroke="#3AC4E4" stroke-width=".72" stroke-miterlimit="10"/><path d="M36.282 36.636a.725.725 0 0 1-.386-1.334l53.375-34.08a.725.725 0 0 1 .733-.026.71.71 0 0 1 .373.632v27.237a.72.72 0 1 1-1.44 0V3.142L36.672 36.516a.72.72 0 0 1-.385.114l-.006.006Z" fill="#212E62" stroke="#212E62" stroke-width=".72" stroke-miterlimit="10"/><path d="M55.095 37.148a4.148 4.148 0 0 1-4.146-4.146 4.148 4.148 0 0 1 4.146-4.145 4.148 4.148 0 0 1 4.145 4.145 4.148 4.148 0 0 1-4.145 4.146Zm0-6.838a2.705 2.705 0 0 0-2.699 2.699 2.705 2.705 0 0 0 2.699 2.698 2.705 2.705 0 0 0 2.698-2.698 2.705 2.705 0 0 0-2.698-2.699Z" fill="#212E62" stroke="#212E62" stroke-width=".72" stroke-miterlimit="10"/><path d="M72.544 37.148a4.148 4.148 0 0 1-4.146-4.146 4.148 4.148 0 0 1 4.146-4.145 4.148 4.148 0 0 1 4.145 4.145 4.148 4.148 0 0 1-4.145 4.146Zm0-6.838a2.705 2.705 0 0 0-2.699 2.699 2.705 2.705 0 0 0 2.699 2.698 2.705 2.705 0 0 0 2.698-2.698 2.705 2.705 0 0 0-2.698-2.699Z" fill="#3AC4E4" stroke="#3AC4E4" stroke-width=".72" stroke-miterlimit="10"/><path d="M89.65 37.148a4.148 4.148 0 0 1-4.146-4.146 4.148 4.148 0 0 1 4.146-4.145 4.148 4.148 0 0 1 4.146 4.145 4.148 4.148 0 0 1-4.146 4.146Zm0-6.838a2.705 2.705 0 0 0-2.698 2.699 2.705 2.705 0 0 0 2.698 2.698 2.705 2.705 0 0 0 2.698-2.698 2.705 2.705 0 0 0-2.698-2.699Z" fill="#212E62" stroke="#212E62" stroke-width=".72" stroke-miterlimit="10"/></svg>