<svg width="103" height="79" fill="none" xmlns="http://www.w3.org/2000/svg"><path d="M46.774 35.274c-.153-.172-.306-.34-.455-.515-.931-1.088-1.793-2.23-2.492-3.487a19.952 19.952 0 0 1-1.407-3.143 17.528 17.528 0 0 1-.892-4.221 17.13 17.13 0 0 1 .08-3.86c.11-.803.255-1.602.433-2.391.226-.997.568-1.96.92-2.92.317-.859.71-1.684 1.114-2.498.52-1.048 1.138-2.038 1.797-3.005.745-1.1 1.49-2.202 2.251-3.294.56-.803 1.11-1.617 1.622-2.45.528-.854 1.04-1.72 1.423-2.654.098-.237.207-.467.316-.7.03-.063.062-.136.138-.136.077 0 .113.073.139.135.178.398.341.8.534 1.19.218.442.459.873.699 1.304.883 1.588 1.953 3.06 2.971 4.56.666.979 1.353 1.946 1.975 2.954.35.566.673 1.146.997 1.723a22.244 22.244 0 0 1 1.462 3.235 21.943 21.943 0 0 1 1.033 3.768c.233 1.351.371 2.706.324 4.075-.029.836-.105 1.665-.273 2.49-.112.551-.192 1.11-.345 1.65-.28 1-.63 1.98-1.084 2.921-.313.646-.619 1.293-1.019 1.888-.181.27-.21.255-.356-.026-.106-.204-.084-.369.003-.577.404-.942.75-1.905.997-2.899.517-2.08.644-4.195.498-6.327-.112-1.65-.458-3.253-.934-4.838-.48-1.592-1.15-3.1-1.95-4.55-.75-1.357-1.622-2.639-2.553-3.884-.626-.84-1.244-1.687-1.845-2.541-.363-.515-.687-1.055-1.029-1.588-.065-.103-.113-.223-.258-.212-.131.007-.167.128-.23.219-.494.745-.963 1.508-1.49 2.23-.703.965-1.405 1.928-2.1 2.9-.705.986-1.36 2-1.945 3.06-.44.795-.834 1.62-1.172 2.471-.382.953-.72 1.913-.956 2.914-.168.712-.368 1.42-.47 2.147a23.592 23.592 0 0 0-.123 5.593c.069.683.2 1.362.367 2.034.167.672.331 1.344.564 1.994.32.898.698 1.778 1.16 2.614.455.821.953 1.613 1.517 2.366.047.065.113.127.11.222l-.07.062.004-.003Z" fill="#E0B249"/><path d="M61.367 38.874c.026-.124.113-.143.19-.175a15.847 15.847 0 0 0 3.873-2.293 16.774 16.774 0 0 0 2.78-2.812c.64-.825 1.181-1.709 1.69-2.618.557-.993.997-2.04 1.383-3.107a29.1 29.1 0 0 0 1.055-3.581c.138-.632.316-1.26.414-1.9.153-1.014.473-1.989.666-2.993.127-.665.39-1.303.604-1.953.112-.34.083-.406-.273-.38-1.899.117-3.794.036-5.693-.018-.825-.026-1.651-.106-2.473-.059-1.146.066-2.295.055-3.434.256-.189.033-.305-.04-.342-.216-.087-.438-.254-.85-.382-1.274-.065-.212.011-.281.2-.314.713-.12 1.43-.215 2.154-.27 1.779-.131 3.557-.059 5.332.033 1.328.07 2.652.124 3.98.04 1.324-.084 2.648-.19 3.91-.665.032-.01.065-.021.098-.025.09-.008.2-.084.262.007.073.102-.026.186-.091.267-.31.372-.48.825-.691 1.248-.658 1.326-1.12 2.731-1.43 4.177-.21.983-.472 1.954-.633 2.95-.141.877-.4 1.742-.622 2.611-.156.613-.352 1.209-.542 1.811-.294.946-.702 1.848-1.156 2.724-.975 1.887-2.28 3.516-3.874 4.907-1.342 1.176-2.848 2.096-4.485 2.804-.586.252-1.171.5-1.797.65-.218.051-.41.208-.67.168h-.003ZM41.139 17.237c-1.48-.204-2.968-.255-4.456-.234-1.422.019-2.84.084-4.26.125-.97.025-1.938-.015-2.91-.059-.316-.014-.367.051-.272.354.16.512.342 1.019.488 1.537.156.56.287 1.125.414 1.687.146.658.28 1.318.407 1.98.135.704.255 1.409.39 2.113.12.62.25 1.234.433 1.84.17.58.316 1.169.53 1.735.397 1.044.826 2.07 1.405 3.034.403.675.829 1.325 1.31 1.946.701.909 1.505 1.716 2.378 2.453 1.226 1.041 2.59 1.87 4.016 2.6.37.19.756.343 1.138.515.051.022.138.03.128.102-.019.088-.11.073-.171.055-.222-.062-.437-.135-.655-.2a18.241 18.241 0 0 1-2.797-1.1 17.74 17.74 0 0 1-3.383-2.172 16.758 16.758 0 0 1-3.445-3.852 18.43 18.43 0 0 1-1.495-2.877c-.364-.862-.64-1.746-.89-2.637-.245-.85-.405-1.727-.627-2.585-.163-.628-.21-1.277-.382-1.905-.269-.986-.443-1.998-.752-2.976-.204-.643-.397-1.285-.673-1.902-.306-.676-.611-1.351-1.033-1.965-.062-.087-.171-.186-.091-.292.08-.106.214-.04.309-.004.51.201 1.047.3 1.578.41.75.156 1.517.2 2.281.259 1.342.102 2.685.05 4.03-.019 1.921-.102 3.845-.175 5.766-.018.582.048 1.16.164 1.742.241.233.033.316.113.24.373-.116.409-.294.8-.36 1.223-.026.171-.15.237-.32.215h-.011Z" fill="#E0B249"/><path d="M36.138 45.778c-.964.022-1.924.011-2.87-.204-.895-.205-1.779-.442-2.63-.8a16.051 16.051 0 0 1-3.616-2.136c-.876-.679-1.684-1.435-2.513-2.169-1.226-1.08-2.437-2.187-3.841-3.037-.56-.34-1.124-.676-1.757-.873-.084-.026-.207-.051-.207-.16 0-.107.127-.092.203-.114.91-.255 1.728-.697 2.536-1.175 1.338-.79 2.546-1.76 3.772-2.702 1.065-.818 2.131-1.643 3.295-2.319.338-.197.695-.358 1.04-.54.153-.08.262-.055.328.11.116.291.243.58.414.85.091.146 0 .245-.123.31-.342.194-.691.37-1.026.574-.764.463-1.506.963-2.223 1.497-1.083.806-2.16 1.628-3.255 2.42-.502.365-1.037.683-1.557 1.019-.244.157-.258.248-.025.409 1.55 1.062 2.917 2.348 4.325 3.578 1.2 1.052 2.451 2.037 3.84 2.822.703.398 1.441.723 2.201 1.005 1.95.722 3.972.941 6.024.785 1.258-.1 2.513-.31 3.721-.727.025-.007.047-.022.073-.022.08-.007.196-.073.229.022.036.106-.098.117-.167.15-.83.372-1.666.712-2.554.934-.91.227-1.811.46-2.753.493-.299.011-.597 0-.892 0h.008ZM61.058 44.369c.24.025.469.087.702.142.913.212 1.826.398 2.76.49.997.094 1.994.069 2.98-.074 1.102-.157 2.186-.405 3.233-.814 1.659-.646 3.186-1.519 4.627-2.563 1.127-.818 2.124-1.785 3.179-2.68.771-.653 1.517-1.343 2.346-1.928.076-.054.156-.102.237-.15.29-.17.302-.302.014-.47-.41-.241-.8-.515-1.2-.774-.553-.355-1.059-.774-1.586-1.161-.975-.712-1.917-1.468-2.921-2.144a29.76 29.76 0 0 0-2.284-1.387c-.248-.135-.251-.194-.12-.442.123-.234.229-.475.33-.72.073-.178.183-.207.343-.127.844.442 1.673.902 2.448 1.464.793.577 1.567 1.176 2.346 1.767.709.54 1.411 1.096 2.138 1.61a17.7 17.7 0 0 0 2.787 1.596c.284.132.585.23.89.303.07.018.18.022.183.113 0 .102-.106.12-.186.15-1.084.387-2.037 1.008-2.95 1.694-1.313.99-2.48 2.147-3.724 3.217-.99.85-1.997 1.676-3.129 2.33-1.258.726-2.578 1.292-3.997 1.639-1.662.405-3.34.441-5.02.255-.978-.106-1.935-.369-2.877-.675a9.983 9.983 0 0 1-1.55-.657v-.004ZM42.62 52.31c-.186.39-.455.668-.695.957a10.155 10.155 0 0 1-3.55 2.701 9.466 9.466 0 0 1-4.769.833c-1.105-.088-2.179-.343-3.255-.606-1.186-.288-2.364-.64-3.594-.73a15.202 15.202 0 0 0-1.353-.03c-.08 0-.186.04-.233-.05-.047-.092.037-.158.095-.22.804-.854 1.371-1.862 1.88-2.91.582-1.194 1.08-2.435 1.768-3.574.502-.836 1.066-1.647 1.822-2.29.033-.029.07-.054.091-.087.302-.453.699-.515 1.168-.296.055.026.116.033.17.051.092.033.237-.007.27.106.04.139-.105.201-.19.278-1.116 1.007-1.949 2.22-2.6 3.57-.542 1.121-.975 2.29-1.542 3.4-.087.175-.186.343-.27.522-.068.15-.043.26.146.3.542.112 1.084.218 1.619.36.45.121.906.242 1.35.38 1.887.588 3.804.83 5.765.512 1.13-.183 2.19-.596 3.197-1.15.888-.49 1.67-1.114 2.39-1.815.065-.066.138-.128.21-.186.012-.011.033-.008.106-.026h.004ZM60.752 52.394c.4.314.728.65 1.088.946a10.3 10.3 0 0 0 1.928 1.234c1.833.927 3.775 1.201 5.798.993.949-.099 1.866-.347 2.786-.606.946-.267 1.899-.53 2.866-.716.266-.05.291-.113.167-.369a58.31 58.31 0 0 1-1.41-3.066c-.368-.866-.79-1.702-1.325-2.476-.476-.69-.997-1.34-1.637-1.888a2.015 2.015 0 0 1-.127-.124c-.105-.11-.11-.186.058-.226.255-.062.51-.132.764-.205.19-.054.306.059.43.165a11.093 11.093 0 0 1 1.92 2.205c.556.825.95 1.734 1.375 2.625.41.85.785 1.723 1.266 2.538.36.61.73 1.212 1.236 1.716.066.065.16.142.124.237-.044.11-.164.055-.251.051-1.088-.066-2.153.099-3.208.35-.688.165-1.375.326-2.055.5-.71.183-1.423.344-2.146.435-1.095.14-2.183.14-3.278-.062-1.757-.325-3.288-1.099-4.648-2.249-.611-.515-1.124-1.11-1.615-1.734-.051-.066-.11-.132-.11-.278l.004.004ZM54.78 14.729c.025.96-.212 1.789-.83 2.475-.367.41-.79.734-1.328.917-.6.2-1.204.303-1.83.197-1.789-.303-2.855-1.596-2.887-3.367-.022-1.215.356-2.336.804-3.439.49-1.212 1.138-2.344 1.866-3.432.316-.475.672-.92 1.014-1.38.03-.04.07-.077.11-.11.112-.091.236-.16.363-.043.124.113.135.273.033.394-.35.416-.582.902-.833 1.376-.767 1.435-1.39 2.925-1.673 4.539-.113.642-.226 1.281-.091 1.931.233 1.125 1.128 1.844 2.219 1.778.905-.05 1.8-.81 1.953-1.822.13-.869.076-1.697-.244-2.512-.08-.2-.047-.376.157-.482.193-.098.313.044.4.176.287.42.469.89.607 1.376.131.475.233.964.19 1.424v.004ZM36.956 27.037c-1.251-.026-2.175-.672-2.957-1.585-.826-.967-1.415-2.081-1.92-3.242a18.888 18.888 0 0 1-1.15-3.567c-.033-.15-.08-.296-.11-.45-.036-.19.019-.36.219-.397.2-.04.32.106.367.28.131.505.291 1.001.498 1.476.4.92.819 1.833 1.357 2.687.488.767 1.004 1.5 1.674 2.118.465.43.978.785 1.647.84.859.069 1.699-.5 2.03-1.297.382-.927-.015-1.635-.567-2.289-.488-.58-1.135-.964-1.86-1.208-.188-.066-.348-.176-.29-.413.054-.23.24-.274.44-.24 1.324.226 2.43.839 3.284 1.883 1.466 1.793.553 4.195-1.265 5.079a3.08 3.08 0 0 1-1.4.325h.003ZM65.925 27.018c-.877-.036-1.771-.565-2.422-1.518-.699-1.023-.779-2.107-.284-3.235.229-.526.614-.942 1.055-1.296.698-.566 1.476-.968 2.357-1.165.076-.018.149-.026.225-.037.288-.036.462.044.488.241.036.256-.153.333-.342.406-.862.324-1.612.806-2.125 1.595-.225.343-.396.716-.403 1.143-.015 1.216 1.124 2.209 2.324 2.041.611-.088 1.095-.416 1.524-.822 1.299-1.23 2.135-2.77 2.844-4.388.273-.617.499-1.249.67-1.902.047-.176.17-.325.367-.27.23.061.24.259.193.46-.24 1.047-.517 2.084-.902 3.088-.4 1.044-.837 2.074-1.455 3.009-.575.869-1.193 1.705-2.142 2.22-.535.292-1.03.445-1.968.434l-.004-.003Z" fill="#E0B249"/><path d="M29.845 35.292c-.393 0-.782.03-1.16.146-.179.055-.371.091-.448-.142-.073-.22.102-.303.258-.376.968-.435 1.986-.603 3.012-.355 1 .242 1.728.851 2.019 1.895.276.986.102 1.877-.528 2.677-.33.42-.792.646-1.287.832-.76.285-1.495.139-2.23-.066-1.735-.481-3.234-1.409-4.649-2.497-.269-.208-.534-.423-.796-.639a1.091 1.091 0 0 1-.204-.226.224.224 0 0 1 .033-.285c.076-.08.167-.073.258-.033.062.03.124.062.175.106.79.697 1.731 1.132 2.666 1.58a9.845 9.845 0 0 0 2.713.863c.412.065.815.05 1.215-.059.92-.248 1.488-1.263 1.16-2.154-.265-.712-.825-1.11-1.57-1.227-.212-.033-.426-.033-.637-.047v.007ZM72.523 34.478c.87 0 1.56.139 2.215.46.076.036.15.084.211.139.073.065.11.153.058.255-.044.088-.124.12-.21.113a1.673 1.673 0 0 1-.303-.047 4.693 4.693 0 0 0-1.775-.066c-.92.135-1.884.986-1.553 2.19.204.746.728 1.202 1.63 1.286.705.066 1.385-.113 2.055-.318 1.258-.39 2.404-1.018 3.532-1.69.233-.139.433-.325.65-.493.117-.088.245-.164.354-.015.101.14.021.263-.084.358-.204.183-.4.369-.615.537-1.204.938-2.466 1.789-3.892 2.355-.77.307-1.568.613-2.415.559-1.12-.073-2.026-.523-2.528-1.61-.498-1.085-.215-2.575.706-3.327.6-.489 1.313-.748 1.967-.69l-.003.004ZM33.111 53.142c-.81-.036-1.72-.083-2.615-.28-.305-.07-.63-.055-.92-.201-.113-.055-.24-.092-.197-.249.044-.157.179-.168.313-.146.808.143 1.622.187 2.44.154 1.169-.048 2.333-.154 3.391-.712.771-.41 1.153-1.264.706-2.1-.306-.573-1.084-.902-1.754-.752a3.412 3.412 0 0 0-1.636.884c-.084.08-.16.186-.299.171-.2-.022-.273-.266-.12-.463.408-.526.888-.968 1.488-1.26.477-.23.964-.39 1.513-.38 1.255.026 2.306 1.136 2.4 2.326.095 1.201-.578 2.06-1.567 2.501-.975.438-2.008.475-3.143.5v.008ZM71.224 52.445c.935-.007 1.608-.036 2.27-.15.138-.025.298-.036.345.128.055.186-.112.23-.243.26-.903.219-1.82.339-2.747.408-.862.066-1.72.044-2.568-.087-.87-.135-1.688-.413-2.295-1.1-.731-.824-.702-1.993-.2-2.844.564-.949 1.586-1.42 2.659-1.182 1 .219 1.797.788 2.39 1.632.08.113.116.24-.008.343-.123.102-.24.044-.338-.051a3.682 3.682 0 0 0-1.135-.77c-.622-.26-1.371-.351-1.957.127-.844.683-.698 1.994.273 2.538.608.34 1.28.518 1.96.61.616.083 1.234.16 1.594.138ZM38.018 29.72a7.606 7.606 0 0 1-3.324-.832c-.375-.19-.699-.45-1.055-.665-.168-.102-.28-.266-.16-.478.12-.208.302-.16.469-.073.618.329 1.262.58 1.96.694.76.124 1.521.131 2.281.014.135-.021.266-.054.404-.065.415-.037.786.222.818.558a.754.754 0 0 1-.676.84c-.237.026-.477.004-.713.004l-.004.003ZM33.948 43.54c-.069-.011-.156-.011-.236-.04-.211-.077-.248-.3-.073-.442a.896.896 0 0 1 .342-.16c1.076-.293 1.979-.866 2.75-1.67.302-.313.549-.671.822-1.007.185-.226.418-.398.724-.347.287.051.472.248.57.53.08.23 0 .423-.13.598-.338.468-.779.83-1.237 1.169-.655.485-1.386.814-2.146 1.088-.444.157-.906.215-1.386.277v.004ZM30.968 42.386c-.152 0-.305.008-.458 0-.178-.01-.32-.095-.338-.285-.018-.182.13-.255.27-.292.261-.065.534-.102.8-.16 1.116-.245 2.065-.8 2.895-1.578.185-.175.352-.372.549-.533.353-.288.727-.259.993.055.25.3.23.69-.08.986-.484.46-1.055.796-1.655 1.084-.895.428-1.837.647-2.82.716h-.152l-.004.007ZM65.165 29.72c-.317-.021-.644.07-.946-.113-.28-.171-.44-.482-.375-.777.062-.282.357-.504.691-.504.16 0 .32.025.48.05 1.12.187 2.223.11 3.296-.255.353-.12.68-.303 1.018-.46.157-.073.313-.117.426.066.113.182.033.332-.12.442-.837.617-1.739 1.102-2.76 1.318-.565.117-1.121.303-1.714.226l.004.007ZM39.292 32.079c-.88-.015-1.746-.139-2.576-.442a9.246 9.246 0 0 1-1.04-.478c-.17-.088-.327-.226-.23-.45.1-.23.3-.185.485-.123.876.296 1.768.496 2.702.42a7.513 7.513 0 0 0 1.768-.373c.12-.04.24-.08.371-.087.32-.022.615.142.702.394a.75.75 0 0 1-.262.847.954.954 0 0 1-.498.183c-.477.032-.946.124-1.422.116v-.007ZM64.979 39.882c.367.007.582.178.753.42.407.58.87 1.117 1.44 1.547.615.464 1.277.844 2.026 1.052.124.033.248.062.36.131.095.059.15.14.139.256-.011.117-.091.179-.193.22-.098.04-.2.021-.302.014a6.386 6.386 0 0 1-1.917-.504c-1.047-.45-1.971-1.066-2.71-1.946-.189-.227-.262-.482-.127-.76.12-.244.31-.401.535-.423l-.004-.008ZM63.964 32.079c-.458-.033-.917-.051-1.371-.106-.353-.044-.691-.164-.815-.555-.08-.252-.044-.49.153-.686.24-.238.52-.227.807-.128.862.288 1.739.46 2.652.409.64-.037 1.255-.212 1.866-.394.09-.026.174-.07.269-.066.12 0 .218.04.262.16.04.11.04.223-.051.307a.96.96 0 0 1-.182.139c-1.124.588-2.313.931-3.59.92ZM72.264 42.372a7.295 7.295 0 0 1-3.75-1.158c-.324-.208-.651-.401-.913-.69a.697.697 0 0 1-.09-.832c.145-.249.381-.355.668-.329.222.022.368.172.51.314.458.46.927.902 1.484 1.238.716.43 1.477.726 2.31.832.116.015.236.033.349.07.134.044.25.127.225.295-.025.154-.138.241-.284.252-.167.015-.338 0-.509.004v.004ZM58.253 17.796c-.069.577-.163 1.143-.356 1.694-.4 1.154-1.066 2.125-1.943 2.957-.407.384-.974.263-1.189-.248-.102-.245 0-.551.291-.778.477-.369.95-.74 1.342-1.212a6.455 6.455 0 0 0 1.277-2.475 1.73 1.73 0 0 1 .062-.194c.05-.12.134-.2.276-.179.146.018.226.113.244.256.007.058 0 .12 0 .179h-.004ZM56.991 14.926a7.273 7.273 0 0 1-1.615 4.473.757.757 0 0 1-1.033.146c-.309-.223-.309-.73.015-1.034.47-.441.873-.934 1.197-1.486.432-.734.69-1.533.825-2.373.018-.117.026-.237.051-.354.026-.124.088-.226.233-.234.138-.003.222.077.27.197.087.212.047.439.061.669l-.004-.004ZM46.028 14.648c.018-.219-.014-.441.073-.657.05-.128.12-.226.273-.226.156 0 .254.087.309.226.05.128.076.263.076.402.015 1.274.462 2.399 1.197 3.417.076.103.153.205.218.318.197.336.127.72-.167.931-.273.2-.673.153-.935-.102-.204-.201-.335-.46-.437-.716-.45-1.15-.585-2.358-.61-3.585l.003-.008ZM38.731 49.78a3.05 3.05 0 0 0-.043-.595.94.94 0 0 1-.008-.303c.044-.347.284-.584.572-.577a.64.64 0 0 1 .632.639c0 .872-.189 1.705-.542 2.5-.265.596-.633 1.125-1.054 1.622-.062.07-.124.142-.204.19-.117.07-.251.076-.357-.022-.112-.106-.083-.238 0-.347.415-.555.662-1.187.833-1.848.106-.401.182-.814.168-1.252l.003-.007ZM41.994 48.188c.058 1.252-.4 2.351-1.03 3.395-.028.052-.072.092-.112.14-.105.123-.23.19-.378.083-.146-.102-.142-.244-.058-.387.258-.442.367-.93.476-1.424.17-.767.135-1.522-.055-2.282a2.219 2.219 0 0 1-.072-.376c-.026-.266.123-.522.338-.606a.614.614 0 0 1 .727.208c.106.143.16.303.16.478v.767l.004.004ZM61.258 48.071c0-.255-.015-.511.003-.767a.67.67 0 0 1 .502-.58c.255-.051.477 0 .622.237.113.186.11.387.07.595-.066.344-.183.676-.204 1.03-.062 1 .105 1.953.563 2.851.066.128.084.249-.036.347-.131.102-.255.066-.36-.05-.273-.304-.44-.673-.608-1.034-.385-.829-.614-1.698-.549-2.625l-.004-.004ZM64.553 49.031a4.105 4.105 0 0 0 .04 1.654c.15.683.342 1.351.742 1.94.062.09.12.185.175.284.058.11.087.233-.022.325a.253.253 0 0 1-.349-.015 3.79 3.79 0 0 1-.444-.493c-.582-.781-1.011-1.632-1.193-2.6-.062-.335-.138-.667-.149-1.01-.004-.147 0-.293.066-.424.13-.267.469-.442.716-.376.24.065.433.368.422.712l-.004.003ZM35.214 22.93c-.029-.746.571-1.158 1.157-1.154.662.003 1.127.584 1.124 1.179 0 .584-.538 1.077-1.146 1.066-.698-.011-1.146-.438-1.138-1.095l.003.003ZM52.64 14.046c.077.518-.501 1.059-1.043 1.066-.684.011-1.197-.42-1.215-1.037-.018-.69.44-1.168 1.146-1.197.618-.026 1.087.467 1.11 1.168h.003ZM66.892 24.017c-.702.051-1.098-.577-1.131-1.073-.033-.486.4-1.143 1.124-1.154a1.123 1.123 0 0 1 1.146 1.121c.01.643-.451 1.092-1.139 1.106Z" fill="#E0B249"/><path d="M30.049 38.038c-.542 0-.979-.402-.979-.906 0-.555.422-1.004.99-.978a.95.95 0 0 1 .909.93c.007.545-.39.95-.92.95v.004ZM72.304 37.107c.008-.53.393-.928.888-.92.593.007.982.383.978.942 0 .507-.443.912-.978.901a.9.9 0 0 1-.891-.923h.003ZM35.425 50.5c0 .488-.342.839-.833.843-.56.003-.855-.38-.884-.833-.03-.434.422-.854.877-.858a.838.838 0 0 1 .84.847ZM68.631 51.324c-.505-.01-.796-.321-.79-.836a.814.814 0 0 1 .838-.814c.44.007.876.413.836.832-.047.5-.32.83-.887.822l.003-.004Z" fill="#E0B249"/><path d="M42.7 43.23c.178-.778.323-1.501.513-2.213 1.495-5.59 7.65-9.037 12.956-7.266 3.765 1.256 5.805 5.787 4.252 9.457-1.458 3.446-5.856 4.472-8.373 1.887.149 0 .273-.04.342.008 2.215 1.413 5.35.533 6.678-2.17 1.284-2.613.313-5.626-2.328-6.976-1.855-.95-3.82-1.07-5.79-.413-3.55 1.187-6.133 4.761-6.21 8.533-.094 4.513 2.136 8.029 6.038 9.53 3.761 1.445 7.78.463 10.41-2.542.132-.15.27-.3.44-.49-.403 2.443-4.477 4.846-8.176 4.886-5.525.058-9.48-3.622-10.672-10.146M7.653 76.517a10.613 10.613 0 0 0 0 2.355c-1.611-.106-2.419-.087-3.59-.087-1.171 0-3.135.018-4.063.106v-.106c.858-.106 1.419-.406 1.473-1.424.087-1.581.087-2.954.087-4.82 0-1.687 0-3.253-.087-4.838C1.423 66.7.895 66.385 0 66.298v-.106c.946.087 2.4.106 4.063.106 1.051 0 2.506-.019 3.54-.106-.052.686-.052 1.442 0 2.18h-.106c-.244-1.319-.877-1.53-2.612-1.53-.63 0-1.382.036-2.051.106-.07 2.303-.088 3.483-.088 4.907.63.036 1.244.05 2.12.036 1.121 0 1.387-.456 1.58-1.18l.105.02c-.051.456-.106.948-.106 1.39 0 .475.019.986.106 1.442l-.106.019c-.243-.81-.436-1.143-1.578-1.161-.808 0-1.455-.019-2.12.018v.106c0 1.865 0 3.322.068 4.414.07 1.143.808 1.23 2.42 1.23 1.4 0 1.927-.175 2.313-1.686l.105.018v-.004ZM15.364 78.77v.106c-.909-.07-1.524-.106-2.153-.106-.63 0-1.262.037-2.153.106v-.106c.894-.106 1.418-.438 1.473-1.442.087-1.581.087-3.009.087-4.783 0-1.775 0-3.202-.087-4.783-.051-1.004-.579-1.337-1.473-1.442v-.106c.894.069 1.505.106 2.153.106.647 0 1.244-.037 2.153-.106v.106c-.895.105-1.418.438-1.473 1.442-.087 1.617-.087 2.99-.087 4.783 0 1.793 0 3.165.087 4.783.051 1.004.579 1.336 1.473 1.442Zm.138-6.649c4.696 5.083 5.151 6.488 7.832 6.649v.106c-4.747 0-3.783-.756-9.163-6.35l4.834-4.8c.735-.738.528-1.3-.542-1.425v-.106c.35.037 1.139.106 1.754.106.614 0 1.12-.036 1.767-.106v.106c-.614.088-1.225.668-1.96 1.391l-4.522 4.433v-.004ZM37.193 78.785v.105a27.56 27.56 0 0 0-2.085-.105c-.629 0-1.473.036-2.331.105v-.105c1.102-.088 1.666-.406 1.28-1.424a73.7 73.7 0 0 0-1.175-2.815 45.688 45.688 0 0 0-2.364-.052c-.877 0-1.823.019-2.54.052-.367.949-.716 1.898-1.05 2.815-.368 1.018-.018 1.336 1.156 1.424v.105c-.665-.05-1.4-.105-1.927-.105-.684 0-1.295.05-1.786.105v-.105c.542-.07 1.12-.406 1.56-1.443 1.139-2.672 3.768-9.058 4.572-11.256h.037a945.356 945.356 0 0 0 5.012 11.29c.437.985.84 1.284 1.648 1.405l-.008.004Zm-4.61-4.977a449.96 449.96 0 0 0-2.313-5.17c-.647 1.654-1.349 3.41-2.015 5.17.63.051 1.56.088 2.245.088.753 0 1.418-.037 2.084-.088ZM52.35 66.195v.106c-.877.124-1.332.406-1.401 1.391-.106 1.548-.157 2.604-.157 5.258 0 1.705 0 4.151.07 6.05h-.037c-2.804-3.34-5.87-6.7-9.163-10.096-.018 1.038-.018 2.074-.018 3.166 0 2.691.037 3.728.142 5.294.07 1.019.51 1.3 1.382 1.424v.106c-.822-.07-1.313-.106-1.927-.106-.615 0-1.07.037-1.892.106v-.106c.877-.124 1.313-.405 1.386-1.424.087-1.566.138-2.603.138-5.276 0-1.705 0-4.29-.05-5.995h.036c3.099 3.502 6.183 6.857 9.199 10.096.018-1.107.018-2.235.018-3.272 0-2.636-.051-3.677-.157-5.225-.069-.985-.527-1.267-1.4-1.39v-.107c.822.07 1.35.106 1.946.106.597 0 1.07-.036 1.891-.106h-.007ZM66.277 65.739a17.48 17.48 0 0 0-.49 2.355h-.106c.087-.774-.019-1.092-.84-1.161-.717-.07-2.245-.143-3.434-.157-.07 1.617-.088 3.64-.088 5.838 0 1.811 0 3.217.088 4.838.05 1.004.578 1.3 1.473 1.406v.105c-.895-.069-1.506-.105-2.154-.105-.647 0-1.243.036-2.153.105v-.105c.895-.106 1.419-.406 1.473-1.406.088-1.581.088-3.06.088-4.838 0-2.161-.019-4.202-.088-5.838-1.175.037-2.63.106-3.346.157-.84.088-1.033.438-1.313 1.18h-.106c.23-.65.404-1.567.528-2.41h.105c-.018.368.07.423.28.438.56.05 3.277.087 4.503.087s4.274-.036 4.907-.106c.335-.036.491-.087.579-.387h.105l-.01.004ZM73.425 66.316c-.895.106-1.419.438-1.473 1.442-.088 1.618-.088 2.99-.088 4.783 0 1.793 0 3.166.088 4.783.05 1.004.578 1.336 1.473 1.442v.106c-.91-.07-1.524-.106-2.153-.106-.63 0-1.263.037-2.154.106v-.106c.895-.106 1.419-.438 1.473-1.442.088-1.58.088-3.008.088-4.783 0-1.774 0-3.202-.088-4.783-.05-1.004-.578-1.336-1.473-1.442v-.106c.895.07 1.506.106 2.154.106.647 0 1.243-.037 2.153-.106v.106ZM80.783 78.77v.106c-.91-.07-1.524-.106-2.153-.106-.63 0-1.262.037-2.153.106v-.106c.894-.106 1.418-.438 1.473-1.442.087-1.581.087-3.009.087-4.783 0-1.775 0-3.202-.087-4.783-.051-1.004-.579-1.337-1.473-1.442v-.106c.894.069 1.505.106 2.153.106.647 0 1.244-.037 2.153-.106v.106c-.895.105-1.418.438-1.473 1.442-.087 1.617-.087 2.99-.087 4.783 0 1.793 0 3.165.087 4.783.051 1.004.578 1.336 1.473 1.442Zm.138-6.649c4.696 5.083 5.151 6.488 7.832 6.649v.106c-4.747 0-3.783-.756-9.163-6.35l4.834-4.8c.735-.738.528-1.3-.542-1.425v-.106c.35.037 1.139.106 1.754.106.614 0 1.12-.036 1.767-.106v.106c-.614.088-1.226.668-1.96 1.391l-4.522 4.433v-.004ZM102.611 78.785v.105a27.57 27.57 0 0 0-2.084-.105 30.7 30.7 0 0 0-2.332.105v-.105c1.102-.088 1.666-.406 1.28-1.424a73.866 73.866 0 0 0-1.174-2.815 45.688 45.688 0 0 0-2.365-.052c-.876 0-1.822.019-2.539.052-.367.949-.716 1.898-1.05 2.815-.368 1.018-.019 1.336 1.156 1.424v.105c-.666-.05-1.4-.105-1.928-.105-.684 0-1.295.05-1.786.105v-.105c.542-.07 1.12-.406 1.56-1.443 1.139-2.672 3.769-9.058 4.573-11.256h.036a953.095 953.095 0 0 0 5.012 11.29c.437.985.841 1.284 1.648 1.405l-.007.004Zm-4.605-4.977a449.96 449.96 0 0 0-2.313-5.17c-.648 1.654-1.35 3.41-2.016 5.17.63.051 1.56.088 2.245.088.753 0 1.418-.037 2.084-.088Z" fill="#0A6E77"/></svg>