<svg width="73" height="63" fill="none" xmlns="http://www.w3.org/2000/svg"><path d="M.893 61.213v-4.11h2.48v.442H1.39v1.388h1.855v.442H1.39v1.397h2.015v.441H.893Zm3.666-3.082.739 1.26.738-1.26h.546l-.995 1.54.995 1.542h-.546l-.738-1.196-.739 1.196h-.546l.98-1.541-.98-1.541h.546Zm3.824 3.146c-.289 0-.538-.068-.746-.204a1.333 1.333 0 0 1-.482-.564 1.91 1.91 0 0 1-.169-.821c0-.313.058-.59.173-.829.116-.24.278-.429.486-.564.208-.136.452-.205.73-.205.217 0 .412.04.586.12.174.081.317.194.428.338.11.145.18.313.206.506h-.473a.735.735 0 0 0-.241-.373c-.123-.11-.29-.165-.498-.165a.832.832 0 0 0-.485.144.941.941 0 0 0-.324.404 1.495 1.495 0 0 0-.114.608c0 .238.038.445.112.622a.952.952 0 0 0 .322.411c.139.098.302.147.49.147a.846.846 0 0 0 .334-.064.692.692 0 0 0 .404-.474h.473a1.097 1.097 0 0 1-.614.837c-.171.084-.37.126-.598.126Zm1.905-.064v-3.082h.473v3.082h-.473Zm.24-3.596a.337.337 0 0 1-.238-.094.303.303 0 0 1-.099-.227c0-.088.033-.164.099-.227a.337.337 0 0 1 .239-.094.33.33 0 0 1 .236.094.3.3 0 0 1 .1.227.3.3 0 0 1-.1.227.33.33 0 0 1-.237.094Zm2.441.514v.401h-1.597v-.401h1.597Zm-1.132-.739h.474v2.938c0 .134.02.234.058.301.04.066.091.11.153.133.063.021.129.032.198.032a.848.848 0 0 0 .129-.008l.08-.016.096.425a.989.989 0 0 1-.353.056.953.953 0 0 1-.393-.086.78.78 0 0 1-.317-.263.755.755 0 0 1-.125-.446v-3.066Zm3.104 3.885a1.45 1.45 0 0 1-.769-.196 1.32 1.32 0 0 1-.495-.554 1.889 1.889 0 0 1-.173-.831c0-.316.058-.594.173-.835.116-.242.278-.43.485-.566.209-.136.452-.205.73-.205.161 0 .32.027.476.08.157.054.3.141.428.262.128.119.23.277.307.473.076.197.114.44.114.727v.2h-2.376v-.409h1.895c0-.174-.035-.33-.105-.466a.787.787 0 0 0-.738-.441.85.85 0 0 0-.49.14.924.924 0 0 0-.315.362c-.073.148-.11.307-.11.477v.273c0 .233.04.43.12.592a.87.87 0 0 0 .34.367.994.994 0 0 0 .503.125c.124 0 .237-.017.337-.052a.721.721 0 0 0 .263-.16.729.729 0 0 0 .17-.27l.458.129c-.048.155-.129.291-.243.41a1.184 1.184 0 0 1-.421.272 1.563 1.563 0 0 1-.564.096Zm3.65-.064v-4.11h1.39c.32 0 .584.055.79.165.206.108.358.257.457.447.1.19.149.406.149.648 0 .243-.05.457-.149.645-.099.187-.25.334-.455.441-.205.106-.466.159-.785.159h-1.124v-.45h1.108c.22 0 .396-.032.53-.096a.609.609 0 0 0 .293-.273.916.916 0 0 0 .092-.426.954.954 0 0 0-.092-.431.63.63 0 0 0-.295-.285 1.193 1.193 0 0 0-.536-.102h-.875v3.668h-.498Zm1.935-1.846 1.011 1.846h-.578l-.995-1.846h.562Zm2.875 1.91a1.45 1.45 0 0 1-.768-.196 1.32 1.32 0 0 1-.496-.554 1.889 1.889 0 0 1-.173-.831c0-.316.058-.594.173-.835a1.36 1.36 0 0 1 .486-.566c.208-.136.452-.205.73-.205.16 0 .32.027.476.08.156.054.299.141.427.262.129.119.231.277.307.473.077.197.115.44.115.727v.2H22.3v-.409h1.895c0-.174-.035-.33-.104-.466a.787.787 0 0 0-.739-.441.85.85 0 0 0-.49.14.924.924 0 0 0-.315.362c-.073.148-.11.307-.11.477v.273c0 .233.04.43.12.592a.87.87 0 0 0 .34.367.995.995 0 0 0 .503.125c.125 0 .237-.017.337-.052a.721.721 0 0 0 .263-.16.73.73 0 0 0 .17-.27l.458.129c-.048.155-.129.291-.242.41a1.184 1.184 0 0 1-.422.272 1.564 1.564 0 0 1-.564.096Zm2.904.008c-.195 0-.372-.036-.532-.11a.913.913 0 0 1-.379-.323.912.912 0 0 1-.14-.514.79.79 0 0 1 .104-.43.737.737 0 0 1 .279-.26c.116-.063.245-.11.385-.14.142-.033.285-.058.428-.077.187-.024.339-.042.455-.054a.701.701 0 0 0 .257-.066c.055-.031.082-.085.082-.16v-.017c0-.198-.054-.352-.162-.462-.107-.11-.27-.164-.488-.164-.226 0-.403.05-.532.148a.878.878 0 0 0-.27.318l-.45-.161c.08-.187.187-.333.321-.438.135-.105.282-.179.442-.22.16-.043.318-.065.473-.065.1 0 .213.012.341.037.13.022.255.07.375.142a.837.837 0 0 1 .303.327c.08.146.12.341.12.586v2.031h-.473v-.417h-.024a.833.833 0 0 1-.16.214.925.925 0 0 1-.3.195c-.124.054-.276.08-.455.08Zm.072-.425a.94.94 0 0 0 .474-.11.751.751 0 0 0 .393-.653v-.433c-.02.024-.064.046-.132.066a2.24 2.24 0 0 1-.233.05 10.466 10.466 0 0 1-.454.06 1.815 1.815 0 0 0-.345.079.596.596 0 0 0-.256.158.404.404 0 0 0-.097.285c0 .165.061.29.183.373a.82.82 0 0 0 .467.125Zm2.679-3.757v4.11h-.474v-4.11h.474Zm2.521 4.11v-4.11h2.48v.442h-1.982v1.388h1.854v.442h-1.854v1.397h2.015v.441h-2.513Zm5.497-2.392-.426.12a.788.788 0 0 0-.118-.206.574.574 0 0 0-.209-.169.759.759 0 0 0-.339-.066.81.81 0 0 0-.472.13c-.124.086-.186.195-.186.327 0 .118.043.211.128.28.086.068.22.124.402.17l.457.112c.276.067.481.17.616.307a.718.718 0 0 1 .203.528c0 .177-.05.335-.153.474-.1.139-.24.249-.421.329-.18.08-.39.12-.63.12-.315 0-.575-.068-.78-.204a.907.907 0 0 1-.392-.598l.45-.113c.042.166.123.29.242.373.12.083.278.125.472.125.22 0 .396-.047.526-.14.13-.096.196-.21.196-.342a.358.358 0 0 0-.112-.269.717.717 0 0 0-.345-.164l-.514-.12c-.282-.068-.49-.171-.622-.312a.753.753 0 0 1-.197-.532c0-.173.049-.327.147-.461a.997.997 0 0 1 .403-.315c.171-.076.365-.114.582-.114.305 0 .545.066.718.2.176.134.3.31.374.53Zm2.11-.69v.401h-1.598v-.401h1.597Zm-1.132-.739h.473v2.938c0 .134.02.234.058.301.04.066.091.11.153.133.063.021.129.032.199.032a.846.846 0 0 0 .128-.008l.08-.016.097.425a.99.99 0 0 1-.353.056.952.952 0 0 1-.394-.086.781.781 0 0 1-.317-.263.756.756 0 0 1-.124-.446v-3.066Zm2.75 3.893c-.194 0-.372-.036-.53-.11a.913.913 0 0 1-.38-.323.912.912 0 0 1-.14-.514c0-.177.034-.32.104-.43a.737.737 0 0 1 .279-.26c.116-.063.245-.11.385-.14.142-.033.284-.058.427-.077.188-.024.34-.042.456-.054a.701.701 0 0 0 .257-.066c.055-.031.082-.085.082-.16v-.017c0-.198-.054-.352-.162-.462-.107-.11-.27-.164-.488-.164-.226 0-.403.05-.532.148a.878.878 0 0 0-.27.318l-.45-.161c.08-.187.187-.333.32-.438.136-.105.283-.179.442-.22.16-.043.319-.065.474-.065.099 0 .213.012.341.037.13.022.255.07.375.142a.836.836 0 0 1 .303.327c.08.146.12.341.12.586v2.031h-.473v-.417h-.024a.836.836 0 0 1-.16.214.925.925 0 0 1-.3.195c-.124.054-.276.08-.455.08Zm.073-.425a.94.94 0 0 0 .474-.11.751.751 0 0 0 .393-.653v-.433c-.02.024-.064.046-.132.066a2.24 2.24 0 0 1-.233.05 10.466 10.466 0 0 1-.454.06 1.814 1.814 0 0 0-.345.079.596.596 0 0 0-.257.158.404.404 0 0 0-.096.285c0 .165.06.29.183.373a.82.82 0 0 0 .467.125Zm3.546-2.73v.402h-1.598v-.401h1.598Zm-1.132-.738h.474v2.938c0 .134.019.234.058.301.04.066.09.11.152.133.063.021.13.032.199.032a.846.846 0 0 0 .128-.008l.08-.016.097.425a.99.99 0 0 1-.353.056.952.952 0 0 1-.394-.086.781.781 0 0 1-.317-.263.756.756 0 0 1-.124-.446v-3.066Zm3.103 3.885a1.45 1.45 0 0 1-.768-.196 1.32 1.32 0 0 1-.496-.554 1.89 1.89 0 0 1-.172-.831c0-.316.057-.594.172-.835a1.36 1.36 0 0 1 .486-.566c.209-.136.452-.205.73-.205.16 0 .32.027.476.08.156.054.299.141.427.262.129.119.231.277.307.473.077.197.115.44.115.727v.2h-2.376v-.409h1.894c0-.174-.035-.33-.104-.466a.787.787 0 0 0-.739-.441.85.85 0 0 0-.49.14.925.925 0 0 0-.315.362c-.073.148-.11.307-.11.477v.273c0 .233.04.43.12.592.082.16.195.283.34.367a.994.994 0 0 0 .503.125c.125 0 .237-.017.338-.052a.721.721 0 0 0 .263-.16.73.73 0 0 0 .17-.27l.458.129c-.049.155-.13.291-.243.41a1.184 1.184 0 0 1-.422.272 1.564 1.564 0 0 1-.564.096Zm5.898-3.146a.63.63 0 0 0-.292-.474 1.124 1.124 0 0 0-.63-.169 1.2 1.2 0 0 0-.478.089.762.762 0 0 0-.317.243.581.581 0 0 0-.113.35c0 .11.026.205.079.284a.695.695 0 0 0 .204.194c.083.051.17.093.261.127.091.032.175.058.251.078l.417.112c.107.029.227.067.358.117.132.05.258.117.379.203a.936.936 0 0 1 .42.813c0 .221-.059.422-.175.601-.115.18-.284.322-.506.428-.22.105-.489.158-.805.158-.294 0-.549-.047-.764-.142a1.218 1.218 0 0 1-.506-.398 1.133 1.133 0 0 1-.207-.591h.514a.643.643 0 0 0 .156.385c.093.1.21.175.35.225.142.048.294.072.457.072.19 0 .36-.031.512-.093a.878.878 0 0 0 .36-.26.618.618 0 0 0 .132-.394.482.482 0 0 0-.115-.333.84.84 0 0 0-.3-.209 3.159 3.159 0 0 0-.404-.14l-.506-.144c-.32-.093-.575-.225-.762-.396a.868.868 0 0 1-.281-.672c0-.23.062-.431.186-.602.126-.173.295-.307.506-.402.213-.096.45-.144.712-.144.265 0 .5.047.707.142.206.094.37.222.49.386a.96.96 0 0 1 .192.556h-.481Zm2.585 3.146a1.45 1.45 0 0 1-.769-.196 1.32 1.32 0 0 1-.495-.554 1.889 1.889 0 0 1-.173-.831c0-.316.057-.594.172-.835.117-.242.279-.43.486-.566.209-.136.452-.205.73-.205.161 0 .32.027.476.08.157.054.3.141.428.262.128.119.23.277.307.473.076.197.114.44.114.727v.2h-2.376v-.409h1.895c0-.174-.035-.33-.105-.466a.787.787 0 0 0-.738-.441.85.85 0 0 0-.49.14.924.924 0 0 0-.315.362c-.074.148-.11.307-.11.477v.273c0 .233.04.43.12.592a.87.87 0 0 0 .34.367.994.994 0 0 0 .503.125c.124 0 .237-.017.337-.052a.72.72 0 0 0 .263-.16.729.729 0 0 0 .17-.27l.458.129c-.048.155-.13.291-.243.41a1.184 1.184 0 0 1-.421.272 1.563 1.563 0 0 1-.564.096Zm1.997-.064v-3.082h.457v.465h.032a.74.74 0 0 1 .305-.371.899.899 0 0 1 .498-.142 4.954 4.954 0 0 1 .249.008v.481a1.404 1.404 0 0 0-.11-.018 1.083 1.083 0 0 0-.18-.014.84.84 0 0 0-.4.094.692.692 0 0 0-.377.628v1.951h-.474Zm4.717-3.082-1.14 3.082h-.482l-1.14-3.082h.514l.85 2.456h.033l.85-2.456h.515Zm.625 3.082v-3.082h.473v3.082h-.473Zm.24-3.596a.337.337 0 0 1-.238-.094.303.303 0 0 1-.099-.227c0-.088.033-.164.099-.227a.337.337 0 0 1 .239-.094.33.33 0 0 1 .236.094.3.3 0 0 1 .1.227.3.3 0 0 1-.1.227.33.33 0 0 1-.236.094Zm2.353 3.66c-.289 0-.538-.068-.746-.204a1.334 1.334 0 0 1-.482-.564 1.91 1.91 0 0 1-.169-.821c0-.313.058-.59.173-.829.116-.24.278-.429.486-.564.208-.136.452-.205.73-.205.217 0 .412.04.586.12.174.081.316.194.427.338.112.145.18.313.207.506h-.473a.734.734 0 0 0-.241-.373c-.123-.11-.29-.165-.498-.165a.832.832 0 0 0-.486.144.942.942 0 0 0-.323.404 1.496 1.496 0 0 0-.114.608c0 .238.037.445.112.622a.953.953 0 0 0 .321.411c.14.098.303.147.49.147a.846.846 0 0 0 .335-.064.692.692 0 0 0 .404-.474h.473a1.097 1.097 0 0 1-.614.837c-.171.084-.37.126-.598.126Zm3.197 0a1.45 1.45 0 0 1-.769-.196 1.32 1.32 0 0 1-.495-.554 1.89 1.89 0 0 1-.173-.831c0-.316.058-.594.173-.835a1.36 1.36 0 0 1 .485-.566c.209-.136.453-.205.73-.205.161 0 .32.027.476.08.157.054.3.141.428.262.128.119.23.277.307.473.076.197.114.44.114.727v.2h-2.376v-.409H68.8c0-.174-.035-.33-.105-.466a.787.787 0 0 0-.738-.441.85.85 0 0 0-.49.14.925.925 0 0 0-.315.362c-.073.148-.11.307-.11.477v.273c0 .233.04.43.12.592.082.16.195.283.34.367a.994.994 0 0 0 .503.125c.124 0 .237-.017.337-.052a.721.721 0 0 0 .263-.16.73.73 0 0 0 .17-.27l.458.129c-.048.155-.129.291-.243.41a1.184 1.184 0 0 1-.421.272 1.564 1.564 0 0 1-.564.096Zm4.18-2.456-.425.12a.788.788 0 0 0-.119-.206.574.574 0 0 0-.208-.169.759.759 0 0 0-.34-.066.81.81 0 0 0-.471.13c-.125.086-.187.195-.187.327 0 .118.043.211.129.28.085.068.22.124.401.17l.458.112c.275.067.48.17.616.307a.718.718 0 0 1 .202.528c0 .177-.05.335-.152.474-.1.139-.241.249-.422.329-.18.08-.39.12-.63.12-.314 0-.574-.068-.78-.204a.907.907 0 0 1-.392-.598l.45-.113c.043.166.124.29.243.373.12.083.277.125.471.125.221 0 .396-.047.526-.14.131-.096.197-.21.197-.342a.358.358 0 0 0-.113-.269.717.717 0 0 0-.345-.164l-.514-.12c-.282-.068-.49-.171-.622-.312a.753.753 0 0 1-.196-.532c0-.173.048-.327.146-.461a.997.997 0 0 1 .403-.315c.172-.076.366-.114.582-.114.305 0 .545.066.719.2.175.134.3.31.373.53Z" fill="#363636"/><path d="M11.135 21.792c2.295-2.16 4.47-4.229 6.675-6.263.408-.377.452-.58.016-.948a30.334 30.334 0 0 1-1.884-1.768c-.26-.26-.408-.257-.675 0-2.26 2.157-4.537 4.298-6.81 6.443-.8.756-1.601 1.513-2.399 2.273-.144.138-.279.27-.511.27-1.661-.007-3.319-.003-5.03-.003.176-.393.512-.553.763-.792 2.458-2.33 4.917-4.656 7.378-6.982 2.198-2.078 4.405-4.147 6.59-6.235.286-.27.443-.27.719.003.995.976 2.016 1.925 3.133 2.986V7.062c0-.823.022-1.646-.01-2.465-.018-.461.158-.584.591-.578 1.444.02 2.885.02 4.33 0 .398-.006.511.123.505.518-.022 1.501-.01 3.005-.01 4.634.679-.621 1.29-1.174 1.89-1.739C28.93 5.04 31.465 2.644 33.986.236c.276-.264.433-.348.763-.034 3.356 3.186 6.731 6.348 10.09 9.531.286.27.437.267.72 0 1.798-1.714 3.622-3.397 5.418-5.114.33-.317.512-.286.823.013 3.66 3.475 7.334 6.938 11.007 10.398 2.26 2.128 4.527 4.248 6.797 6.367.1.094.233.157.349.235-.025.057-.047.113-.073.17h-.857c-1.504 0-3.007-.022-4.508.012-.483.01-.835-.147-1.171-.467-1.84-1.759-3.686-3.507-5.535-5.256-2.025-1.912-4.056-3.815-6.075-5.733-.255-.242-.42-.28-.688-.012-.769.76-1.55 1.51-2.358 2.229-.332.295-.351.455-.009.775 2.725 2.54 5.431 5.102 8.144 7.654.242.23.48.459.735.7-.21.151-.374.098-.522.098-2.185.003-4.37 0-6.552.01-.342 0-.596-.08-.854-.324-3.849-3.655-7.71-7.3-11.569-10.945-1.108-1.045-2.232-2.069-3.325-3.133-.301-.295-.458-.22-.719.028-2.32 2.21-4.653 4.411-6.982 6.61-2.653 2.501-5.31 4.997-7.962 7.496-.166.157-.33.261-.575.261-2.401-.01-4.806-.006-7.356-.006l-.006-.007Z" fill="#EFA07D"/><path d="M45.313 47.606H63.958c.462 0 .924-.013 1.373-.135 1.466-.405 2.285-1.94 1.952-3.654-.307-1.586-1.365-2.437-3.076-2.437-6.295 0-12.587.01-18.882.016h-.757c1.134-1.3 1.774-2.722 2.01-4.31.282-1.919.292-3.847-.226-5.724-.873-3.165-3.064-5.014-6.122-5.95-.186-.056-.368-.11-.543-.245h.442c9.66-.012 19.324-.018 28.985-.044.546 0 .712.13.694.688a49.273 49.273 0 0 0 0 3.667c.021.562-.173.644-.676.64-5.27-.018-10.542-.012-15.814-.009-2.527 0-3.905 1.928-3.114 4.345.402 1.231 1.356 1.887 2.82 1.89 3.748.01 7.497-.037 11.245.016 2.72.038 5.046 1.08 6.587 3.36 1.884 2.787 1.96 5.833.468 8.787-1.429 2.829-3.994 4.025-7.067 4.06-5.152.056-10.304.009-15.453.025-.412 0-.64-.126-.845-.48-.756-1.32-1.548-2.62-2.326-3.925-.1-.167-.189-.34-.32-.581ZM13.6 25.161c3.507 0 7.014.006 10.52-.01.412 0 .55.085.537.522a83.74 83.74 0 0 0-.012 3.968c.01.453-.113.566-.562.562-6.012-.015-12.025 0-18.037-.025-.556 0-.738.098-.735.703.029 4.77.016 9.538.02 14.307 0 .302.009.603.046.898.1.804.569 1.319 1.366 1.457 1.014.176 2.038.066 3.058.07 4.75.015 9.5.012 14.25-.004.462 0 .613.104.603.584a87.942 87.942 0 0 0-.003 3.968c.006.365-.116.424-.443.424-5.732-.01-11.462.029-17.195-.022-3.714-.031-6.483-2.92-6.511-6.775-.041-5.99-.02-11.984-.007-17.974 0-1.623 1.018-2.606 2.65-2.606 3.485-.006 6.973 0 10.458 0v-.044l-.003-.003Z" fill="#4B2850"/><path d="M14.874 41.399c-2.342 0-4.684-.016-7.026.013-.515.006-.628-.145-.615-.635.034-1.3.025-2.602.003-3.902-.006-.392.11-.509.509-.506 4.744.013 9.487.013 14.231 0 .377 0 .524.076.515.493-.028 1.36-.025 2.722 0 4.082.006.38-.11.464-.47.461-2.384-.015-4.764-.01-7.147-.01v.004ZM31.383 34.878v-3.604c0-.201-.088-.462.282-.459 1.661.02 3.334-.075 4.983.07 1.808.16 2.992 1.447 3.224 3.268.116.898.075 1.799-.301 2.653-.6 1.353-1.642 2.119-3.108 2.182-1.56.066-3.124.012-4.688.038-.39.006-.402-.189-.399-.48.01-1.222.003-2.443.003-3.668h.004ZM40.142 52.576c-2.826 0-5.589-.003-8.352.006-.307 0-.414-.081-.414-.402.012-2.401.012-4.806 0-7.208 0-.352.12-.44.452-.433 1.002.018 2.003.015 3.005 0 .27-.004.44.075.584.31 1.541 2.503 3.092 4.999 4.64 7.498.028.047.04.103.088.232l-.003-.003Z" fill="#4B2850"/><path d="M33.724 15.237h-2.722v2.55h2.722v-2.55ZM37.159 15.29h-2.722v2.55h2.722v-2.55ZM33.724 18.339h-2.722v2.55h2.722v-2.55ZM37.159 18.392h-2.722v2.55h2.722v-2.55Z" fill="#EFA07D"/></svg>