<svg width="127" height="52" fill="none" xmlns="http://www.w3.org/2000/svg"><path d="M28.778 11.067a13.458 13.458 0 0 0-6.46-1.615c-2.44 0-4.39.46-5.852 1.382-1.459.922-2.19 2.14-2.19 3.649 0 .287.025.562.072.829.143.816.608 1.543 1.4 2.194.24.216 1.28.934 3.12 2.156.955.71 1.657 1.248 2.092 1.611 0 0 .009-.004.013-.008.085.076.148.135.173.152.436.35.634.943.765 1.467.127.503.034.909-.465 1.142-.6.274-1.314.325-1.961.363-1.04.06-2.08.009-3.12-.034-.47-.02-.94-.004-1.4-.13a4.057 4.057 0 0 1-1.243-.593c-.753-.524-1.213-1.184-1.383-1.974-.143-.837.157-1.34.897-1.505-.072.144-.098.372-.072.68.072.478.38.72.934.72s.812-.322.719-.969c-.144-.79-.609-1.184-1.4-1.184-.646 0-1.158.203-1.543.609-.334-1.911-1.928-2.867-4.773-2.867-1.653 0-3.082.516-4.287 1.544C1.604 19.713 1 20.969 1 22.453c0 .287.025.575.072.862.406 2.27 2.055 3.852 4.95 4.736-.595 1.15-.896 2.308-.896 3.48 0 .384.034.752.106 1.111.237 1.29.825 2.334 1.759 3.12.934.791 2.021 1.184 3.268 1.184.91 0 1.801-.291 2.672-.875.876-.583 1.467-1.243 1.776-1.979.17.808.774 1.552 1.814 2.229 1.04.676 2.038 1.014 2.997 1.014 1.916 0 3.505-.562 4.774-1.687 1.268-1.124 1.902-2.583 1.902-4.376 0-.406-.038-.824-.105-1.255-.503-2.774-2.368-4.16-5.598-4.16-.79 0-1.51.232-2.152.701-.647.465-.91.99-.79 1.56.118.694.477 1.04 1.077 1.04.74 0 1.053-.346.935-1.04-.097-.524-.465-.79-1.112-.79.406-.36.875-.537 1.4-.537 1.15 0 2.075.33 2.781.989.706.66 1.057 1.547 1.057 2.672 0 1.412-.499 2.693-1.488 3.84-.994 1.15-2.017 1.72-3.07 1.72-.934 0-1.746-.262-2.439-.79a3.242 3.242 0 0 1-1.366-2.225c.026-1.15.119-1.987.288-2.511-.047-.313-.203-.465-.465-.465-.406 0-.647.11-.719.321.144 1.387-.199 2.685-1.023 3.894-.825 1.21-1.848 1.814-3.07 1.814-1.052 0-2-.317-2.837-.951-.837-.635-1.353-1.489-1.543-2.567a4.711 4.711 0 0 1-.072-.824c0-1.29.419-2.452 1.256-3.48.237.025.49.034.753.034 1.196 0 2.27-.262 3.23-.79.955-.53 1.374-1.125 1.255-1.793-.118-.72-.477-1.078-1.078-1.078-.816 0-1.162.325-1.04.968.098.478.322.803.681.968-.837.647-1.793.968-2.87.968-.242 0-.457-.025-.648-.072 2.296-2.418 3.683-4.27 4.165-5.564.287 1.078.955 1.928 2.008 2.55.91.55 1.903.85 2.98.896.073 0 .504.038 1.295.106.693.046 1.29.072 1.792.072 2.968 0 4.389-1.04 4.27-3.125-.02-.52-.054-1.014-.376-1.437a6.218 6.218 0 0 0-.575-.639c-.017-.017-.034-.03-.046-.046v-.03l-.19-.152c-.043-.038-.085-.08-.127-.119-.09-.084-.131-.118-.19-.135a49.416 49.416 0 0 1-1.523-1.272 61.678 61.678 0 0 1-2.997-2.085c-.969-.718-1.54-1.568-1.704-2.553a1.879 1.879 0 0 1-.072-.504c0-2.084 2.105-3.128 6.316-3.128 2.034 0 3.924.465 5.67 1.4 1.865.98 2.93 2.202 3.192 3.66.047.263.072.53.072.791 0 1.028-.347 1.86-1.04 2.495-.693.634-1.518.951-2.477.951-.863 0-1.687-.321-2.478-.968-.79-.647-1.184-1.387-1.184-2.224 0-.622.199-1.146.592-1.577.397-.431.854-.647 1.383-.647.287 0 .608.072.968.216-.668.143-.947.515-.825 1.112.119.693.49 1.04 1.112 1.04.385 0 .71-.127.985-.377s.39-.558.343-.913c-.072-.503-.364-.926-.88-1.273-.515-.346-1.035-.52-1.56-.52-.909 0-1.649.271-2.224.808-.575.537-.862 1.226-.862 2.063 0 1.15.457 2.135 1.366 2.96.909.824 1.949 1.239 3.124 1.239 1.294 0 2.397-.415 3.319-1.24.922-.824 1.382-1.847 1.382-3.069 0-2.105-1.221-3.813-3.66-5.132l.012.004ZM9.223 23.987c-1.437 1.603-2.367 2.774-2.799 3.518-1.89-.668-2.836-2.02-2.836-4.054 0-1.29.418-2.406 1.255-3.336.884-1.028 1.975-1.543 3.268-1.543a2.77 2.77 0 0 1 1.687.558c.504.372.791.807.863 1.31.046.19.072.385.072.575 0 .863-.503 1.856-1.51 2.98v-.008ZM59.689 27.243c.047.334.072.668.072 1.002 0 1.746-.66 3.268-1.975 4.57-1.315 1.303-2.93 1.954-4.845 1.954-1.027 0-2.063-.351-3.103-1.053s-1.657-1.505-1.848-2.41c-1.1 2.025-2.49 3.04-4.164 3.04-.816 0-1.687-.321-2.622-.968-1.17-.863-1.89-2.009-2.152-3.442a9.03 9.03 0 0 1-.144-1.577c0-1.17.237-2.127.72-2.87-3.375-.863-5.062-2.668-5.062-5.417 0-1.53.605-2.887 1.814-4.071 1.21-1.184 2.541-1.776 4-1.776s2.68.326 3.59.973c.908.646 1.399 1.454 1.47 2.414.432-.626 1.016-.939 1.76-.939 1.15 0 1.792.393 1.936 1.184.118.765-.216 1.146-1.006 1.146-.55 0-.875-.3-.969-.905-.025-.17.047-.372.216-.613-.406-.026-.76.169-1.057.575-.296.406-.414.85-.342 1.332.287 1.606 1.615 2.41 3.983 2.41 1.458 0 2.73-.516 3.822-1.544 1.09-1.027 1.631-2.295 1.631-3.805 0-.313-.025-.634-.071-.968-.263-1.53-1.269-2.799-3.015-3.805-1.315 3.04-2.693 4.558-4.126 4.558-.74 0-1.37-.271-1.886-.808a2.679 2.679 0 0 1-.77-1.924c0-.96.406-1.737 1.222-2.338.812-.6 1.831-.9 3.053-.9 1.433 0 2.76.477 3.983 1.437 1.29 1.053 2.08 2.385 2.367 3.987.072.385.106.765.106 1.15 0 1.7-.634 3.095-1.903 4.186-1.268 1.09-2.845 1.636-4.74 1.636-1.098 0-2.075-.313-2.925-.934-.85-.622-1.382-1.425-1.598-2.406-.216.431-.85 1.184-1.903 2.262-1.052 1.078-1.805 2.08-2.262 3.015 1.29.118 2.406-.288 3.336-1.222-.19-.17-.325-.444-.393-.825-.097-.668.203-1.006.896-1.006.647 0 1.007.262 1.079.79.143.791-.284 1.531-1.273 2.224-.99.694-2.076 1.04-3.247 1.04a4.71 4.71 0 0 1-.825-.071c-.575.647-.862 1.653-.862 3.014 0 1.15.414 2.262 1.239 3.336.824 1.078 1.763 1.615 2.816 1.615 1.052 0 2.008-.473 2.798-1.416.791-.943 1.184-1.992 1.184-3.142 0-.359-.046-.706-.144-1.04.072-.334.275-.503.61-.503.312 0 .515.157.608.465-.169.385-.237 1.222-.215 2.512.359 2.08 1.543 3.124 3.551 3.124 1.171 0 2.338-.609 3.5-1.83 1.16-1.222 1.743-2.537 1.743-3.95 0-1.006-.385-1.89-1.15-2.655-.766-.765-1.65-1.15-2.656-1.15-.312 0-.646.203-1.006.61.529.071.837.333.935.79.118.575-.17.862-.863.862-.575 0-.922-.334-1.04-1.006-.118-.596.127-1.112.736-1.543.609-.431 1.323-.647 2.135-.647 1.196 0 2.283.347 3.268 1.04 1.078.812 1.734 1.89 1.975 3.226h.008Zm-15.288-9.505c-.098-.55-.406-1.023-.935-1.416-.528-.393-1.09-.592-1.687-.592-1.34 0-2.435.436-3.285 1.31-.85.876-1.272 1.92-1.272 3.142 0 1.818.934 3.243 2.798 4.27.453-.909 1.434-2.152 2.943-3.733 1.1-1.15 1.577-2.14 1.438-2.98Zm7.14-6.422c-.477-.19-.934-.287-1.365-.287a2.36 2.36 0 0 0-1.653.63c-.457.418-.634.88-.537 1.382.118.79.55 1.184 1.294 1.184s1.496-.968 2.262-2.909ZM84.35 26.537c.098.529.144 1.04.144 1.543 0 2.038-.664 3.73-1.991 5.082-1.328 1.353-3.044 2.03-5.15 2.03-.934 0-1.885-.271-2.854-.812-.968-.541-1.454-1.104-1.454-1.679-1.387 1.662-2.824 2.495-4.308 2.495a5.952 5.952 0 0 1-3.734-1.277c-1.099-.85-1.78-1.996-2.046-3.433a7.323 7.323 0 0 1-.072-1.006c0-1.51.575-2.77 1.72-3.776 1.15-1.006 2.559-1.51 4.237-1.51 1.269 0 2.309.292 3.12.88.812.588 1.29 1.336 1.434 2.245.046.19.072.36.072.503 0 .91-.322 1.366-.969 1.366-.528 0-.85-.313-.968-.934-.046-.335.038-.588.25-.753.215-.17.465-.178.752-.038-.025-.575-.342-1.095-.951-1.56-.609-.465-1.273-.702-1.991-.702-1.15 0-2.11.376-2.888 1.129-.778.752-1.167 1.754-1.167 2.997 0 .334.025.668.072 1.007.165 1.006.638 1.864 1.416 2.583.778.719 1.573 1.078 2.389 1.078.909 0 1.649-.313 2.224-.934.575-.622.862-1.4.862-2.334a3.92 3.92 0 0 0-.071-.753c-.047-.36.072-.537.359-.537s.448.14.486.415c.038.274.089.807.16 1.598.12.672.466 1.256 1.04 1.759.576.503 1.223.752 1.937.752 1.172 0 2.334-.55 3.484-1.653 1.387-1.29 2.08-2.917 2.08-4.879 0-.478-.038-.968-.105-1.471-.334-1.793-1.235-3.146-2.694-4.055-1.124-.719-2.786-1.243-4.989-1.581-1.915-.237-3.839-.49-5.78-.753-4.667-.718-7.166-2.008-7.5-3.877a3.23 3.23 0 0 1-.072-.68c0-1.485.947-2.977 2.837-4.486a679.85 679.85 0 0 1 5.383-3.696 199.22 199.22 0 0 0 2.942-1.974c.812-.622 1.15-1.315 1.007-2.08-.047-.334-.275-.596-.681-.79.19.646.046.967-.431.967-.6 0-.947-.3-1.04-.904-.098-.702.215-1.049.934-1.049 1.649 0 2.621.816 2.909 2.444.072.334.105.634.105.896 0 .888-.537 1.843-1.615 2.875-.503.478-1.555 1.247-3.158 2.3-1.962 1.294-3.133 2.085-3.518 2.372-2.202 1.653-3.302 2.98-3.302 3.987 0 .17.013.347.038.537.165 1.053 2.153 1.81 5.958 2.262 5.048.575 8.109 1.053 9.187 1.437 3.42 1.248 5.408 3.391 5.957 6.431l.004-.004Z" fill="#2C7400" stroke="#000" stroke-width=".114" stroke-miterlimit="10"/><path d="M98.049 25.784a8.89 8.89 0 0 1 .144 1.616c0 2.156-.681 3.995-2.047 5.517-1.365 1.522-3.099 2.283-5.204 2.283-1.556 0-3.015-.49-4.38-1.476-1.531-1.103-2.296-2.481-2.296-4.134 0-1.007.334-1.823 1.006-2.444.6-.55 1.256-.829 1.974-.829.812 0 1.29.385 1.438 1.15.046.288-.017.562-.199.825-.177.262-.414.393-.702.393-.837 0-1.23-.453-1.183-1.366-.981.503-1.472 1.281-1.472 2.334 0 1.34.622 2.478 1.865 3.408 1.15.862 2.418 1.294 3.805 1.294 1.649 0 3.027-.563 4.126-1.688 1.1-1.124 1.653-2.57 1.653-4.342 0-.456-.046-.921-.143-1.4-.334-2.033-1.197-3.876-2.584-5.53-.312-.359-1.496-1.509-3.551-3.445-1.171-1.1-1.759-2.06-1.759-2.87 0-.648.22-1.164.664-1.544.444-.385.926-.562 1.454-.537-.36.241-.477.685-.36 1.328.073.405.694 1.15 1.865 2.228 1.531 1.365 2.668 2.54 3.408 3.522 1.29 1.75 2.118 3.653 2.478 5.712v-.005ZM122.989 23.362c.119.621.178 1.247.178 1.869 0 2.756-1.036 5.018-3.103 6.794-2.068 1.771-4.719 2.66-7.949 2.66-2.558 0-4.642-.63-6.245-1.89-1.602-1.26-2.439-2.838-2.511-4.736-1.387-.698-2.19-1.678-2.406-2.955a3.673 3.673 0 0 1-.072-.685c0-1.463.55-2.199 1.649-2.199.622 0 .994.347 1.112 1.04.119.719-.19 1.078-.934 1.078-.36 0-.647-.19-.863-.575-.143.406-.203.706-.177.897.19 1.078.752 1.869 1.687 2.367.19-1.771.968-3.111 2.334-4.02 1.099-.74 2.405-1.112 3.91-1.112 2.152 0 3.349.731 3.59 2.19.046.19.072.384.072.575 0 1.268-.647 2.32-1.937 3.158-1.196.79-2.608 1.184-4.236 1.184-1.222 0-2.177-.19-2.871-.575.503 3.564 3.197 5.348 8.076 5.348 2.367 0 4.329-.968 5.885-2.909 1.505-1.864 2.262-4.151 2.262-6.853 0-.766-.059-1.53-.178-2.296-.406-2.25-1.568-4.14-3.479-5.67-1.675-1.315-3.349-2.033-5.023-2.152a8.55 8.55 0 0 1 .177 1.721c0 1.936-.562 3.408-1.686 4.414-.694.622-1.662.934-2.909.934-1.028 0-1.928-.363-2.694-1.095-.765-.727-1.15-1.619-1.15-2.672 0-1.386.74-2.46 2.224-3.226 1.387-.74 3.256-1.112 5.598-1.112 3.061 0 5.657 1.02 7.788 3.057 2.034 1.92 3.328 4.397 3.877 7.442l.004.004Zm-11.952 1.661c-.072-.503-.359-.913-.863-1.238a2.948 2.948 0 0 0-1.615-.487c-1.293 0-2.333.385-3.12 1.15-.791.766-1.209 1.818-1.256 3.159 1.29.456 2.283.68 2.981.68 1.006 0 1.937-.346 2.799-1.04.863-.693 1.222-1.433 1.078-2.224h-.004Zm-.072-11.267c-1.366-.072-2.499.13-3.408.609-1.027.55-1.543 1.315-1.543 2.295 0 .668.245 1.273.736 1.814.49.541 1.057.808 1.704.808 1.792 0 2.693-1.34 2.693-4.021 0-.55-.059-1.053-.178-1.505h-.004ZM126 43.817c0 1.97-.736 3.653-2.207 5.048-1.471 1.39-3.26 2.088-5.365 2.088-2.989 0-4.676-1.141-5.061-3.416a3.21 3.21 0 0 1-.072-.685c0-1.703.909-2.553 2.727-2.553 1.197 0 1.89.477 2.08 1.433.119.719-.19 1.078-.934 1.078-.575 0-.934-.313-1.078-.934-.047-.36.051-.61.287-.753a3.866 3.866 0 0 0-.503-.038c-.621 0-1.112.199-1.471.592-.36.393-.478.854-.36 1.383.17.934.719 1.686 1.654 2.261.837.504 1.78.753 2.832.753 1.746 0 3.281-.638 4.596-1.92 1.315-1.28 1.975-2.794 1.975-4.54 0-1.653-.66-3.104-1.975-4.36-1.315-1.255-2.811-1.885-4.486-1.885-1.289 0-2.367.406-3.23 1.222-.862.812-1.268 1.856-1.222 3.12-.046.17-.19.25-.431.25-.216 0-.372-.284-.465-.842-.097-.562-.588-1.18-1.471-1.847-1.1-.838-2.368-1.256-3.806-1.256-1.315 0-2.452.347-3.407 1.04-.956.693-1.438 1.615-1.438 2.765 0 1.006.372 1.937 1.112 2.799.744.863 1.615 1.29 2.621 1.29.863 0 1.531-.334 2.009-1.007a.991.991 0 0 1-.503.144c-.55 0-.897-.36-1.041-1.078-.143-.74.216-1.112 1.079-1.112.816 0 1.293.431 1.437 1.29.118.646-.106 1.25-.681 1.813-.575.563-1.281.842-2.118.842-1.006 0-1.974-.406-2.909-1.222-.934-.816-1.496-1.772-1.687-2.875a6.39 6.39 0 0 1-.071-.935c0-1.58.668-2.85 2.008-3.81 1.268-.908 2.824-1.365 4.667-1.365.935 0 1.899.229 2.888.685.994.457 1.683.96 2.063 1.514.838-.905 1.569-1.497 2.191-1.776.621-.283 1.509-.423 2.655-.423 1.89 0 3.547.732 4.972 2.199 1.425 1.467 2.135 3.137 2.135 5.01l.004.013Z" fill="#2C7400" stroke="#000" stroke-width=".114" stroke-miterlimit="10"/><path d="M72.863 44.15v-.397h2.768v.396h-1.16v3.294h-.448v-3.294h-1.16Zm3.177 3.293h-.468l1.355-3.69h.461l1.355 3.69h-.468l-1.103-3.107h-.029l-1.103 3.107ZM76.213 46h1.889v.397h-1.889V46Zm6.03-2.248v3.69h-.432l-2.01-2.898h-.036v2.898h-.447v-3.69h.432l2.018 2.904h.036v-2.904h.44Zm3.316 0h.447v2.443c0 .252-.06.477-.178.675a1.249 1.249 0 0 1-.5.467c-.214.113-.467.17-.756.17-.29 0-.542-.057-.757-.17a1.261 1.261 0 0 1-.5-.467 1.298 1.298 0 0 1-.177-.675v-2.443h.447v2.407c0 .18.04.34.119.48.079.14.192.25.338.33.148.08.325.12.53.12.205 0 .382-.04.53-.12.147-.08.26-.19.338-.33.08-.14.12-.3.12-.48v-2.407Zm1.34 3.69v-3.69h.446v1.83h.043l1.658-1.83h.584l-1.55 1.664 1.55 2.026h-.54l-1.284-1.716-.46.52v1.196h-.448Zm5.73-3.69h.447v2.443c0 .252-.06.477-.178.675a1.249 1.249 0 0 1-.5.467c-.214.113-.466.17-.756.17s-.541-.057-.757-.17a1.261 1.261 0 0 1-.5-.467 1.297 1.297 0 0 1-.177-.675v-2.443h.447v2.407c0 .18.04.34.119.48.08.14.192.25.338.33.148.08.325.12.53.12.206 0 .382-.04.53-.12.148-.08.26-.19.339-.33.079-.14.119-.3.119-.48v-2.407ZM7.555 43.77l1.096 3.106h.043l1.095-3.106h.469l-1.355 3.69h-.461l-1.355-3.69h.468Zm3.724 0v3.69h-.447v-3.69h.447Zm.774 3.69v-.325l1.989-2.969H12.03v-.396h2.544v.324l-1.989 2.97h2.01v.395h-2.543Zm3.444 0h-.468l1.355-3.69h.461l1.355 3.69h-.468l-1.103-3.107H16.6l-1.103 3.106Zm.174-1.442h1.888v.396H15.67v-.396Zm5.453-1.095a1.3 1.3 0 0 0-.157-.326 1.008 1.008 0 0 0-.229-.25.961.961 0 0 0-.299-.156 1.193 1.193 0 0 0-.367-.054c-.22 0-.418.057-.597.17a1.17 1.17 0 0 0-.427.499c-.105.22-.158.489-.158.809 0 .319.053.589.16.808.107.22.252.387.434.5.183.112.388.169.616.169.212 0 .398-.045.559-.135a.958.958 0 0 0 .378-.386 1.21 1.21 0 0 0 .137-.589l.137.029h-1.11v-.397h1.406v.397c0 .304-.065.568-.195.793a1.344 1.344 0 0 1-.533.522 1.605 1.605 0 0 1-.779.184c-.326 0-.613-.077-.86-.23a1.554 1.554 0 0 1-.577-.657c-.137-.283-.206-.62-.206-1.008 0-.292.04-.555.117-.788.08-.234.191-.433.335-.598.145-.164.315-.29.512-.378.197-.088.414-.132.65-.132.195 0 .377.03.545.088a1.461 1.461 0 0 1 .785.627c.09.147.15.31.184.489h-.461ZM37.098 44.55V40.92h1.362c.278 0 .5.037.667.111a.84.84 0 0 1 .393.34.883.883 0 0 1 .144.478.823.823 0 0 1-.126.438.902.902 0 0 1-.382.332c.22.065.388.175.506.33a.878.878 0 0 1 .178.55c0 .17-.036.328-.109.475a.91.91 0 0 1-.265.337c-.106.08-.239.14-.399.181-.158.04-.353.06-.584.06h-1.385Zm.48-2.105h.786c.213 0 .365-.014.458-.042a.503.503 0 0 0 .275-.181.516.516 0 0 0 .094-.317.578.578 0 0 0-.087-.317.432.432 0 0 0-.247-.188c-.108-.035-.292-.053-.553-.053h-.726v1.098Zm0 1.677h.904c.156 0 .265-.006.328-.017a.783.783 0 0 0 .277-.1.528.528 0 0 0 .183-.2.64.64 0 0 0 .072-.307.598.598 0 0 0-.104-.352.54.54 0 0 0-.29-.21 1.742 1.742 0 0 0-.53-.063h-.84v1.25Zm2.931.429v-3.632h1.61c.324 0 .57.033.739.099.168.064.303.18.403.344.101.166.151.348.151.548a.913.913 0 0 1-.25.651c-.167.177-.424.29-.773.337.127.061.224.122.29.181.14.129.273.29.399.483l.632.989h-.605l-.48-.756a6.904 6.904 0 0 0-.347-.5 1.077 1.077 0 0 0-.245-.243.708.708 0 0 0-.218-.097 1.45 1.45 0 0 0-.268-.017h-.557v1.613h-.481Zm.48-2.03h1.034c.22 0 .391-.022.515-.066a.556.556 0 0 0 .282-.218c.065-.1.097-.21.097-.327a.54.54 0 0 0-.188-.424c-.124-.11-.32-.166-.59-.166h-1.15v1.202Zm2.78 2.03 1.395-3.632h.518l1.486 3.632h-.547l-.424-1.1h-1.519l-.399 1.1h-.51Zm1.048-1.492h1.231l-.379-1.005a9.932 9.932 0 0 1-.257-.754 4.64 4.64 0 0 1-.196.694l-.399 1.065Zm2.73 1.492v-3.632h.493l1.908 2.851V40.92h.46v3.632h-.493l-1.907-2.854v2.854h-.461Zm6.263-1.274.48.122c-.1.394-.282.696-.545.904-.26.206-.58.31-.958.31-.392 0-.71-.08-.957-.238a1.51 1.51 0 0 1-.56-.694 2.484 2.484 0 0 1-.19-.973c0-.379.072-.708.215-.989.146-.282.351-.496.617-.642a1.8 1.8 0 0 1 .882-.22c.363 0 .669.092.917.277.247.185.42.446.517.78l-.473.112c-.084-.264-.206-.456-.366-.577a.977.977 0 0 0-.605-.18c-.279 0-.513.066-.701.2a1.062 1.062 0 0 0-.394.54 2.16 2.16 0 0 0-.114.696c0 .309.045.579.134.81.09.23.231.401.421.515.19.114.396.171.617.171.27 0 .497-.077.684-.233.186-.155.313-.385.379-.69Zm1.09 1.274v-3.632h.48v1.491h1.888V40.92h.48v3.632h-.48v-1.712H55.38v1.712h-.48Zm3.661 0v-3.632h2.626v.428h-2.145v1.113h2.009v.426h-2.01v1.236h2.23v.429h-2.71Zm3.21-1.167.454-.04c.022.182.071.331.149.449.08.115.201.21.366.282.166.071.351.106.558.106.183 0 .345-.027.485-.081a.67.67 0 0 0 .313-.223c.069-.096.104-.2.104-.312a.467.467 0 0 0-.1-.298.728.728 0 0 0-.326-.215 6.28 6.28 0 0 0-.647-.176c-.334-.081-.567-.157-.701-.228a.997.997 0 0 1-.39-.337.841.841 0 0 1-.125-.453c0-.183.052-.354.156-.513a.963.963 0 0 1 .456-.364c.2-.083.421-.124.666-.124.27 0 .506.044.71.131.207.086.366.213.477.382.11.168.17.359.178.572l-.46.035c-.026-.23-.11-.403-.254-.52-.142-.118-.352-.176-.631-.176-.291 0-.503.053-.637.16a.477.477 0 0 0-.198.385c0 .13.047.237.141.322.093.084.334.17.723.26.392.087.66.164.806.23.211.098.367.221.468.372.1.148.15.32.15.515a.994.994 0 0 1-.165.547c-.11.17-.27.304-.478.4-.207.093-.44.14-.699.14-.328 0-.604-.047-.827-.143a1.168 1.168 0 0 1-.721-1.085Zm3.15 1.167 1.394-3.632h.518l1.486 3.632h-.547l-.424-1.1H65.83l-.4 1.1h-.51Zm1.047-1.492H67.2l-.38-1.005a9.977 9.977 0 0 1-.257-.754 4.627 4.627 0 0 1-.196.694l-.399 1.065Zm3.283 1.492v-3.204h-1.197v-.428h2.879v.428h-1.202v3.204h-.48Z" fill="#000"/><path d="M50.124 47.068c.351.123.503.524.91.609-.01-.08-.03-.136-.014-.178.034-.084.068-.194.136-.228.11-.055.215.008.275.123.105.198-.026.465-.275.537-.237.067-.465 0-.69-.08-.075-.03-.194-.039-.253 0-.182.117-.351.105-.52 0-.102-.064-.186-.047-.292-.01a1.817 1.817 0 0 1-.554.127.41.41 0 0 1-.414-.414c0-.173.123-.3.275-.287.148.012.199.101.169.3v.097c.173.05.266-.05.35-.156.14-.178.242-.398.563-.415-.22-.203-.427-.22-.634-.207-.3.021-.529.199-.753.376-.143.115-.287.237-.435.347-.503.376-1.066.503-1.67.343-.533-.14-1.057-.313-1.586-.47-.114-.033-.224-.072-.342-.093-.165-.03-.313.017-.402.17-.025.042-.034.118-.012.152.02.03.097.03.147.033.077.009.153.009.229.013-.072.068-.131.16-.216.19-.156.06-.33-.046-.393-.198-.06-.148.017-.317.186-.398.11-.05.228-.08.351-.118-.25-.305-.956-.3-1.175 0-.026.034-.013.101 0 .148.02.072.067.135.08.207a.304.304 0 0 1-.258.368c-.152.025-.283-.076-.296-.258-.008-.123.025-.25.047-.389-.157-.072-.326 0-.495.06-.326.122-.643.261-.977.358a1.61 1.61 0 0 1-.587.03.472.472 0 0 1-.3-.186c-.102-.152-.216-.144-.352-.097-.059.021-.122.042-.165.084-.143.136-.266.178-.405-.012-.034-.047-.148-.051-.224-.051-.905-.008-1.814-.008-2.719-.013-.634 0-1.264-.008-1.898-.017-.064 0-.127-.012-.19-.02a.25.25 0 0 0-.01-.06c.069-.025.136-.072.204-.076.427-.03.854-.072 1.28-.072 1.054 0 2.11.017 3.163.025.195 0 .402.026.537-.181.017-.026.123-.017.178 0 .063.02.11.076.17.11.151.08.274.093.392-.077a.847.847 0 0 1 .305-.236c.046-.026.135.033.203.055-.038.05-.072.11-.123.152-.047.038-.106.06-.16.089l.025.072c.148-.038.3-.06.444-.11.24-.085.473-.186.714-.271.436-.148.888-.152 1.345-.144.44.009.88.009 1.319-.012.537-.026 1.036.063 1.496.346.08.051.178.085.296.14.055-.292.144-.529.49-.448.166.038.238.156.25.308.005.064-.033.136-.055.203-.02 0-.042-.008-.063-.013l-.05-.169c-.03-.097-.085-.19-.195-.135a.372.372 0 0 0-.165.203c-.013.06.034.165.089.212.24.207.524.308.845.249.152-.03.27-.118.305-.28-.102-.016-.229 0-.284-.054a.417.417 0 0 1-.114-.3c.009-.127.22-.229.377-.207.19.025.295.152.346.32.03.094.038.191.06.305.173-.13.33-.266.498-.372.174-.106.355-.203.546-.275a.784.784 0 0 1 .727.09c.106.071.203.088.309.016.287-.207.587-.178.883-.046.195.088.372.215.558.33.11.067.212.143.339.232.025-.131.038-.233.067-.33a.367.367 0 0 1 .305-.266c.152-.026.291.025.367.16.038.072.06.187.03.254-.025.06-.135.089-.216.106-.063.013-.13-.009-.207-.017.013.186.114.279.258.338.292.123.765.017.947-.245.06-.085.064-.237.034-.343-.038-.126-.144-.118-.24-.017-.047.047-.123.068-.187.098.008-.076-.008-.17.025-.228.085-.132.229-.165.38-.127.149.034.233.135.25.287l.03.207c.089-.033.156-.05.22-.084.74-.419 1.547-.47 2.367-.431.867.042 1.713.185 2.529.49.173.063.368.072.596.114-.102-.389-.364-.254-.609-.266.06-.064.085-.114.127-.131.19-.085.49.012.609.19.118.182.232.211.406.06.14-.123.258-.11.422-.06.229.068.478.097.715.097 1.357.009 2.719 0 4.076 0 .055 0 .118-.012.165 0 .046.017.08.068.118.102-.042.038-.084.11-.127.114-.19.008-.385-.009-.575-.009-1.26-.004-2.52-.008-3.78-.017-.232 0-.456.017-.65.17-.115.093-.242.046-.347-.03-.182-.14-.326-.152-.516.021-.258.233-.6.228-.922.152-.25-.055-.486-.173-.731-.266-.17-.063-.343-.131-.533-.203v.3c.008.165-.063.275-.216.33-.122.042-.236.013-.308-.102-.093-.139-.08-.283.02-.414.043-.059.11-.097.161-.144-.257-.363-.934-.359-1.285-.008.102.038.212.06.305.11.165.093.22.287.143.431-.067.127-.321.203-.465.131-.03-.017-.046-.063-.072-.093.034-.017.072-.055.106-.05.135.012.262.012.254-.17-.005-.13-.136-.211-.317-.169-.233.06-.461.14-.69.22a6.164 6.164 0 0 1-1.716.385c-.423.025-.8-.106-1.142-.322-.308-.194-.587-.44-.904-.621-.19-.11-.423-.165-.643-.207-.118-.026-.254.03-.33.194v.013Zm-2.845.672c-.41.106-.728-.105-1.057-.279-.136-.072-.27-.148-.41-.22-.423-.22-.871-.355-1.353-.355-.093 0-.182.017-.309.025.46.195.867.381 1.285.546.334.131.673.254 1.02.35.27.073.557.064.824-.067Zm5.716.047c.304.144 2.418-.584 2.575-.888h-.284c-.862.034-1.534.55-2.291.888Zm-9.855-.863c-.956-.148-1.772.305-2.647.541.101.06.211.119.308.102.229-.038.461-.089.677-.173.41-.157.807-.343 1.273-.233.16.038.342-.093.389-.237Zm16.117.558c-.8-.14-1.523-.579-2.368-.562.034.173.16.207.296.237.308.067.613.14.917.224.208.059.41.148.618.207.181.05.367.047.537-.102v-.004Zm-2.406.208c.199-.047.173-.165.144-.3-.195.025-.17.147-.144.3Zm-13.96-.258-.098.025c.025.084.05.169.072.25.025-.013.076-.026.072-.034-.013-.08-.034-.165-.051-.246l.004.005Z" fill="#000" opacity=".72"/></svg>