<svg width="258" height="61" fill="none" xmlns="http://www.w3.org/2000/svg"><path d="M82.957 26.392V13.22h2.164V26.39h-2.164Zm1.494 0v-1.974h6.889v1.974h-6.89ZM97.016 26.582a4.052 4.052 0 0 1-2.21-.625 4.525 4.525 0 0 1-1.565-1.684c-.38-.706-.57-1.503-.57-2.38 0-.879.19-1.694.57-2.4a4.477 4.477 0 0 1 1.566-1.692 4.06 4.06 0 0 1 2.209-.634c.688 0 1.303.145 1.837.443.535.3.96.697 1.268 1.213.317.516.471 1.096.471 1.748v2.598c0 .651-.154 1.24-.462 1.747a3.268 3.268 0 0 1-1.268 1.213c-.543.299-1.158.444-1.846.444v.009Zm.344-1.965c.77 0 1.385-.253 1.856-.77.47-.515.706-1.176.706-1.973a3.14 3.14 0 0 0-.317-1.43 2.377 2.377 0 0 0-.896-.969c-.38-.235-.833-.344-1.35-.344-.515 0-.94.118-1.33.344a2.46 2.46 0 0 0-.905.969c-.218.416-.326.887-.326 1.43 0 .543.108 1.014.326 1.43.217.417.516.734.905.97.38.235.824.343 1.33.343Zm2.426 1.774v-2.426l.353-2.2-.353-2.181v-2.218h2.073v9.035h-2.073v-.01ZM104.657 26.392V12.84h2.073v13.552h-2.073Zm5.739 0-3.82-4.608 3.802-4.418h2.462l-4.363 4.97.091-1.186 4.462 5.25h-2.634v-.008ZM117.213 26.582a5.14 5.14 0 0 1-1.449-.2 5.064 5.064 0 0 1-1.276-.56 4.182 4.182 0 0 1-1.014-.897l1.322-1.313c.317.362.67.634 1.086.815.407.181.869.272 1.385.272.462 0 .815-.073 1.05-.209a.654.654 0 0 0 .353-.606.733.733 0 0 0-.335-.643c-.226-.154-.516-.28-.878-.39a37.036 37.036 0 0 0-1.131-.325 5.11 5.11 0 0 1-1.132-.462 2.469 2.469 0 0 1-.878-.796c-.226-.335-.335-.779-.335-1.322 0-.58.136-1.068.407-1.485.272-.416.652-.733 1.15-.96.498-.226 1.086-.334 1.774-.334.725 0 1.367.127 1.929.39a3.533 3.533 0 0 1 1.403 1.158l-1.322 1.312a2.57 2.57 0 0 0-.905-.733c-.335-.163-.724-.244-1.168-.244-.416 0-.733.063-.959.19-.227.127-.335.308-.335.543 0 .253.108.444.335.58.226.135.515.253.878.352.353.1.733.209 1.131.326.399.118.77.281 1.132.49.353.207.652.479.878.823.226.344.335.797.335 1.349 0 .878-.308 1.575-.924 2.091-.615.516-1.448.77-2.498.77l-.009.018ZM122.853 26.392V12.84h2.073v13.552h-2.073Zm6.192 0v-5.215c0-.597-.191-1.095-.571-1.485-.38-.389-.878-.579-1.475-.579-.399 0-.761.09-1.069.263a1.793 1.793 0 0 0-.733.733c-.172.317-.262.67-.262 1.068l-.806-.453c0-.688.154-1.303.453-1.837.298-.534.715-.95 1.249-1.259a3.532 3.532 0 0 1 1.801-.461c.67 0 1.277.154 1.811.452.534.3.941.716 1.24 1.25.299.534.453 1.15.453 1.855v5.668H129.045ZM133.734 26.392v-9.035h2.073v9.035h-2.073Zm6.002 0v-5.387c0-.597-.19-1.068-.561-1.403-.381-.335-.842-.498-1.395-.498-.38 0-.715.073-1.004.226a1.753 1.753 0 0 0-.707.652c-.172.28-.262.625-.262 1.023l-.806-.453c0-.688.154-1.285.453-1.783a3.182 3.182 0 0 1 1.222-1.177 3.569 3.569 0 0 1 1.729-.425c.634 0 1.213.136 1.729.416.516.28.924.661 1.222 1.168.299.498.453 1.104.453 1.81v5.83h-2.073Zm6.002 0v-5.387c0-.597-.19-1.068-.562-1.403-.38-.335-.841-.498-1.394-.498-.362 0-.697.073-.995.226a1.777 1.777 0 0 0-.716.652c-.172.28-.262.625-.262 1.023l-1.168-.453c.063-.688.263-1.285.607-1.783a3.69 3.69 0 0 1 1.303-1.177 3.704 3.704 0 0 1 1.756-.425c.634 0 1.241.136 1.766.416.525.28.95.661 1.258 1.168.317.498.471 1.104.471 1.81v5.83h-2.073.009ZM151.495 15.7c-.353 0-.643-.117-.878-.353-.235-.235-.344-.534-.344-.887s.118-.643.344-.887c.226-.245.525-.353.878-.353s.661.117.887.353c.227.235.335.534.335.887s-.108.643-.335.887c-.226.236-.525.353-.887.353Zm-1.032 10.692v-9.035h2.073v9.035h-2.073ZM165.853 26.582a6.296 6.296 0 0 1-2.562-.525 6.723 6.723 0 0 1-3.531-3.621 6.78 6.78 0 0 1-.516-2.644c0-.941.172-1.82.516-2.634a6.953 6.953 0 0 1 1.43-2.155 6.378 6.378 0 0 1 2.146-1.448 6.837 6.837 0 0 1 2.661-.516c1.042 0 2.01.199 2.897.606.887.408 1.639.969 2.236 1.711l-1.466 1.467a3.675 3.675 0 0 0-1.566-1.268 5.01 5.01 0 0 0-2.11-.443c-.905 0-1.692.199-2.38.588a4.105 4.105 0 0 0-1.594 1.648c-.38.706-.561 1.52-.561 2.444 0 .923.19 1.747.57 2.453.381.706.897 1.268 1.548 1.666.652.398 1.394.598 2.218.598.878 0 1.639-.163 2.263-.48a3.274 3.274 0 0 0 1.458-1.43c.335-.634.507-1.413.507-2.345l1.358.977h-5.631v-1.973h6.509v.299c0 1.566-.281 2.87-.833 3.91-.561 1.042-1.322 1.82-2.29 2.336-.969.516-2.073.77-3.314.77l.037.009ZM178.445 26.582c-.814 0-1.557-.209-2.208-.625a4.53 4.53 0 0 1-1.567-1.684c-.38-.706-.57-1.503-.57-2.38 0-.879.19-1.694.57-2.4a4.484 4.484 0 0 1 1.567-1.692 4.056 4.056 0 0 1 2.208-.634c.688 0 1.304.145 1.838.443.534.3.96.697 1.267 1.213.317.516.471 1.096.471 1.748v2.598c0 .651-.154 1.24-.461 1.747a3.27 3.27 0 0 1-1.268 1.213c-.543.299-1.159.444-1.847.444v.009Zm.335-1.965c.77 0 1.385-.253 1.856-.77.471-.515.706-1.176.706-1.973a3.13 3.13 0 0 0-.317-1.43 2.376 2.376 0 0 0-.896-.969c-.38-.235-.833-.344-1.349-.344s-.941.118-1.33.344a2.462 2.462 0 0 0-.906.969c-.217.416-.326.887-.326 1.43 0 .543.109 1.014.326 1.43.218.417.516.734.906.97.38.235.823.343 1.33.343Zm2.426 1.774v-2.426l.354-2.2-.354-2.181v-2.218h2.074v9.035h-2.074v-.01ZM186.086 26.392v-9.035h2.073v9.035h-2.073Zm6.192 0v-5.215c0-.597-.19-1.095-.57-1.485-.381-.389-.878-.579-1.476-.579-.398 0-.76.09-1.068.263a1.787 1.787 0 0 0-.733.733c-.172.317-.263.67-.263 1.068l-.806-.453c0-.688.154-1.303.453-1.837.299-.534.715-.95 1.249-1.259a3.536 3.536 0 0 1 1.802-.461c.67 0 1.276.172 1.81.516.525.344.942.787 1.241 1.34.298.543.452 1.113.452 1.701v5.668H192.278ZM200.742 26.582a4.031 4.031 0 0 1-2.209-.625 4.536 4.536 0 0 1-1.566-1.684c-.38-.706-.57-1.503-.57-2.38 0-.879.19-1.694.57-2.4a4.49 4.49 0 0 1 1.566-1.692 4.06 4.06 0 0 1 2.209-.634c.688 0 1.304.145 1.838.443.534.3.96.697 1.267 1.213.317.516.471 1.096.471 1.748v2.598c0 .651-.154 1.24-.462 1.747a3.26 3.26 0 0 1-1.267 1.213c-.543.299-1.159.444-1.847.444v.009Zm.335-1.965c.77 0 1.385-.253 1.856-.77.471-.515.706-1.176.706-1.973a3.13 3.13 0 0 0-.317-1.43 2.375 2.375 0 0 0-.896-.969c-.38-.235-.833-.344-1.349-.344s-.941.118-1.331.344c-.38.236-.688.552-.905.969-.217.416-.326.887-.326 1.43 0 .543.109 1.014.326 1.43.217.417.516.734.905.97.381.235.824.343 1.331.343Zm2.435 1.774v-2.426l.353-2.2-.353-2.181v-2.218h2.073V26.4h-2.073v-.01ZM208.381 30.148v-12.8h2.073v2.426l-.353 2.2.353 2.181v5.984h-2.073v.01Zm4.834-3.566c-.688 0-1.303-.145-1.846-.444a3.273 3.273 0 0 1-1.268-1.213 3.344 3.344 0 0 1-.461-1.747V20.58c0-.652.154-1.231.47-1.747a3.357 3.357 0 0 1 1.277-1.214c.543-.298 1.15-.443 1.828-.443.815 0 1.558.208 2.209.634.661.416 1.177.986 1.566 1.692.381.707.571 1.512.571 2.4 0 .886-.19 1.674-.571 2.38a4.448 4.448 0 0 1-1.566 1.684 4.051 4.051 0 0 1-2.209.625v-.01Zm-.334-1.965a2.6 2.6 0 0 0 1.33-.344c.38-.235.679-.552.906-.968.217-.417.325-.888.325-1.43 0-.544-.108-1.015-.325-1.431a2.468 2.468 0 0 0-.906-.969c-.38-.235-.824-.344-1.33-.344-.507 0-.951.118-1.34.344-.39.236-.688.552-.906.969-.217.416-.316.887-.316 1.43 0 .543.108 1.014.316 1.43.218.417.516.734.906.97.389.235.833.343 1.34.343ZM223.581 26.582a4.03 4.03 0 0 1-2.209-.625 4.52 4.52 0 0 1-1.566-1.684c-.38-.706-.57-1.503-.57-2.38 0-.879.19-1.694.57-2.4a4.474 4.474 0 0 1 1.566-1.692 4.058 4.058 0 0 1 2.209-.634c.688 0 1.304.145 1.838.443.534.3.959.697 1.267 1.213.317.516.471 1.096.471 1.748v2.598c0 .651-.154 1.24-.462 1.747a3.267 3.267 0 0 1-1.267 1.213c-.543.299-1.159.444-1.847.444v.009Zm.344-1.965c.77 0 1.385-.253 1.856-.77.471-.515.706-1.176.706-1.973 0-.543-.109-1.014-.317-1.43a2.376 2.376 0 0 0-.896-.969c-.38-.235-.833-.344-1.349-.344s-.941.118-1.331.344c-.38.236-.688.552-.905.969-.217.416-.326.887-.326 1.43 0 .543.109 1.014.326 1.43.217.417.516.734.905.97.381.235.824.343 1.331.343Zm2.426 1.774v-2.426l.353-2.2-.353-2.181v-2.218h2.073V26.4h-2.073v-.01ZM230.435 19.24v-1.883h6.4v1.883h-6.4Zm2.163 7.152V13.59h2.073v12.8h-2.073ZM238.844 26.392V12.84h2.073v13.552h-2.073Zm6.192 0v-5.215c0-.597-.19-1.095-.57-1.485-.38-.389-.878-.579-1.476-.579-.398 0-.76.09-1.068.263a1.787 1.787 0 0 0-.733.733c-.172.317-.263.67-.263 1.068l-.805-.453c0-.688.154-1.303.452-1.837.299-.534.715-.95 1.25-1.259a3.532 3.532 0 0 1 1.801-.461c.67 0 1.276.154 1.811.452.534.3.941.716 1.24 1.25.299.534.452 1.15.452 1.855v5.668H245.036ZM250.775 15.7a1.188 1.188 0 0 1-1.222-1.24c0-.353.118-.643.344-.887.227-.245.525-.353.878-.353s.661.117.887.353c.227.235.335.534.335.887s-.108.643-.335.887c-.226.236-.525.353-.887.353Zm-1.032 10.692v-9.035h2.073v9.035h-2.073Z" fill="#8D633A"/><path d="M87.112 45.112a4.318 4.318 0 0 1-1.72-.334 4.139 4.139 0 0 1-1.376-.942 4.398 4.398 0 0 1-.905-1.403 4.684 4.684 0 0 1-.317-1.72c0-.616.109-1.186.317-1.72.208-.534.516-.996.905-1.403a4.276 4.276 0 0 1 3.096-1.286c.688 0 1.295.118 1.793.344a4.3 4.3 0 0 1 1.34.933l-.951.95a2.712 2.712 0 0 0-.924-.652 3.23 3.23 0 0 0-1.267-.235 2.97 2.97 0 0 0-1.159.217 2.56 2.56 0 0 0-.914.634c-.263.28-.453.597-.588.969a3.584 3.584 0 0 0-.209 1.23c0 .444.073.86.209 1.232.135.371.335.697.588.968.253.272.561.48.914.625.353.145.734.217 1.159.217.525 0 .96-.081 1.322-.235.362-.163.67-.38.923-.652l.95.95c-.389.4-.85.716-1.375.942-.525.227-1.141.344-1.82.344l.01.027ZM101.832 45.112a2.992 2.992 0 0 1-1.548-.407 3.073 3.073 0 0 1-1.105-1.104 2.997 2.997 0 0 1-.407-1.548c0-.57.136-1.087.407-1.54a3.121 3.121 0 0 1 1.105-1.095 2.992 2.992 0 0 1 1.548-.407 3.042 3.042 0 0 1 2.67 1.503c.272.461.408.977.408 1.548 0 .57-.136 1.086-.408 1.548a3.067 3.067 0 0 1-1.104 1.104 3.04 3.04 0 0 1-1.566.407v-.009Zm0-1.294c.335 0 .633-.072.887-.226.253-.154.453-.363.597-.625.145-.272.218-.57.218-.914 0-.344-.073-.643-.218-.906a1.56 1.56 0 0 0-.597-.615 1.735 1.735 0 0 0-.878-.227c-.335 0-.616.073-.869.227a1.624 1.624 0 0 0-.598.615 1.833 1.833 0 0 0-.217.906c0 .344.072.651.217.914.145.272.344.48.598.625.253.154.543.226.869.226h-.009ZM113.953 44.995v-5.866h1.34v5.866h-1.34Zm4.02 0v-3.386c0-.39-.127-.715-.372-.969-.244-.253-.57-.38-.959-.38-.263 0-.489.055-.697.172a1.227 1.227 0 0 0-.48.48 1.37 1.37 0 0 0-.172.697l-.525-.29c0-.443.099-.842.29-1.195.19-.353.461-.615.814-.814a2.29 2.29 0 0 1 1.168-.3c.435 0 .833.11 1.177.336.344.226.606.516.806.869.199.353.289.724.289 1.104v3.676h-1.339ZM130.529 45.112c-.326 0-.643-.045-.942-.126a3.27 3.27 0 0 1-.832-.362 2.683 2.683 0 0 1-.661-.58l.851-.85c.199.235.434.416.706.533.262.118.561.181.896.181.299 0 .525-.045.688-.135.154-.09.235-.218.235-.39a.484.484 0 0 0-.217-.416 2.111 2.111 0 0 0-.57-.253 39.53 39.53 0 0 0-.733-.218 3.678 3.678 0 0 1-.734-.299 1.57 1.57 0 0 1-.57-.516c-.145-.217-.217-.506-.217-.85 0-.372.09-.698.262-.97.172-.27.426-.479.743-.624.325-.145.706-.217 1.158-.217.471 0 .887.081 1.25.253.362.163.669.417.914.752l-.851.85a1.745 1.745 0 0 0-.588-.479 1.683 1.683 0 0 0-.761-.163c-.271 0-.48.045-.625.118-.144.081-.217.199-.217.353 0 .163.073.29.217.38.145.09.335.163.571.235.235.064.48.136.733.218.254.081.498.18.733.316.236.136.426.317.571.535.144.226.217.516.217.869 0 .57-.199 1.023-.598 1.358-.398.334-.941.497-1.62.497h-.009ZM141.284 40.35V39.13h4.155v1.222h-4.155Zm1.403 4.645v-8.31h1.34v8.31h-1.34ZM154.337 44.995v-5.866h1.34v5.866h-1.34Zm1.349-3.26-.461-.235c0-.742.163-1.34.497-1.801.326-.462.833-.688 1.494-.688.29 0 .561.054.797.163.235.108.452.28.661.516l-.878.905a.895.895 0 0 0-.354-.244 1.348 1.348 0 0 0-.452-.073c-.371 0-.688.118-.933.353-.244.236-.362.607-.362 1.114l-.009-.01ZM169.646 45.112c-.498 0-.942-.108-1.322-.326a2.373 2.373 0 0 1-.905-.914c-.218-.39-.326-.833-.326-1.34V39.13h1.34v3.35c0 .28.045.524.144.723.091.2.236.353.417.462.181.109.398.163.652.163.389 0 .688-.118.896-.344.208-.226.308-.561.308-.996v-3.35h1.339v3.404c0 .517-.108.96-.325 1.35a2.33 2.33 0 0 1-.897.905c-.38.217-.823.325-1.33.325l.009-.009ZM184.184 45.112a3.038 3.038 0 0 1-1.566-.407 3.001 3.001 0 0 1-1.512-2.643c0-.57.136-1.096.407-1.557a2.985 2.985 0 0 1 1.105-1.096c.47-.271.996-.407 1.566-.407.453 0 .878.09 1.276.262.399.172.734.426 1.005.752l-.878.896c-.172-.2-.38-.353-.616-.462a2.064 2.064 0 0 0-.787-.154c-.335 0-.634.073-.887.227a1.625 1.625 0 0 0-.598.615c-.145.263-.217.57-.217.915 0 .344.072.642.217.914.145.263.344.47.598.625.253.154.552.226.887.226.281 0 .543-.054.787-.154.245-.1.444-.254.616-.462l.878.888a2.81 2.81 0 0 1-1.005.75 3.184 3.184 0 0 1-1.276.263v.01ZM194.749 40.35V39.13h4.155v1.222h-4.155Zm1.403 4.645v-8.31h1.339v8.31h-1.339ZM208.491 38.051a.779.779 0 0 1-.57-.235.771.771 0 0 1-.227-.57c0-.227.073-.417.227-.57a.779.779 0 0 1 .57-.236c.226 0 .425.081.57.235a.8.8 0 0 1 .218.57.8.8 0 0 1-.218.571.75.75 0 0 1-.57.235Zm-.67 6.944v-5.866h1.34v5.866h-1.34ZM221.283 45.112c-.57 0-1.086-.135-1.548-.407a3.066 3.066 0 0 1-1.104-1.104 2.992 2.992 0 0 1-.408-1.548c0-.57.136-1.087.408-1.54a3.114 3.114 0 0 1 1.104-1.095 2.997 2.997 0 0 1 1.548-.407c.57 0 1.095.136 1.566.407.462.272.833.634 1.105 1.096.271.461.407.977.407 1.548 0 .57-.136 1.086-.407 1.548a3.077 3.077 0 0 1-1.105 1.104 3.04 3.04 0 0 1-1.566.407v-.009Zm0-1.294c.335 0 .625-.072.887-.226a1.65 1.65 0 0 0 .598-.625 1.88 1.88 0 0 0 .217-.914c0-.344-.073-.643-.217-.906a1.562 1.562 0 0 0-.598-.615 1.647 1.647 0 0 0-.878-.227c-.335 0-.616.073-.869.227a1.624 1.624 0 0 0-.598.615 1.844 1.844 0 0 0-.217.906c0 .344.073.651.217.914.145.262.344.48.598.625.253.154.543.226.869.226h-.009ZM233.404 44.995v-5.866h1.34v5.866h-1.34Zm4.019 0v-3.386c0-.39-.127-.715-.371-.969-.244-.253-.57-.38-.96-.38-.262 0-.488.055-.697.172a1.218 1.218 0 0 0-.479.48 1.37 1.37 0 0 0-.172.697l-.525-.29c0-.443.099-.842.289-1.195.199-.344.462-.615.815-.814.344-.2.733-.3 1.168-.3.434 0 .833.11 1.177.336.344.226.606.516.805.869.199.353.29.724.29 1.104v3.676h-1.34ZM249.98 45.112c-.326 0-.643-.045-.942-.126a3.276 3.276 0 0 1-.833-.362 2.928 2.928 0 0 1-.661-.58l.851-.85c.2.235.435.416.706.533.263.118.562.181.897.181.298 0 .525-.045.688-.135.154-.09.235-.218.235-.39a.484.484 0 0 0-.217-.416 2.105 2.105 0 0 0-.571-.253 35.44 35.44 0 0 0-.733-.218 3.67 3.67 0 0 1-.733-.299 1.562 1.562 0 0 1-.57-.516c-.145-.217-.218-.506-.218-.85 0-.372.091-.698.263-.97.172-.27.425-.479.742-.624.326-.145.706-.217 1.159-.217.471 0 .887.081 1.249.253.362.163.67.417.915.752l-.851.85a1.739 1.739 0 0 0-.589-.479 1.678 1.678 0 0 0-.76-.163c-.272 0-.48.045-.625.118-.145.081-.217.199-.217.353 0 .163.072.29.217.38.145.09.335.163.57.235.236.064.48.136.734.218.253.081.498.18.733.316s.425.317.57.535c.145.226.218.516.218.869 0 .57-.2 1.023-.598 1.358-.398.334-.941.497-1.62.497h-.009Z" fill="#FFC625"/><path d="M84.604 60.05c-.308 0-.561-.064-.778-.19a1.26 1.26 0 0 1-.498-.544 1.81 1.81 0 0 1-.172-.824c0-.317.054-.597.172-.823.117-.236.28-.408.498-.535.217-.126.48-.19.778-.19.218 0 .408.036.58.1.172.063.316.163.443.28l-.145.326a1.475 1.475 0 0 0-.407-.262 1.235 1.235 0 0 0-.462-.082c-.335 0-.588.1-.77.308-.18.208-.262.498-.262.878s.09.68.263.887c.18.209.434.308.77.308.171 0 .325-.027.46-.081.137-.055.273-.136.408-.263l.145.317a1.196 1.196 0 0 1-.443.28c-.172.064-.362.1-.58.1v.01ZM86.741 60.013v-3.032H88c.326 0 .57.072.752.226.181.154.262.362.262.633a.834.834 0 0 1-.117.462.748.748 0 0 1-.335.29c-.145.063-.317.1-.507.1l.072-.064h.1c.118 0 .226.027.317.09.09.055.172.154.226.29l.434 1.005h-.443l-.416-.996c-.046-.126-.118-.208-.218-.244a.965.965 0 0 0-.353-.054h-.633v1.294h-.399Zm.398-1.602h.797c.217 0 .39-.045.507-.145.118-.09.172-.235.172-.416s-.054-.317-.172-.408c-.118-.09-.28-.136-.507-.136h-.797v1.105ZM89.891 60.013l1.34-3.032h.344l1.367 3.032h-.417l-.37-.86.171.1H90.48l.19-.1-.371.86h-.408Zm1.512-2.58-.67 1.593-.1-.09h1.558l-.082.09-.688-1.593h-.018ZM93.901 60.013v-3.032h1.92v.325H94.3v1.014h1.421v.326H94.3v1.367H93.9ZM97.595 60.013v-2.688h-1.05v-.345h2.507v.345h-1.05v2.688h-.407ZM100.003 60.013v-3.032h.398v3.032h-.398ZM101.66 60.013v-3.032h.307l1.902 2.516h-.1V56.98h.371v3.033h-.308l-1.901-2.507h.1v2.507h-.371ZM106.811 60.05c-.335 0-.616-.064-.842-.19a1.162 1.162 0 0 1-.507-.535 1.945 1.945 0 0 1-.172-.833c0-.326.063-.597.181-.832.118-.236.29-.408.516-.535.226-.126.498-.19.815-.19.217 0 .416.027.579.09.163.064.308.155.435.272l-.154.317a1.457 1.457 0 0 0-.263-.19 1.208 1.208 0 0 0-.271-.108 1.627 1.627 0 0 0-.326-.037c-.353 0-.625.109-.806.317-.19.208-.28.507-.28.887s.09.688.271.887c.181.2.462.308.842.308a1.964 1.964 0 0 0 .769-.145l-.081.2V58.7h-.76v-.308h1.104v1.421c-.127.063-.29.118-.48.163-.19.045-.38.063-.57.063v.01ZM110.749 60.013v-3.032h.398v1.321h1.765V56.98h.407v3.033h-.407v-1.367h-1.765v1.367h-.398ZM114.461 58.492c0-.316.054-.597.172-.823.109-.236.272-.408.48-.535.208-.126.461-.19.751-.19s.543.064.751.19c.209.127.372.308.489.535.118.235.172.507.172.823 0 .317-.054.598-.172.824-.117.226-.28.416-.489.543-.208.127-.461.19-.751.19s-.543-.063-.751-.19a1.226 1.226 0 0 1-.48-.543 1.932 1.932 0 0 1-.172-.824Zm.425 0c0 .38.082.67.254.888.163.208.407.316.733.316s.552-.108.733-.316c.172-.209.263-.508.263-.888s-.091-.679-.263-.887c-.172-.208-.416-.317-.733-.317s-.57.109-.733.317c-.163.208-.254.507-.254.887ZM118.435 60.013v-3.032h.353l1.195 2.688h-.127l1.195-2.688h.353v3.032h-.362v-2.498h.136l-1.123 2.498h-.253l-1.123-2.498h.136v2.498h-.38ZM122.662 60.013v-3.032h1.965v.325h-1.576v1.005h1.476v.326h-1.476v1.05h1.576v.326h-1.965ZM126.681 60.05c-.244 0-.461-.028-.66-.091a1.669 1.669 0 0 1-.507-.263l.135-.316c.1.072.2.135.308.19.1.054.218.09.335.108.118.027.245.036.389.036.254 0 .435-.045.553-.135a.436.436 0 0 0 .181-.362.384.384 0 0 0-.127-.3c-.081-.072-.226-.126-.435-.162l-.461-.09c-.281-.055-.489-.155-.625-.281-.136-.127-.208-.308-.208-.534 0-.181.045-.335.145-.471a.925.925 0 0 1 .398-.317 1.53 1.53 0 0 1 .598-.109c.208 0 .407.027.588.09.181.064.335.155.453.282l-.136.307a1.262 1.262 0 0 0-.417-.253 1.428 1.428 0 0 0-.497-.082c-.227 0-.408.046-.535.145a.46.46 0 0 0-.199.398.39.39 0 0 0 .127.308c.081.073.217.136.416.172l.462.09c.29.055.507.146.643.272a.66.66 0 0 1 .208.516.762.762 0 0 1-.136.453.864.864 0 0 1-.389.299 1.545 1.545 0 0 1-.607.108v-.009ZM128.954 60.53l-.172-.137a.633.633 0 0 0 .208-.462l.081.091h-.317v-.48h.48v.335a.866.866 0 0 1-.063.344c-.036.109-.118.209-.217.317v-.009ZM132.05 60.013v-3.032h1.231c.326 0 .579.072.751.208a.707.707 0 0 1 .263.58.66.66 0 0 1-.172.47.892.892 0 0 1-.462.253v-.063c.226.027.398.1.525.235.127.127.19.299.19.516 0 .272-.09.48-.271.625-.182.145-.435.217-.77.217h-1.294l.009-.009Zm.389-1.693h.787c.227 0 .399-.045.507-.136a.473.473 0 0 0 .172-.38.448.448 0 0 0-.172-.38c-.117-.09-.28-.136-.507-.136h-.787v1.033Zm0 1.376h.86c.208 0 .38-.045.498-.126.117-.082.181-.218.181-.408 0-.19-.064-.326-.181-.407-.118-.082-.29-.118-.498-.118h-.86v1.06ZM136.721 60.05c-.417 0-.725-.11-.924-.317-.199-.209-.298-.525-.298-.933v-1.82h.407v1.811c0 .299.063.525.199.679.136.154.344.226.625.226.28 0 .479-.072.624-.226.145-.154.209-.38.209-.679v-1.81h.398v1.82c0 .407-.1.723-.308.931-.208.209-.516.317-.914.317h-.018ZM139.192 60.013v-3.032h.399v3.032h-.399ZM140.858 60.013v-3.032h.398v2.688h1.512v.344h-1.91ZM143.737 60.013v-3.032h1.032c.335 0 .624.054.86.172.235.117.407.29.534.516.118.226.181.497.181.823 0 .326-.063.598-.181.824a1.183 1.183 0 0 1-.534.516c-.236.118-.516.172-.86.172h-1.032v.01Zm.407-.335h.598c.407 0 .706-.1.896-.29.199-.199.29-.488.29-.887 0-.398-.1-.688-.29-.887-.199-.19-.498-.29-.896-.29h-.598v2.354ZM147.494 60.013v-3.032h.398v3.032h-.398ZM149.15 60.013v-3.032h.308l1.901 2.516h-.099V56.98h.371v3.033h-.308l-1.901-2.507h.1v2.507h-.372ZM154.301 60.05c-.335 0-.615-.064-.842-.19a1.162 1.162 0 0 1-.507-.535 1.96 1.96 0 0 1-.172-.833c0-.326.064-.597.181-.832.118-.236.29-.408.516-.535.227-.126.498-.19.815-.19.217 0 .416.027.579.09.163.064.308.155.435.272l-.154.317a1.216 1.216 0 0 0-.534-.299 1.627 1.627 0 0 0-.326-.036c-.353 0-.625.109-.806.317-.19.208-.28.507-.28.887s.09.688.271.887c.181.2.462.308.842.308a1.98 1.98 0 0 0 .77-.145l-.082.2V58.7h-.76v-.308h1.104v1.421a2.263 2.263 0 0 1-.48.163c-.19.045-.38.063-.57.063v.01ZM158.23 60.013v-3.032h.354l1.194 2.688h-.126l1.195-2.688h.353v3.032h-.362v-2.498h.135l-1.122 2.498h-.254l-1.122-2.498h.136v2.498h-.381ZM162.458 60.013v-3.032h1.964v.325h-1.575v1.005h1.475v.326h-1.475v1.05h1.575v.326h-1.964ZM165.518 60.013v-3.032h.353l1.195 2.688h-.127l1.195-2.688h.353v3.032h-.362v-2.498h.136l-1.123 2.498h-.253l-1.123-2.498h.136v2.498h-.38ZM169.636 58.492c0-.316.055-.597.172-.823.109-.236.272-.408.48-.535.208-.126.462-.19.751-.19.29 0 .544.064.752.19.208.127.371.308.489.535.117.235.172.507.172.823 0 .317-.055.598-.172.824a1.359 1.359 0 0 1-.489.543c-.208.127-.462.19-.752.19-.289 0-.543-.063-.751-.19a1.226 1.226 0 0 1-.48-.543 1.947 1.947 0 0 1-.172-.824Zm.426 0c0 .38.081.67.253.888.163.208.408.316.733.316.326 0 .553-.108.734-.316.172-.209.262-.508.262-.888s-.09-.679-.262-.887c-.172-.208-.417-.317-.734-.317-.316 0-.57.109-.733.317-.163.208-.253.507-.253.887ZM173.61 60.013v-3.032h1.259c.326 0 .57.072.751.226.181.154.263.362.263.633a.838.838 0 0 1-.118.462.75.75 0 0 1-.335.29c-.145.063-.317.1-.507.1l.072-.064h.1c.118 0 .226.027.317.09.09.055.172.154.226.29l.435 1.005h-.444l-.416-.996c-.046-.126-.118-.208-.218-.244a.962.962 0 0 0-.353-.054h-.633v1.294h-.399Zm.399-1.602h.796c.218 0 .39-.045.507-.145.118-.09.172-.235.172-.416s-.054-.317-.172-.408c-.117-.09-.28-.136-.507-.136h-.796v1.105ZM177.123 60.013v-3.032h.398v3.032h-.398ZM178.789 60.013v-3.032h1.964v.325h-1.575v1.005h1.475v.326h-1.475v1.05h1.575v.326h-1.964ZM182.808 60.05c-.244 0-.461-.028-.66-.091a1.657 1.657 0 0 1-.507-.263l.135-.316c.1.072.2.135.308.19.1.054.217.09.335.108.118.027.245.036.389.036.254 0 .435-.045.553-.135a.436.436 0 0 0 .181-.362.384.384 0 0 0-.127-.3c-.082-.072-.226-.126-.435-.162l-.461-.09c-.281-.055-.489-.155-.625-.281-.136-.127-.208-.308-.208-.534 0-.181.045-.335.145-.471a.925.925 0 0 1 .398-.317 1.53 1.53 0 0 1 .598-.109c.208 0 .407.027.588.09.181.064.335.155.453.282l-.136.307a1.262 1.262 0 0 0-.417-.253 1.43 1.43 0 0 0-.498-.082c-.226 0-.407.046-.534.145a.46.46 0 0 0-.199.398c0 .136.045.236.127.308.081.073.217.136.416.172l.462.09c.29.055.507.146.643.272a.66.66 0 0 1 .208.516.762.762 0 0 1-.136.453.864.864 0 0 1-.389.299 1.545 1.545 0 0 1-.607.108v-.009Z" fill="#8D633A"/><path d="m12.057 58.963 64.256-.127M192.178 58.836 258 58.827" stroke="#FFC625" stroke-width=".905" stroke-miterlimit="10"/><path d="M39.649 19.195c-1.186-2.861-2.227-3.413-5.133-2.77-2.091.461-4.128 1.14-6.21 1.656-2.463.607-4.346-.39-5.414-2.806-.796-1.81-.923-3.748-.905-5.703.009-1.331 0-1.34-1.068-.752-1.259.697-2.517 1.412-3.766 2.118.208.598.109 1.521.109 2.264 0 .543-.037 1.14-.037 2.67 0 6.328.037 20.215.073 24.46h4.825c-.154-1.72-.172-3.458.054-5.214.534-4.182 3.015-6.101 6.89-5.115 1.656.426 3.285 1.005 4.933 1.458 2.815.779 4.255.244 5.386-2.145 1.566-3.305 1.648-6.727.254-10.103l.009-.018Z" fill="#FFC625"/><path d="M22.64 43.917h-6.908c-1.077 0-1.25-1.14-1.25-2.326v-4.843c0-5.486 0-14.829-.036-20.314 0-1.286 0-2.517-.036-3.857v-.118c-4.454 2.508-8.908 5.006-13.362 7.523-.986.561-1.285 1.322-.86 2.073.426.77 1.114.86 2.146.28 2.77-1.556 5.54-3.104 8.31-4.661.987-.562 1.014-.552 1.023.66v24.189c0 2.499 1.231 3.775 3.649 3.784 2.217 0 4.426-.045 6.644.018.969.028 1.114-.253.924-1.213a47.089 47.089 0 0 1-.227-1.204l-.018.01Z" fill="#FFC625"/><path d="M35.648 46.298c8.075-.018 16.15-.027 24.225-.054 2.797 0 4.037-1.276 4.037-4.083 0-8.03-.027-16.068-.036-24.098v-1.385c3.241 1.729 6.292 3.35 9.343 4.979.344.18.678.425 1.04.543.734.235 1.476.2 1.838-.597.326-.734.136-1.404-.597-1.838a27.184 27.184 0 0 0-1.123-.625c-5.35-2.86-10.7-5.712-16.05-8.573C51.934 7.154 45.552 3.733 39.169.311c-.688-.372-1.33-.435-2.027-.055-3.83 2.082-7.659 4.146-11.488 6.21-.326.172-.625.344-.643.77-.136 2.173-.28 4.363.444 6.473.688 2.01 2.018 2.797 4.137 2.525a15.9 15.9 0 0 0 2.507-.552c1.738-.525 3.458-1.14 5.269-1.421 2.163-.335 3.893.29 5.241 2.11 2.798 3.801 2.852 10.681.064 14.465-1.177 1.603-2.67 2.39-4.69 2.218a13.091 13.091 0 0 1-1.783-.299c-3.739-.932-5.73-.75-6.762-.416a4.01 4.01 0 0 0-1.485.58c-.688.443-1.213 1.104-1.593 1.991-.38.887-.57 2.01-.57 3.368s.199 2.516.588 3.54c.39 1.022.96 1.828 1.702 2.407.742.58 1.638.87 2.698.87.434 0 .841-.046 1.213-.127a6.28 6.28 0 0 0 .968-.281c.28-.109.49-.19.634-.263v-3.54a.483.483 0 0 0-.1-.325.55.55 0 0 0-.262-.154l-1.937-.525v-.751h5.93v.751l-1.241.525a.995.995 0 0 0-.254.163c-.081.072-.117.181-.117.326V44.207c0 .453.018.815.045 1.077" fill="#8D633A"/></svg>