<svg width="226" height="46" fill="none" xmlns="http://www.w3.org/2000/svg"><path d="M54.932 36.592v8.906h1.884v-8.906h-1.884Z" fill="#D66518"/><path d="M54.932 27.686v8.906h1.884v-8.906h-1.884Z" fill="#EF8A3F"/><path d="M54.932 18.779v8.906h1.884V18.78h-1.884Z" fill="#EFA573"/><path d="M54.932 9.873v8.906h1.884V9.873h-1.884Z" fill="url(#a)"/><path d="M54.924.966v8.907h1.885V.966h-1.885Z" fill="#08AF9F"/><path d="M12.468 4.376v21.36l14.848 18.398V21.783L12.468 4.376Z" fill="url(#b)"/><path d="M12.387 4.27H0v39.84h12.452l.008-18.381.008.008V4.377l-.081-.106Z" fill="url(#c)"/><path d="M42.822 4.384h-3.16v3.158h3.16V4.384Z" fill="#EC7346"/><path d="M45.397 1.81h-2.575v2.574h2.575V1.811Z" fill="#3A827E"/><path d="M42.821 0h-1.819v1.819h1.82V0Z" fill="#EC7346"/><path d="M39.776 7.802h-4.102v4.1h4.102v-4.1Z" fill="#3A827E"/><path d="M35.674 15.507v-3.613h-4.013V7.802h4.013V4.271h-8.277v17.585l-.081-.073v22.351l12.46-.024V15.507h-4.102Z" fill="url(#d)"/><path d="M69.39 20.297V4.173h2.056l7.895 12.47-.268.293V4.173h2.241v16.124h-2.079l-7.87-12.284.267-.292V20.29h-2.241v.008ZM89.275 4.181v16.133h-2.267V4.18h2.267ZM101.84 14.833l4.744-10.652h2.12v16.133h-2.209V8.233l.113.706-3.972 9.134h-1.575l-3.972-8.907.114-.933v12.08h-2.21V4.182h2.12l4.744 10.652h-.017ZM121.261 14.833l4.744-10.652h2.12v16.133h-2.21V8.233l.114.706-3.972 9.134h-1.575l-3.972-8.907.113-.933v12.08h-2.209V4.182h2.12l4.744 10.652h-.017ZM132.047 20.314l5.954-16.133h1.933l5.954 16.133h-2.445l-4.475-13.015-4.476 13.015h-2.445Zm2.746-3.54v-2.152h8.496v2.152h-8.496ZM154.579 11.626h5.596v2.818c0 1.21-.235 2.273-.706 3.182a5.16 5.16 0 0 1-1.974 2.111c-.845.504-1.836.747-2.973.747-1.137 0-2.152-.235-3.005-.706a4.909 4.909 0 0 1-1.998-1.99c-.471-.852-.707-1.85-.707-2.987v-4.758c0-1.21.236-2.273.707-3.174a5.194 5.194 0 0 1 1.973-2.103c.845-.503 1.836-.747 2.973-.747.942 0 1.795.203 2.567.6a5.582 5.582 0 0 1 1.949 1.673c.528.715.878 1.56 1.064 2.517h-2.453c-.211-.836-.609-1.478-1.21-1.916-.601-.438-1.243-.666-1.917-.666-1.007 0-1.811.35-2.42 1.048-.609.698-.91 1.623-.91 2.768v4.758c0 1.047.309 1.891.934 2.525.626.633 1.446.95 2.461.95 1.016 0 1.812-.333 2.421-.999.609-.666.909-1.591.909-2.785v-.698h-3.273v-2.168h-.008ZM163.319 20.314l5.954-16.133h1.933l5.954 16.133h-2.445L170.24 7.299l-4.476 13.015h-2.445Zm2.746-3.54v-2.152h8.496v2.152h-8.496ZM181.302 20.314V4.18h2.266v16.133h-2.266Zm1.527 0v-2.152h3.655c1.194 0 2.112-.308 2.77-.925.658-.617.983-1.486.983-2.615v-4.75c0-1.12-.325-1.997-.983-2.614-.658-.617-1.576-.925-2.77-.925h-3.655V4.18h3.582c1.958 0 3.469.504 4.533 1.519 1.072 1.006 1.6 2.435 1.6 4.262v4.57c0 1.219-.244 2.266-.723 3.127-.479.86-1.178 1.518-2.096 1.973-.918.454-2.03.682-3.33.682h-3.574.008ZM197.702 20.314V4.18h2.266v16.133h-2.266Zm1.535 0v-2.152h3.655c1.194 0 2.112-.308 2.77-.925.658-.617.983-1.486.983-2.615v-4.75c0-1.12-.325-1.997-.983-2.614-.658-.617-1.576-.925-2.77-.925h-3.655V4.18h3.582c1.957 0 3.468.504 4.532 1.519 1.072 1.006 1.6 2.435 1.6 4.262v4.57c0 1.219-.243 2.266-.723 3.127-.479.86-1.177 1.518-2.095 1.973-.918.454-2.031.682-3.33.682h-3.574.008ZM212.111 20.314l5.954-16.133h1.933l5.954 16.133h-2.445l-4.476-13.015-4.475 13.015h-2.445Zm2.737-3.54v-2.152h8.496v2.152h-8.496Z" fill="#EC7346"/><path d="M78.544 29.139c.187.187.276.422.276.714v9.361c0 .285-.097.52-.292.707a1.044 1.044 0 0 1-.747.284.983.983 0 0 1-.699-.284.937.937 0 0 1-.292-.707V35.44h-5.166v3.775c0 .285-.106.52-.309.707a1.035 1.035 0 0 1-.715.284.999.999 0 0 1-.722-.284.96.96 0 0 1-.285-.707v-9.36a.95.95 0 0 1 .293-.707c.195-.187.446-.284.747-.284.268 0 .504.097.699.284a.937.937 0 0 1 .292.706v3.727h5.166v-3.727c0-.284.105-.511.308-.706.204-.187.439-.284.715-.284.3 0 .544.089.731.276ZM102.627 37.469a5.471 5.471 0 0 1-1.965 2.11c-.837.52-1.78.78-2.827.78-1.048 0-1.99-.26-2.827-.78a5.446 5.446 0 0 1-1.957-2.11c-.471-.893-.707-1.868-.707-2.94 0-1.071.236-2.045.707-2.938a5.39 5.39 0 0 1 1.957-2.111c.837-.52 1.78-.78 2.827-.78 1.048 0 1.99.26 2.827.78a5.468 5.468 0 0 1 1.965 2.11c.471.894.715 1.868.715 2.94 0 1.071-.235 2.046-.715 2.939Zm-1.827-4.904a3.602 3.602 0 0 0-1.219-1.405 3.065 3.065 0 0 0-1.746-.52c-.642 0-1.243.171-1.754.512-.512.341-.91.804-1.203 1.405a4.504 4.504 0 0 0-.43 1.973c0 .722.146 1.38.43 1.973a3.388 3.388 0 0 0 1.203 1.404 3.09 3.09 0 0 0 1.754.512c.658 0 1.235-.17 1.746-.52.52-.349.926-.812 1.219-1.396.292-.585.438-1.242.438-1.965 0-.723-.146-1.38-.438-1.965v-.008ZM118.442 40.067a4.725 4.725 0 0 1-1.697-.99c-.293-.26-.439-.545-.439-.861 0-.252.089-.463.276-.658a.91.91 0 0 1 1.219-.09c.43.358.853.618 1.267.78.406.163.893.244 1.454.244.601 0 1.129-.138 1.559-.406.439-.268.658-.601.658-1.007 0-.487-.219-.869-.65-1.145-.43-.276-1.121-.479-2.055-.625-2.363-.349-3.549-1.445-3.549-3.304 0-.682.179-1.275.536-1.77a3.491 3.491 0 0 1 1.454-1.153c.617-.268 1.299-.398 2.055-.398.682 0 1.324.106 1.917.309a4.594 4.594 0 0 1 1.494.812c.317.251.471.535.471.86 0 .252-.089.471-.276.658a.887.887 0 0 1-.65.284.712.712 0 0 1-.438-.146c-.284-.228-.674-.439-1.178-.625-.504-.187-.95-.285-1.356-.285-.683 0-1.211.13-1.576.382-.374.252-.561.585-.561.999 0 .462.195.812.577 1.055.382.236.983.43 1.803.585.926.162 1.673.373 2.226.625.552.252.975.6 1.259 1.04.284.438.422 1.014.422 1.736 0 .683-.195 1.275-.577 1.787-.381.511-.893.909-1.527 1.185a5.104 5.104 0 0 1-2.055.414c-.779 0-1.47-.097-2.071-.292h.008ZM144.45 29.358c.496.333.894.771 1.202 1.331.301.553.455 1.162.455 1.82 0 .657-.154 1.25-.455 1.81-.3.56-.698 1.006-1.202 1.34a2.772 2.772 0 0 1-1.568.495h-2.818v3.06c0 .293-.089.528-.26.715-.171.186-.398.276-.682.276a.846.846 0 0 1-.666-.284 1.008 1.008 0 0 1-.26-.707v-9.36c0-.285.097-.512.284-.707a.93.93 0 0 1 .707-.284h3.695c.553 0 1.073.162 1.568.495Zm-.958 4.685a1.83 1.83 0 0 0 .487-.674 2.11 2.11 0 0 0 0-1.738 1.798 1.798 0 0 0-.487-.666c-.203-.17-.406-.251-.61-.251h-2.818v3.58h2.818c.204 0 .407-.089.61-.26v.009ZM161.345 39.913a1.036 1.036 0 0 1-.715.284 1 1 0 0 1-.723-.284.963.963 0 0 1-.284-.707v-9.36c0-.285.098-.512.292-.707.195-.187.447-.284.748-.284.268 0 .503.097.698.284a.937.937 0 0 1 .293.706v9.361c0 .284-.106.52-.309.707ZM183.917 29.122c.187.171.276.398.276.683 0 .284-.089.503-.276.673-.187.17-.422.252-.715.252h-2.542v8.484c0 .285-.106.52-.309.707a1.097 1.097 0 0 1-.763.284c-.301 0-.553-.098-.748-.284a.936.936 0 0 1-.292-.707V30.73h-2.542c-.293 0-.528-.09-.715-.26-.187-.17-.276-.398-.276-.682 0-.284.097-.487.284-.666.187-.17.422-.26.707-.26h7.188c.292 0 .528.09.715.26h.008ZM205.718 39.32c0 .284-.09.511-.277.69a.891.891 0 0 1-.633.268.83.83 0 0 1-.528-.179 1.256 1.256 0 0 1-.366-.487l-.844-1.956h-4.825l-.845 1.973a1.013 1.013 0 0 1-.349.479.843.843 0 0 1-.512.17c-.284 0-.495-.073-.641-.227-.147-.155-.22-.358-.22-.617 0-.098.016-.203.049-.309l4.037-9.686c.089-.219.219-.381.39-.503a.816.816 0 0 1 .585-.146.961.961 0 0 1 .909.65l3.988 9.49c.057.138.082.268.082.39Zm-6.677-3.532h3.241l-1.633-3.791-1.6 3.791h-.008ZM225.715 38.573a.911.911 0 0 1 .285.69.876.876 0 0 1-.285.674.98.98 0 0 1-.706.268h-5.264a.959.959 0 0 1-.706-.284.96.96 0 0 1-.285-.707v-9.36a.95.95 0 0 1 .293-.707c.195-.187.447-.284.747-.284.268 0 .504.097.699.284a.936.936 0 0 1 .292.706v8.452h4.232c.284 0 .512.09.706.268h-.008Z" fill="#3A827E"/><defs><linearGradient id="a" x1="54.932" y1="14.33" x2="56.816" y2="14.33" gradientUnits="userSpaceOnUse"><stop offset=".67" stop-color="#5FC9BF"/><stop offset=".99" stop-color="#6AC6BF"/></linearGradient><linearGradient id="b" x1="19.892" y1="44.134" x2="19.892" y2="4.376" gradientUnits="userSpaceOnUse"><stop offset=".14" stop-color="#3A827E"/><stop offset=".22" stop-color="#3F978F"/><stop offset=".34" stop-color="#46B4A6"/><stop offset=".44" stop-color="#4AC5B4"/><stop offset=".52" stop-color="#4CCCBA"/><stop offset=".62" stop-color="#47B9AB"/><stop offset=".87" stop-color="#3D918A"/><stop offset=".99" stop-color="#3A827E"/></linearGradient><linearGradient id="c" x1="-5.605" y1="39.888" x2="18.027" y2="8.515" gradientUnits="userSpaceOnUse"><stop stop-color="#C1472F"/><stop offset="1" stop-color="#F7931E"/></linearGradient><linearGradient id="d" x1="21.833" y1="7.478" x2="42.175" y2="42.729" gradientUnits="userSpaceOnUse"><stop stop-color="#F7931E"/><stop offset=".99" stop-color="#C1472F"/></linearGradient></defs></svg>