<svg width="113" height="65" fill="none" xmlns="http://www.w3.org/2000/svg"><path d="M66.542 36.98c-.848 0-1.553-.138-2.12-.418-.566-.28-.993-.64-1.279-1.086a2.572 2.572 0 0 1-.431-1.411v-6.033c0-.096-.027-.169-.077-.219a.51.51 0 0 0-.2-.115l-1.057-.353v-.502h4.12v.502l-1.06.353a.456.456 0 0 0-.189.115.309.309 0 0 0-.077.219v5.33c0 .254.031.53.093.833.061.303.18.587.362.86.177.272.435.494.77.667.336.172.775.26 1.315.26.54 0 .986-.088 1.333-.264.35-.177.624-.403.825-.671.2-.273.343-.556.423-.852.081-.295.12-.564.12-.805v-5.316c0-.096-.027-.169-.077-.215a.497.497 0 0 0-.181-.103l-1.06-.4v-.502h3.58v.503l-1.06.399a.613.613 0 0 0-.189.111c-.05.046-.077.115-.077.207v5.695c0 .58-.127 1.074-.377 1.485-.25.41-.575.74-.968.993s-.809.441-1.248.56c-.44.119-.848.18-1.222.18l.008-.007ZM73.652 36.746v-.518l1.067-.338a.426.426 0 0 0 .193-.115c.05-.053.073-.13.073-.23v-7.513a.312.312 0 0 0-.077-.223.441.441 0 0 0-.189-.11l-1.067-.354v-.502h4.065c.76 0 1.376.073 1.858.222.477.146.847.342 1.11.587.261.246.443.514.539.81.1.295.15.59.15.89 0 .536-.12 1-.362 1.384-.239.383-.54.69-.894.913a3.373 3.373 0 0 1-1.06.456l-1.125.456-1.595-.326.061-.74c.043.015.143.03.297.046.158.015.324.03.505.038.177.008.316.016.42.016.5 0 .91-.092 1.233-.272.324-.18.567-.422.725-.721.158-.3.238-.618.238-.96 0-.69-.2-1.188-.597-1.499-.397-.31-.979-.468-1.75-.468h-1.032v7.87c0 .1.027.18.077.23.05.054.112.092.189.115l1.094.338v.518h-4.146Zm9.68 0h-1.68c-.309 0-.54-.027-.694-.08a.858.858 0 0 1-.39-.273 10.39 10.39 0 0 1-.408-.537l-2.489-3.417 1.407-.434 2.616 3.452c.05.073.131.161.247.265.111.103.22.168.323.195l1.068.31v.519ZM84.607 36.746v-.518l1.068-.338a.457.457 0 0 0 .189-.115.325.325 0 0 0 .077-.23v-7.513c0-.096-.023-.169-.073-.223a.4.4 0 0 0-.193-.11l-1.068-.354v-.502h4.008c.686 0 1.303.092 1.857.276.555.184.999.472 1.33.867.331.395.497.909.497 1.542 0 .667-.146 1.246-.435 1.733-.29.487-.686.863-1.191 1.124-.505.26-1.083.395-1.734.395-.235 0-.513-.054-.833-.161a3.31 3.31 0 0 1-.782-.364v-.51c.154.046.366.08.644.103.277.023.535.035.778.035.44 0 .79-.077 1.052-.234.262-.158.459-.35.593-.576.135-.226.224-.452.266-.675.043-.222.066-.402.066-.533 0-.387-.07-.744-.204-1.077-.135-.33-.378-.599-.725-.806-.347-.203-.84-.307-1.476-.307h-.92v7.87c0 .1.026.18.08.23a.456.456 0 0 0 .19.115l1.128.338v.518h-4.189ZM94.318 36.746v-.518l1.068-.338a.469.469 0 0 0 .185-.115c.054-.053.08-.13.08-.23v-7.513c0-.096-.022-.169-.072-.223a.4.4 0 0 0-.193-.11l-1.068-.354v-.502h4.135v.502l-1.075.353a.433.433 0 0 0-.189.115.31.31 0 0 0-.08.219v7.87h3.579a.279.279 0 0 0 .201-.08.382.382 0 0 0 .104-.212l.304-2.028h.84v3.16h-7.819v.004ZM104.01 36.746v-.518l1.067-.338a.426.426 0 0 0 .193-.115c.05-.053.073-.13.073-.23v-7.513a.312.312 0 0 0-.077-.223.441.441 0 0 0-.189-.11l-1.067-.354v-.502h7.718v2.458h-.817l-.269-1.361a.362.362 0 0 0-.104-.192.295.295 0 0 0-.193-.065H106.8v3.486h2.131c.092 0 .162-.019.204-.057a.359.359 0 0 0 .092-.192l.251-1.09h.667v3.53h-.667l-.251-1.086a.389.389 0 0 0-.092-.196c-.042-.042-.112-.065-.204-.065H106.8v3.889h4.084c.07 0 .131-.023.185-.07a.304.304 0 0 0 .101-.19l.277-1.52h.813v2.624h-8.25ZM51.556 51.807v-.518l1.068-.337a.426.426 0 0 0 .192-.116c.05-.053.073-.13.073-.23v-7.513a.312.312 0 0 0-.077-.222.441.441 0 0 0-.188-.112l-1.068-.352v-.503h7.719v2.458h-.817l-.27-1.361a.356.356 0 0 0-.104-.192.292.292 0 0 0-.193-.065h-3.545v3.486h2.131c.093 0 .162-.019.204-.057a.358.358 0 0 0 .093-.192l.25-1.09h.667v3.53h-.667l-.25-1.086a.388.388 0 0 0-.093-.196c-.042-.042-.111-.065-.204-.065h-2.13v3.889h4.084c.07 0 .13-.023.185-.07a.3.3 0 0 0 .1-.19l.277-1.52h.813v2.624h-8.25ZM64.785 51.807v-.518l1.144-.338a.384.384 0 0 0 .197-.115c.05-.053.073-.13.073-.23v-7.87H63.91a.29.29 0 0 0-.192.07.324.324 0 0 0-.105.191l-.277 1.484h-.813v-2.573h8.809v2.573h-.813l-.278-1.484a.342.342 0 0 0-.103-.2.28.28 0 0 0-.19-.06h-2.296v7.87c0 .099.027.18.08.23a.456.456 0 0 0 .19.114l1.144.338v.518h-4.285.004ZM72.465 51.807v-.518l.709-.31a.651.651 0 0 0 .354-.38l2.825-7.195.817-1.65h.782l3.503 8.864c.03.073.077.15.135.226a.433.433 0 0 0 .197.154l.735.291v.518h-3.676v-.518l1.164-.399-2.482-6.332-.27-.932h-.119l-2.74 7.23 1.18.433v.518h-3.114Zm2.774-3.475.34-.959h3.198l.339.959h-3.877ZM84.838 51.807v-.518l1.068-.337a.47.47 0 0 0 .185-.116c.054-.053.08-.13.08-.23v-7.513c0-.096-.022-.169-.073-.222a.4.4 0 0 0-.192-.112l-1.068-.352v-.503h4.135v.502l-1.075.353a.433.433 0 0 0-.189.115.31.31 0 0 0-.08.219v7.87h3.58a.277.277 0 0 0 .2-.08.379.379 0 0 0 .104-.212l.304-2.028h.84v3.16h-7.819v.004Z" fill="#92278F"/><path d="m40.87 28.646.293-1.09c2.35-.226 4.362-.548 6.034-.97-.4 1.131-.832 2.612-1.298 4.441l-1.838 6.816 2.239.122c1.036.05 2.169-.21 3.39-.775 1.226-.563 2.32-1.557 3.284-2.976.963-1.419 1.449-2.953 1.449-4.598s-.586-2.919-1.761-3.874c-1.176-.95-2.968-1.426-5.38-1.426-2.751 0-5.449.682-8.088 2.044-2.64 1.365-4.675 3.106-6.108 5.227-1.434 2.121-2.15 4.215-2.15 6.279 0 1.016.185 1.898.558 2.65.374.751 1.037 1.488 1.993 2.213.793.579 1.19 1.146 1.19 1.695 0 .357-.13.652-.389.894-.258.241-.57.364-.928.364-.96 0-1.889-.652-2.787-1.96-.898-1.308-1.345-2.96-1.345-4.959 0-3.663 1.41-7.003 4.232-10.018 3.695-3.97 8.655-5.952 14.882-5.952 2.366 0 4.308.307 5.822.92 1.515.614 2.652 1.454 3.403 2.516.755 1.067 1.13 2.217 1.13 3.46 0 1.58-.529 3.133-1.588 4.66-1.06 1.522-2.617 2.753-4.675 3.69-2.057.935-4.35 1.403-6.867 1.403-.389 0-.994-.023-1.819-.073l-1.953 7.532a61.394 61.394 0 0 1-1.09 3.77c1.26.307 2.361.46 3.302.46 1.183 0 2.45-.226 3.81-.678l-.292 1.354c-1.264.337-2.331.51-3.206.51s-2.073-.088-3.692-.265c-1.295-.16-2.347-.241-3.156-.241-1.568 0-3.183.184-4.832.556l.293-1.281c1.684-.273 2.836-.672 3.449-1.185.874-.725 1.587-2.187 2.138-4.38l3.669-14.498c.162-.678.243-1.154.243-1.426 0-.257-.104-.487-.316-.69a1.063 1.063 0 0 0-.752-.304c-.112 0-.273.016-.485.05l-.008-.007Z" fill="#92278F"/><path d="M40.997 0s2.96 5.484 2.455 11.44a13.937 13.937 0 0 1-.624 3.165c-1.334 4.13-4.578 7.14-7.018 8.92a37.253 37.253 0 0 0-.393-6.255c-.439-2.91-1.279-5.883-2.732-8.698-.123-.238-.254-.464-.381-.698 3.075-5.132 8.693-7.87 8.693-7.87V0ZM16.138 2.025s5.989 1.795 9.865 6.359a14.201 14.201 0 0 1 1.808 2.677c1.992 3.858 1.838 8.269 1.375 11.245a38.1 38.1 0 0 0-4.72-4.146c-2.378-1.749-5.087-3.26-8.116-4.23-.254-.08-.512-.15-.767-.223-1.472-5.795.555-11.686.555-11.686v.004ZM0 20.952s5.51-2.945 11.495-2.443a14.34 14.34 0 0 1 3.18.621c4.15 1.327 7.174 4.557 8.962 6.984a37.805 37.805 0 0 0-6.285.392c-2.925.437-5.911 1.273-8.74 2.719-.238.122-.466.253-.7.38C2.754 26.543.003 20.951.003 20.951H0Zm14 24.53c-.081.254-.15.507-.224.764-5.822 1.465-11.741-.553-11.741-.553s1.803-5.96 6.389-9.818a14.28 14.28 0 0 1 2.69-1.799c3.876-1.983 8.308-1.83 11.298-1.369a38.045 38.045 0 0 0-4.166 4.698c-1.757 2.367-3.275 5.063-4.25 8.077H14Zm7.052 16.273s-2.96-5.484-2.455-11.44c.089-1.051.281-2.113.624-3.164 1.334-4.13 4.578-7.142 7.017-8.921-.038 1.994.07 4.108.393 6.255.44 2.911 1.28 5.883 2.733 8.699.123.237.254.464.381.698-3.075 5.131-8.693 7.87-8.693 7.87v.003Z" fill="#91288D"/><path d="M40.975 62.83v1.564h-.49v-4.142h1.145c.447 0 .79.107 1.036.322.247.215.367.522.367.913s-.135.713-.409.966c-.274.253-.64.376-1.102.376h-.547Zm0-2.14v1.698h.512c.335 0 .594-.076.771-.23.177-.153.266-.368.266-.648 0-.548-.324-.82-.975-.82h-.574ZM46.736 63.032h-2.1c.007.33.096.584.265.764.17.18.405.268.702.268.335 0 .643-.111.924-.33v.445c-.262.188-.605.284-1.036.284-.432 0-.752-.134-.99-.403-.24-.268-.359-.648-.359-1.135 0-.46.131-.836.393-1.124.262-.287.59-.433.979-.433.39 0 .69.127.902.376.212.25.32.598.32 1.043v.25-.005Zm-.49-.398c0-.273-.07-.487-.2-.64-.131-.154-.312-.23-.544-.23a.75.75 0 0 0-.57.24 1.09 1.09 0 0 0-.289.626h1.607l-.004.004ZM49.599 61.916c-.085-.065-.204-.095-.358-.095-.205 0-.374.096-.51.287-.134.192-.203.453-.203.779v1.507h-.478v-2.957h.478v.61h.011c.07-.207.17-.372.312-.487a.728.728 0 0 1 .467-.177.71.71 0 0 1 .285.042v.492h-.004ZM50.531 64.287v-.51c.258.191.544.287.856.287.416 0 .628-.138.628-.414 0-.08-.02-.146-.054-.2a.527.527 0 0 0-.146-.145 1.132 1.132 0 0 0-.216-.115 6.646 6.646 0 0 0-.266-.104 3.791 3.791 0 0 1-.347-.157 1.044 1.044 0 0 1-.25-.18.665.665 0 0 1-.15-.227.785.785 0 0 1-.05-.299c0-.138.03-.26.095-.368a.892.892 0 0 1 .255-.268c.104-.073.227-.127.366-.165.139-.039.277-.054.424-.054.258 0 .49.046.69.134v.48a1.36 1.36 0 0 0-.756-.215.953.953 0 0 0-.242.03.586.586 0 0 0-.186.085.354.354 0 0 0-.162.3c0 .076.016.141.043.19.027.05.07.1.123.139.054.038.12.077.197.111.077.035.166.07.266.108.13.05.25.1.354.153.104.054.193.111.266.18a.7.7 0 0 1 .17.23.758.758 0 0 1 .057.311c0 .146-.03.272-.096.38a.82.82 0 0 1-.258.268 1.26 1.26 0 0 1-.374.157 1.846 1.846 0 0 1-.443.054c-.304 0-.57-.057-.794-.176ZM55.07 64.463c-.439 0-.79-.138-1.051-.414-.262-.276-.393-.644-.393-1.1 0-.5.134-.887.408-1.167.274-.28.644-.418 1.106-.418.462 0 .79.134 1.036.407.247.272.374.648.374 1.131s-.135.852-.4 1.135c-.266.284-.629.426-1.08.426Zm.035-2.696c-.304 0-.547.103-.724.31-.178.208-.266.492-.266.856s.088.625.27.828c.18.203.42.303.724.303s.543-.1.71-.299c.165-.2.246-.48.246-.848s-.081-.655-.247-.855c-.166-.2-.4-.299-.709-.299l-.004.004ZM60.377 64.394h-.478v-1.687c0-.63-.231-.944-.69-.944a.74.74 0 0 0-.59.269 1 1 0 0 0-.234.675v1.687h-.478v-2.957h.478v.491h.011c.224-.372.551-.56.975-.56.324 0 .574.104.748.314.173.212.258.51.258.906v1.81-.004ZM63.995 64.394h-.478v-.464h-.011c-.208.353-.513.533-.913.533-.297 0-.528-.077-.694-.234a.818.818 0 0 1-.25-.621c0-.552.327-.875.982-.967l.89-.122c0-.503-.204-.756-.613-.756-.358 0-.681.123-.97.364v-.487a1.854 1.854 0 0 1 1.01-.276c.697 0 1.047.368 1.047 1.105v1.925Zm-.478-1.496-.716.1c-.22.03-.386.084-.501.165-.116.08-.17.215-.17.414 0 .146.05.26.154.353a.602.602 0 0 0 .413.138c.235 0 .431-.08.585-.245a.877.877 0 0 0 .232-.626v-.295l.003-.004ZM65.964 64.394h-.478v-4.38h.478v4.38ZM67.764 60.685a.313.313 0 0 1-.22-.088.283.283 0 0 1-.088-.218c0-.089.03-.162.088-.223a.285.285 0 0 1 .22-.088c.089 0 .162.03.223.088a.294.294 0 0 1 .093.223c0 .088-.031.157-.093.218a.3.3 0 0 1-.223.088Zm.231 3.709h-.478v-2.957h.478v2.957ZM71.629 61.571l-1.761 2.42h1.742v.403h-2.444v-.146l1.762-2.408h-1.596v-.403h2.293v.134h.004ZM75.228 63.032h-2.1c.008.33.096.584.266.764.17.18.404.268.701.268.335 0 .644-.111.925-.33v.445c-.262.188-.605.284-1.036.284-.432 0-.752-.134-.99-.403-.24-.268-.36-.648-.36-1.135 0-.46.132-.836.394-1.124.262-.287.59-.433.979-.433s.69.127.901.376c.212.25.32.598.32 1.043v.25-.005Zm-.49-.398c0-.273-.069-.487-.2-.64-.13-.154-.312-.23-.543-.23a.75.75 0 0 0-.57.24 1.09 1.09 0 0 0-.29.626h1.608l-.004.004ZM79.078 64.394H78.6v-.502h-.012c-.22.38-.562.571-1.02.571-.375 0-.671-.134-.895-.399-.223-.264-.335-.625-.335-1.081 0-.491.123-.882.37-1.178.246-.295.578-.44.99-.44.413 0 .705.16.89.479h.012V60.01h.478V64.394Zm-.474-1.339v-.437a.847.847 0 0 0-.24-.606.8.8 0 0 0-.604-.249.829.829 0 0 0-.686.318c-.166.211-.25.507-.25.879 0 .341.08.61.238.809.158.2.374.295.644.295a.81.81 0 0 0 .647-.287c.166-.192.247-.434.247-.721h.004ZM86.037 64.11a2.801 2.801 0 0 1-1.395.353c-.593 0-1.075-.192-1.441-.571-.366-.38-.551-.886-.551-1.515 0-.63.204-1.166.613-1.58.408-.415.924-.618 1.549-.618.454 0 .832.073 1.14.219v.537c-.335-.211-.736-.319-1.194-.319-.459 0-.848.161-1.149.48-.3.318-.447.732-.447 1.242s.14.936.417 1.235c.277.3.65.449 1.125.449.324 0 .605-.065.844-.192v-1.162h-.913v-.44h1.398v1.878l.004.004ZM87.779 60.685a.313.313 0 0 1-.22-.088.283.283 0 0 1-.088-.218c0-.089.03-.162.088-.223a.286.286 0 0 1 .22-.088c.089 0 .162.03.224.088a.294.294 0 0 1 .092.223c0 .088-.03.157-.093.218a.3.3 0 0 1-.223.088Zm.231 3.709h-.478v-2.957h.478v2.957ZM91.039 60.432a.622.622 0 0 0-.316-.077c-.332 0-.501.212-.501.626v.456h.697v.403h-.697v2.554h-.474V61.84h-.509v-.403h.509v-.48c0-.31.088-.556.27-.736a.914.914 0 0 1 .674-.268c.147 0 .262.019.347.053v.43-.004ZM93.405 64.367a.926.926 0 0 1-.443.092c-.52 0-.782-.287-.782-.867V61.84h-.513v-.403h.513v-.721l.478-.153v.874h.747v.403h-.747v1.668c0 .2.034.341.1.426.066.084.181.126.335.126.12 0 .224-.034.312-.1V64.368ZM94.453 64.287v-.51c.258.191.543.287.856.287.416 0 .628-.138.628-.414 0-.08-.02-.146-.054-.2a.526.526 0 0 0-.147-.145 1.126 1.126 0 0 0-.216-.115 6.58 6.58 0 0 0-.265-.104 3.782 3.782 0 0 1-.347-.157 1.043 1.043 0 0 1-.25-.18.665.665 0 0 1-.15-.227.785.785 0 0 1-.051-.299c0-.138.03-.26.096-.368a.892.892 0 0 1 .255-.268c.104-.073.227-.127.366-.165a1.57 1.57 0 0 1 .424-.054c.258 0 .489.046.69.134v.48a1.36 1.36 0 0 0-.756-.215.954.954 0 0 0-.243.03.586.586 0 0 0-.185.085.353.353 0 0 0-.162.3c0 .076.016.141.043.19.027.05.07.1.123.139.054.038.12.077.197.111.077.035.165.07.266.108.13.05.25.1.354.153.104.054.193.111.266.18a.7.7 0 0 1 .17.23.76.76 0 0 1 .057.311c0 .146-.03.272-.096.38a.82.82 0 0 1-.258.268 1.26 1.26 0 0 1-.374.157 1.846 1.846 0 0 1-.443.054 1.67 1.67 0 0 1-.794-.176Z" fill="#231F20"/><path d="M24.377 62.979h12.066M100.896 62.979H113" stroke="#91298C" stroke-width=".221" stroke-miterlimit="10"/></svg>