<svg width="60" height="60" fill="none" xmlns="http://www.w3.org/2000/svg"><rect width="60" height="60" rx="30" fill="#000" fill-opacity=".6"/><path d="M29.419 21.13a1 1 0 0 1 1.581.813v16.114a1 1 0 0 1-1.581.813L24 35h-3a2 2 0 0 1-2-2v-6a2 2 0 0 1 2-2h3l5.419-3.87Z" fill="#fff"/><path d="M33.992 34.905A6.977 6.977 0 0 0 36 30a6.978 6.978 0 0 0-2.022-4.921M36.777 22.222A10.965 10.965 0 0 1 40 30c0 3.038-1.231 5.788-3.222 7.778" stroke="#fff" stroke-width="2" stroke-linecap="round" stroke-linejoin="round"/></svg>