<svg width="129" height="70" fill="none" xmlns="http://www.w3.org/2000/svg"><path d="m24.796 25.774.717-.763c.315.278.63.459.941.536.312.08.667.053 1.059-.078.392-.13.767-.351 1.122-.67.315-.28.55-.576.707-.884.157-.308.22-.596.194-.864a1.17 1.17 0 0 0-.301-.69 1.113 1.113 0 0 0-.627-.362c-.244-.043-.54 0-.888.134-.224.084-.686.312-1.38.687-.693.375-1.212.603-1.55.686-.436.111-.831.114-1.183.014a1.911 1.911 0 0 1-.912-.58 2.099 2.099 0 0 1-.519-1.122c-.067-.432.01-.874.225-1.32.218-.449.532-.857.954-1.233.463-.412.935-.7 1.42-.867.487-.168.952-.191 1.401-.07.449.12.84.355 1.183.706l-.737.764c-.396-.355-.804-.526-1.23-.506-.425.017-.877.241-1.353.667-.5.445-.78.86-.844 1.246-.064.385.016.707.248.965a.949.949 0 0 0 .736.335c.289 0 .835-.218 1.639-.667.804-.445 1.383-.723 1.732-.834.512-.157.968-.184 1.37-.08.402.1.75.321 1.052.653.294.332.479.727.552 1.192.07.463 0 .935-.207 1.414a3.848 3.848 0 0 1-.982 1.317c-.563.502-1.109.844-1.638 1.018a2.666 2.666 0 0 1-1.558.06 2.841 2.841 0 0 1-1.343-.814v.01ZM32.555 22.538l-4.79-6.84 3.03-2.124c.61-.425 1.116-.69 1.522-.79.402-.101.807-.061 1.216.117.408.177.743.455 1.008.83.338.486.47 1.005.389 1.558-.08.553-.42 1.106-1.012 1.655.322-.054.583-.067.784-.04.435.057.898.184 1.387.385l2.492 1.028-1.139.798-1.903-.79a15.885 15.885 0 0 0-1.313-.487c-.325-.097-.583-.144-.78-.134a1.624 1.624 0 0 0-.54.108c-.117.05-.294.157-.526.321l-1.048.734 2.127 3.038-.904.633Zm-1.773-4.455 1.947-1.363c.412-.292.707-.56.88-.808.175-.248.255-.509.245-.784a1.35 1.35 0 0 0-.248-.74 1.251 1.251 0 0 0-.91-.553c-.383-.043-.825.11-1.334.466l-2.164 1.517 1.584 2.265ZM39.56 17.885l-4.141-7.252.958-.55 4.14 7.253-.958.55ZM49.388 10.234l1.132-.124c.1.931-.05 1.725-.449 2.382-.398.656-1.005 1.135-1.819 1.44-.844.315-1.594.399-2.25.252-.657-.148-1.244-.496-1.763-1.042a5.633 5.633 0 0 1-1.192-1.943c-.302-.814-.412-1.585-.325-2.308.087-.724.358-1.35.814-1.876a4.16 4.16 0 0 1 1.722-1.18c.783-.29 1.514-.338 2.197-.137.684.201 1.263.623 1.742 1.267l-.931.62c-.392-.503-.81-.818-1.253-.952-.442-.13-.925-.1-1.447.094-.603.224-1.052.556-1.347.995a2.429 2.429 0 0 0-.419 1.477c.017.546.121 1.079.315 1.595.248.666.56 1.209.938 1.634.379.426.818.684 1.32.777.5.094.988.05 1.467-.127.58-.214 1.009-.566 1.287-1.048.278-.486.365-1.082.261-1.793v-.003ZM52.48 12.335 50.973 4.12l1.085-.2.62 3.373 4.268-.784-.62-3.373 1.085-.201 1.508 8.214-1.086.2-.71-3.872-4.268.784.71 3.873-1.085.2ZM59.488 11.035l3.223-8.345h1.19l3.403 8.358h-1.26l-.968-2.532-3.49-.007-.922 2.526h-1.176Zm2.416-3.424h2.83l-.867-2.308a22.42 22.42 0 0 1-.59-1.732 10.71 10.71 0 0 1-.452 1.595l-.921 2.448v-.003ZM68.114 11.316l1.072-8.28 1.096.14-1.072 8.28-1.096-.14ZM72.981 12.177l1.786-7.145-2.67-.667.238-.955 6.422 1.605-.238.955-2.68-.67-1.785 7.145-1.073-.268ZM75.876 12.803l6.09-6.552 1.106.446.057 9.02-1.17-.468.04-2.71-3.239-1.303-1.795 2.003-1.089-.439v.003Zm3.514-2.284 2.626 1.055.054-2.472c.017-.75.047-1.36.097-1.83-.298.456-.636.895-1.011 1.314l-1.766 1.93v.003ZM83.63 16.03l4.218-7.206.979.573.472 7.875 3.313-5.658.915.536-4.218 7.206-.978-.573-.47-7.879-3.316 5.665-.914-.536v-.004ZM92.509 21.71l2.147-2.81.362-5.778 1.068.817-.22 3.002c-.044.56-.105 1.105-.185 1.638a31.464 31.464 0 0 1 1.621-.62l2.778-.968 1.021.78-5.57 1.803-2.148 2.81-.878-.67.004-.003ZM95.296 23.791l7.993-4.013.881.8-3.099 8.476-.931-.848.981-2.525-2.582-2.352-2.382 1.253-.868-.79h.007Zm4.09-.91 2.094 1.905.914-2.298c.278-.697.52-1.26.727-1.678-.439.325-.908.616-1.407.874l-2.328 1.193v.003Z" fill="#F7951D"/><path d="M94.626 37.79c-.892.825-1.81 1.625-2.674 2.48-4.636 4.596-9.728 8.552-15.788 11.108-4.439 1.873-9.068 2.73-13.906 2.429-5.902-.369-11.262-2.362-16.324-5.303-4.499-2.617-8.508-5.87-12.3-9.407a2.997 2.997 0 0 1-.292-.328c-.037-.047-.044-.114-.067-.171 6.887-7.487 15.299-11.614 25.587-11.645-.69.647-1.377 1.314-2.087 1.947-2.68 2.395-3.709 5.37-3.19 8.907.232 1.568.932 3.055 2.312 4.958-1.973-1.095-3.303-2.72-4.037-4.867-.717-2.1-.646-4.251-.418-6.513-.288.054-.513.06-.71.141-3.86 1.528-7.458 3.49-10.503 6.365-.25.238-.442.392-.09.744 2.398 2.398 4.867 4.713 7.721 6.569 3.448 2.241 7.13 3.953 11.206 4.673 3.357.593 6.73.616 10.114.15 5.547-.766 10.582-2.904 15.402-5.634a63.609 63.609 0 0 0 9.812-6.844l.228.238.004.004Z" fill="#C7C7C7"/><path d="M94.073 33.342c-1.085-.931-2.13-1.91-3.213-2.844-4.204-3.635-8.746-6.754-13.855-8.995-5.233-2.294-10.683-3.407-16.401-2.827-4.747.482-9.159 2.033-13.293 4.412-4.65 2.673-8.713 6.083-12.448 9.902-.576.59-1.136 1.2-1.705 1.799.107.027.164.007.207-.03.201-.154.4-.308.593-.47a63.006 63.006 0 0 1 13.37-8.495c6.479-3.045 13.229-4.472 20.394-3.416 4.472.66 8.486 2.472 12.23 4.93 2.708 1.776 5.063 3.967 7.324 6.262.566.572.586.546-.01 1.092-3.035 2.78-6.563 4.733-10.372 6.22-.204.08-.422.125-.717.208.279-2.033.302-3.98-.19-5.886-.613.114-1.23.212-1.843.188.305 3.005-.784 6.013-3.49 8.371-.644.563-1.294 1.12-2.084 1.803.646-.06 1.112-.09 1.578-.151 2.144-.271 4.324-.389 6.425-.858 6.981-1.55 12.683-5.316 17.543-10.458.285-.302.272-.482-.053-.76l.01.003Z" fill="#C7C7C7"/><path d="M72.975 30.481a6.43 6.43 0 0 1-.657.12c.339.517.68 1.05.938 1.619.218.482.396.968.54 1.46.365-.16.784-.238 1.189-.311a.67.67 0 0 1 .258 0c-.596-1.106-1.46-2.191-2.265-2.888h-.003Z" fill="#C7C7C7"/><path d="M58.118 24.17c.074-.034.144-.07.218-.104 1.075-.53 2.227-.81 3.39-1.055.251.023.492-.07.737-.1.955-.115 1.906-.121 2.864-.038.023.007.044.01.067.017.08.007.157.01.238.017l.027.01h.084c.519.12 1.041.241 1.564.355.68.147 1.326.382 1.97.643.043.017.09.024.137.034v-.004c.14.138.325.185.506.232.117.103.244.19.402.217l.053.03c.037.017.074.03.111.047.543.308 1.052.68 1.541 1.055 1.383 1.062 2.58 2.309 3.457 3.836.442.77.814 1.568 1.109 2.402.144.402.231.824.392 1.223.11.278.04.335-.272.305-.093-.01-.187-.02-.267.047h-.185a.289.289 0 0 0-.271 0l-.174.02c-.134-.01-.225.057-.305.16-.124.165-.255.322-.385.48l-.131.06-.007-.01-.006.013-1.153.181c-.037 0-.07.003-.107.007-.137.003-.271.01-.409.013-.013-.013-.026-.013-.043 0-.097-.003-.194-.01-.292-.013a.386.386 0 0 0-.237.017c-.058-.024-.108-.01-.155.02h-.284c-.09-.201-.017-.42-.06-.623l-.014-.175-.03-.073c.007-.014.007-.027-.007-.037-.017-.272-.241-.5-.164-.784.08-.298.017-.6.06-.895.067-.472-.17-.763-.526-1.005-.077-.053-.154-.107-.23-.164-.051-.037-.068-.083-.041-.144.097-.218.566-.415.797-.335.391.137.675.023.851-.341.084-.178.138-.372.406-.352.13.01.107-.117.087-.191-.1-.372-.024-.72.08-1.079.114-.398.097-.794-.275-1.072-.777-.573-1.655-.666-2.325.262-.114.12-.197.254-.19.428-.01.024-.017.05-.027.074 0 .077-.004.157-.007.235v.16c0 .077-.003.154-.007.231 0 .064-.01.128-.01.195 0 .439-.06.492-.496.469v.006l-.067-.04-.328-.21c-.248-.209-.475-.446-.8-.54-.101-.137-.255-.104-.392-.124-.014-.017-.024-.037-.037-.054-.402-.207-.865-.11-1.283-.244-.308-.097-.63-.158-.948-.235-.114-.023-.228-.043-.342-.067a4.312 4.312 0 0 0-1.203-.17c-.12 0-.294-.038-.325.17-.107-.033-.144.064-.2.117-.47.43-.758.982-1.052 1.531-.269.503-.433 1.086-.882 1.461-.576.482-.706 1.042-.458 1.729.077.214.214.27.415.224.389-.094.858-.667.814-1.069-.057-.512.147-.894.469-1.246.51-.556 1.102-1.035 1.474-1.712.08-.144.221-.083.315 0 .419.392.918.613 1.48.7.138.02.225.09.232.238-.181.831-.54 1.598-.821 2.395-.17.48-.342.962-.824 1.237-.037-.01-.05.01-.05.043l-.064.02c-.04-.02-.047.01-.057.037l-.11.07c-.04-.013-.05.01-.054.044a1.49 1.49 0 0 1-.064.02c-.037-.017-.047.01-.057.037l-.114.077c-.04-.017-.047.007-.047.04v.007c-.16.027-.274.137-.401.221l-.121.09c-.037-.026-.034.004-.034.027l-.013.007c-.037-.003-.054.013-.054.047-.02.007-.04.01-.063.017-.04-.017-.05.006-.05.04-.135-.01-.238.023-.272.167-.053.05-.11.1-.164.148a.849.849 0 0 0-.305.301c-.275.285-.398.654-.489 1.022-.07.278-.14.536-.348.744a.34.34 0 0 0-.158.164l-.074.094c-.204.184-.358.408-.512.633l-.047.067c-.013.017-.027.03-.04.047l-.06.097c-.41.512-.637 1.129-.975 1.681-.285.466-.664.808-1.18 1.002-.79.302-1.48.7-2.016 1.417-.69.925-1.601 1.618-2.81 1.786a.326.326 0 0 0-.289.234c-.063.064-.114.134-.087.231l.014.168c.083.23.267.388.418.57.08.167.158.338.238.505 0 .037 0 .074.04.09-.043.088 0 .168.02.248-.003.054-.01.108.04.145l.024.194c-.027.077.05.187-.047.228-.09.036-.147-.064-.204-.121-.446-.429-.848-.898-1.253-1.36-.194-.221-.352-.47-.536-.697a6.876 6.876 0 0 0-.134-.2c-.11-.172-.221-.34-.332-.51l-.13-.224c-.208-.423-.443-.831-.62-1.264-.456-1.122-.858-2.26-1.012-3.477a14.958 14.958 0 0 1-.104-2.844c.06-.968.215-1.92.513-2.847.285-.888.616-1.752 1.048-2.58 1.019-1.943 2.483-3.48 4.268-4.726a11.93 11.93 0 0 1 1.474-.885l.107-.05.067-.037-.013-.003Z" fill="#24AAE1"/><path d="M77.048 33.928c.215.16.188.416.215.627.087.71.097 1.427.073 2.144a12.96 12.96 0 0 1-.81 4.153 12.737 12.737 0 0 1-1.746 3.226c-.348.46-.696.932-1.129 1.33-.442.409-.847.851-1.33 1.223-1.343 1.035-2.803 1.836-4.421 2.348-.7.221-1.417.389-2.134.486-.965.13-1.947.134-2.925.05a14.525 14.525 0 0 1-2.928-.58c-1.132-.34-2.174-.877-3.172-1.507-.11-.07-.224-.137-.335-.204-.476-.218-.697-.6-.713-1.112 0-.027-.02-.05-.034-.077l-.037-.09c.05-.165-.107-.299-.063-.463.137-.523.395-.975.783-1.347.453-.432.945-.814 1.471-1.162.697-.459 1.367-.951 2.1-1.35.45-.245.928-.439 1.273-.844.087-.1.228-.165.352-.228.543-.268 1.052-.586 1.488-1.015.154-.168.398-.245.499-.466.184-.13.305-.318.432-.496l.087-.15c.084-.074.167-.158.19-.268.038-.201.172-.215.333-.195.314.034.63.064.94.098.41.117.822.237 1.23.355.054.047.114.05.181.043.184.067.369.12.563.14.157.115.335.088.512.078.124-.007.262.044.315.124.044.07-.08.174-.164.228-.218.137-.338.338-.429.566-.09.117-.134.254-.177.395a.717.717 0 0 0-.171.282l-.114.154-.63.77c-.117.13-.23.261-.348.392-.258.194-.516.385-.77.58-.02 0-.034.01-.037.033-.218.137-.406.298-.463.566-.077.138-.006.228.1.308.088.151.229.242.38.322.083.074.17.144.254.218.134.167.268.335.439.469.104.197.244.358.459.445.104.09.21.164.341.04.191.084.379-.003.567 0 .18-.006.348-.06.515-.113.121-.037.168-.158.181-.258.01-.07-.103-.108-.187-.128-.118-.03-.228-.077-.342-.114l-.1-.06c-.278-.228-.436-.543-.607-.847-.104-.181-.097-.322.014-.49.227-.345.505-.646.767-.964.18-.171.361-.345.546-.516.208-.127.388-.292.566-.456.532-.472 1.048-.955 1.658-1.343.449-.285.516-.74.272-1.146a.44.44 0 0 0-.202-.218c-.127-.103-.24-.227-.425-.22-.054-.05-.1-.118-.164-.151-.573-.275-1.102-.64-1.702-.865a5.33 5.33 0 0 0-.847-.408c-.044-.054-.104-.064-.168-.06l-.057-.03c-.194-.075-.362-.209-.573-.249-.016-.013-.033-.023-.05-.036l-.14-.135c.046-.197.25-.28.328-.458a.69.69 0 0 0 .204-.275c.174-.188.352-.372.526-.56l.214-.16c.221-.118.446-.228.667-.349.683-.372 1.45-.59 2.054-1.115.053-.047.103-.01.154.006.026.104.053.212.077.315-.01.017-.007.034 0 .05l.382 1.304c-.017.19.053.368.093.552.104.483.45.737.922.627.783-.188 1.57-.355 2.328-.643.355-.134.72-.292 1.102-.305.64-.024 1.112-.312 1.48-.81l.017-.01Z" fill="#F7951D"/><path d="M65.683 22.91h-.027l-.027-.003c.02-.024.037-.02.054.003ZM74.992 34.055l-.014.004.007-.01.007.006Z" fill="#F6FAF9"/><path d="M65.508 42.166s-.02.023-.037.033c0-.02.014-.03.037-.033Z" fill="#FEFDFC"/><path d="M68.496 29.798a.613.613 0 1 0 0-1.226.613.613 0 0 0 0 1.226ZM69.066 42.594a.358.358 0 1 0 0-.716.358.358 0 0 0 0 .716ZM64.925 28.454a.358.358 0 1 0 0-.717.358.358 0 0 0 0 .717ZM65.987 46.356a.358.358 0 1 0 0-.717.358.358 0 0 0 0 .717ZM68.76 31.352c.162-.117.316-.218.466-.308a.338.338 0 0 1 .05-.047c.064-.05.135-.124.195-.184.043-.044.084-.087.124-.131h-.004l-.12.07a8.237 8.237 0 0 0-1.082.777 9.347 9.347 0 0 0-.905.878 8.095 8.095 0 0 0-.64.858c-.063.1-.123.2-.18.298-.04.07-.077.134-.114.204l.013-.013a8.833 8.833 0 0 1 .65-.918c.17-.218.359-.432.57-.646l.797-.704c.06-.044.12-.09.184-.134h-.003ZM60.861 40.41a.358.358 0 1 0 0-.717.358.358 0 0 0 0 .717ZM69.193 39.114a.358.358 0 1 0 0-.717.358.358 0 0 0 0 .717ZM71.23 32.334a.613.613 0 1 0 0-1.227.613.613 0 0 0 0 1.227Z" fill="#F7951D"/><path d="M18.608 41.355c.422-.245.811-.385 1.17-.426.264-.026.526-.01.787.057s.489.171.68.319c.258.194.482.459.68.797.352.61.445 1.206.278 1.789-.168.583-.586 1.068-1.256 1.46-.667.386-1.293.506-1.88.362-.586-.144-1.055-.52-1.407-1.125-.355-.614-.452-1.21-.284-1.79.164-.579.576-1.058 1.232-1.44v-.003Zm.526.844c-.469.271-.76.583-.877.938-.118.355-.077.7.113 1.032.191.332.47.536.835.61.362.073.784-.027 1.263-.305.472-.275.767-.583.877-.925.114-.342.07-.687-.13-1.028-.198-.345-.476-.553-.834-.627-.359-.073-.774.027-1.25.302l.003.003ZM20.488 48.658l3.567-3.17 1.347 1.518c.338.382.553.687.643.918.09.231.097.47.027.72-.07.252-.214.47-.425.657-.268.238-.56.355-.875.352-.314 0-.633-.141-.958-.412.047.237.06.452.044.653-.02.198-.09.506-.215.925l-.308 1.055-.764-.861.315-1.21c.114-.432.175-.713.188-.844a.73.73 0 0 0-.044-.348 1.612 1.612 0 0 0-.281-.399l-.13-.147-1.491 1.323-.64-.72v-.01Zm2.7-1.11.472.534c.308.345.513.549.62.61.104.06.214.083.332.066a.62.62 0 0 0 .331-.164.567.567 0 0 0 .204-.355.59.59 0 0 0-.1-.395 7.129 7.129 0 0 0-.456-.536l-.499-.563-.904.804ZM25.811 54.041l2.53-3.055-1.093-.901.516-.623 2.921 2.418-.516.623-1.088-.9-2.53 3.054-.743-.613.003-.003ZM29.456 56.858l2.533-4.043.817.513-.998 1.59 1.601 1.002.998-1.59.818.512-2.533 4.043-.817-.512 1.108-1.77-1.6-1-1.11 1.768-.817-.513ZM35.767 57.897c.204-.442.442-.78.713-1.018.201-.175.426-.312.677-.41.251-.096.499-.14.74-.13.322.01.66.097 1.012.261.636.295 1.058.73 1.256 1.304.201.572.137 1.212-.19 1.916-.326.7-.768 1.159-1.33 1.377-.564.217-1.163.18-1.8-.114-.643-.298-1.065-.73-1.263-1.3-.197-.57-.137-1.2.181-1.886h.004Zm.914.389c-.228.489-.285.914-.177 1.272.11.359.338.617.686.778.349.16.694.167 1.032.02.338-.148.627-.473.858-.975.23-.496.291-.918.187-1.263-.104-.345-.338-.6-.697-.767-.361-.168-.706-.178-1.041-.034-.335.144-.617.466-.848.965v.004ZM48.289 64.362l-.724.533a3.256 3.256 0 0 1-.606-.737 1.902 1.902 0 0 1-.697.204 2.206 2.206 0 0 1-.78-.087c-.573-.157-.958-.439-1.16-.84a1.294 1.294 0 0 1-.097-.952c.08-.295.245-.536.486-.724.241-.187.56-.318.958-.395a2.698 2.698 0 0 1-.207-.63 1.183 1.183 0 0 1 .013-.512.935.935 0 0 1 .53-.613c.274-.131.619-.141 1.031-.027.399.11.68.298.848.563.167.264.21.542.13.837a.95.95 0 0 1-.315.483c-.157.133-.432.264-.827.381l.405 1.022c.114-.114.225-.268.339-.469l.747.402a5.048 5.048 0 0 1-.379.563 1.642 1.642 0 0 1-.278.275c.074.12.17.254.298.408.124.154.221.258.282.315h.003Zm-2.315-2.304a1.218 1.218 0 0 0-.556.244.815.815 0 0 0-.275.402.646.646 0 0 0 .057.52c.09.157.241.26.45.318.136.036.277.046.421.03.144-.02.309-.07.493-.154l-.59-1.357v-.004Zm.61-.861.288-.118c.214-.087.338-.197.375-.331a.4.4 0 0 0-.047-.325.504.504 0 0 0-.311-.215.498.498 0 0 0-.359.014.324.324 0 0 0-.187.21c-.03.108 0 .259.09.453l.147.312h.004ZM53.187 65.903l.623-4.73 3.507.462-.104.801-2.553-.335-.137 1.049 2.375.311-.104.797-2.375-.311-.17 1.286 2.642.349-.103.797-3.598-.476h-.003ZM60.259 66.627l.093-2.007-1.618-2.84 1.13.053 1.031 1.94 1.186-1.836 1.109.053-1.883 2.684-.094 2-.958-.044.004-.003ZM64.851 66.744l-.167-4.77 3.537-.124.027.807-2.573.09.037 1.06 2.395-.085.027.804-2.395.084.047 1.296 2.663-.093.027.804-3.628.127h.003ZM73.799 66.084 73 61.381l.952-.161.315 1.852 1.862-.314-.315-1.853.952-.16.797 4.703-.951.16-.349-2.057-1.862.315.348 2.057-.951.161ZM79.166 62.707c-.127-.469-.164-.88-.114-1.24a2.27 2.27 0 0 1 .254-.746c.131-.235.292-.429.483-.576.254-.201.566-.352.941-.453.677-.184 1.28-.123 1.8.185.522.308.883.837 1.091 1.587.205.744.161 1.38-.13 1.91-.288.53-.77.888-1.448 1.072-.683.188-1.286.127-1.802-.18-.52-.31-.877-.828-1.079-1.562l.004.003Zm.948-.294c.144.522.372.884.687 1.085a1.22 1.22 0 0 0 1.028.154c.372-.1.637-.318.804-.65.164-.332.174-.764.027-1.3-.144-.526-.369-.887-.67-1.085-.302-.198-.647-.241-1.029-.137-.382.104-.656.321-.817.646-.164.329-.17.754-.027 1.283l-.003.004ZM85.584 61.672l.84-.425c.168.271.359.445.573.522.215.077.46.06.73-.047.289-.113.483-.257.584-.438.1-.181.117-.352.053-.516a.424.424 0 0 0-.198-.231c-.09-.05-.224-.074-.398-.067-.12.003-.385.033-.794.083-.53.067-.921.054-1.186-.046a1.241 1.241 0 0 1-.757-.737 1.269 1.269 0 0 1 .328-1.377c.201-.198.473-.362.814-.496.56-.218 1.025-.258 1.404-.124.378.134.653.405.824.807l-.884.389c-.128-.215-.275-.345-.44-.395-.163-.05-.374-.027-.626.07-.261.1-.445.234-.55.399a.356.356 0 0 0-.036.331c.04.104.12.178.238.218.15.05.462.044.941-.023.476-.068.841-.084 1.096-.058.25.03.475.118.666.262.195.144.345.358.453.64a1.404 1.404 0 0 1-.342 1.527c-.218.208-.52.389-.905.54-.562.217-1.045.258-1.447.114-.402-.145-.73-.453-.981-.928v.006ZM91.869 60.761l-2.191-4.238 1.373-.71c.52-.268.871-.422 1.052-.462.275-.06.55-.03.824.1.275.128.5.362.673.697.135.261.202.503.198.73 0 .228-.05.43-.144.603a1.383 1.383 0 0 1-.338.43c-.184.147-.47.317-.858.518l-.56.289.828 1.597-.854.443-.003.003Zm-.965-3.963.623 1.203.469-.241c.338-.175.553-.312.643-.416A.644.644 0 0 0 92.8 57a.639.639 0 0 0-.073-.379.623.623 0 0 0-.774-.321c-.11.033-.321.13-.63.288l-.412.214-.006-.003ZM96.99 57.93l-2.562-4.023.814-.52 2.563 4.024-.815.52ZM100.621 55.428l-2.438-3.125-1.116.87-.496-.636 2.992-2.332.496.637-1.116.867 2.439 3.126-.761.593ZM106.809 49.733l-.734.75-1.065-.458-1.333 1.363.499 1.038-.714.73-2.113-4.666.713-.727 4.747 1.97Zm-2.589-.05-1.726-.767.814 1.698.912-.931ZM108.23 47.907l-3.903-2.68.546-.793 3.24 2.224 1.356-1.977.664.456-1.903 2.77Z" fill="#24AAE1"/></svg>