<svg width="189" height="47" fill="none" xmlns="http://www.w3.org/2000/svg"><path d="M78.746 23.085c0 .69-.006 1.38 0 2.071 0 .339-.12.505-.478.505a433.427 433.427 0 0 0-4.142 0c-.306 0-.445-.14-.445-.432V20.98c0-.312.186-.405.471-.398 1.348 0 2.696.006 4.043 0 .392 0 .565.133.551.537-.02.658 0 1.315 0 1.966ZM71.117 23.218c0 .624-.02 1.248.007 1.872.02.465-.173.59-.61.584-1.282-.02-2.564-.02-3.845 0-.458.007-.59-.18-.59-.61.019-1.282.019-2.564 0-3.845 0-.412.079-.644.564-.637 1.314.02 2.635.02 3.95 0 .425 0 .538.179.524.557-.013.69 0 1.388 0 2.079ZM78.746 16.293c0 .69-.006 1.38 0 2.071 0 .339-.12.505-.478.505a433.427 433.427 0 0 0-4.142 0c-.306 0-.445-.14-.445-.432v-4.249c0-.312.186-.405.471-.398 1.348 0 2.696.006 4.043 0 .392 0 .565.133.551.538-.02.657 0 1.314 0 1.965ZM71.117 16.419c0 .624-.02 1.248.007 1.872.02.465-.173.591-.61.584-1.282-.02-2.564-.02-3.845 0-.458.007-.59-.179-.59-.61.019-1.282.019-2.563 0-3.845 0-.411.079-.643.564-.637 1.314.02 2.635.02 3.95 0 .425 0 .538.18.524.558-.013.69 0 1.387 0 2.078Z" fill="#B22335"/><path d="M120.062 36.768h3.359c1.693 0 2.835 1.102 2.835 2.59 0 1.487-1.016 2.463-2.563 2.562l3.154 3.818h-1.859l-3.061-3.804h-.385v3.804h-1.474v-8.97h-.006Zm1.473 1.282v2.669h1.806c.91 0 1.434-.498 1.434-1.335 0-.743-.524-1.334-1.42-1.334h-1.82ZM130.041 41.243c0-2.563 2.012-4.6 4.561-4.6 2.55 0 4.575 2.037 4.575 4.613 0 2.576-2.012 4.615-4.548 4.615s-4.588-2.065-4.588-4.628Zm7.629 0c0-1.872-1.269-3.193-3.061-3.193-1.793 0-3.048 1.308-3.048 3.193 0 1.886 1.255 3.22 3.048 3.22 1.792 0 3.061-1.321 3.061-3.22ZM142.377 41.243c0-2.563 2.012-4.6 4.561-4.6 2.55 0 4.575 2.037 4.575 4.613 0 2.576-2.012 4.615-4.548 4.615-2.537 0-4.588-2.065-4.588-4.628Zm7.628 0c0-1.872-1.268-3.193-3.06-3.193-1.793 0-3.048 1.308-3.048 3.193 0 1.886 1.255 3.22 3.048 3.22 1.792 0 3.06-1.321 3.06-3.22ZM155.038 36.768h5.796v1.348h-4.322v2.437h4.103V41.9h-4.103v3.844h-1.474v-8.977ZM164.353 36.768h1.474v8.97h-1.474v-8.97ZM169.671 36.768h1.022l4.741 6.195v-6.195h1.474v8.97h-1.023l-4.74-6.194v6.194h-1.474v-8.97ZM180.108 41.243c0-2.563 1.998-4.6 4.601-4.6 1.421 0 2.682.577 3.499 1.573l-1.003 1.002c-.538-.757-1.474-1.168-2.503-1.168-1.846 0-3.087 1.308-3.087 3.193 0 1.886 1.268 3.22 2.961 3.22 1.573 0 2.603-.77 2.835-2.23h-2.862v-1.348h4.435v.205c0 3.207-1.845 4.78-4.382 4.78-2.536 0-4.501-2.064-4.501-4.627h.007ZM36.148 36.576h1.54v7.954h4.41v1.4h-5.95v-9.354ZM55.634 36.576h1.54v9.355h-1.54v-9.355ZM61.31 36.576h1.07l3.538 5.829 3.54-5.83h1.068v9.355h-1.54v-5.988l-2.536 4.17h-1.07l-2.535-4.17v5.989h-1.54v-9.355h.006ZM77.577 36.901h1.07l3.823 9.355h-1.66l-.71-1.806h-4.023l-.724 1.806H73.72l3.85-9.355h.007Zm1.992 6.214-1.467-3.73-1.48 3.73h2.954-.007ZM87.749 37.983H84.7v-1.4h7.629v1.4h-3.048v7.954h-1.54v-7.954h.007ZM47.455 37.983h-3.048v-1.4h7.629v1.4h-3.048v7.954h-1.54v-7.954h.007ZM95.855 36.576h6.228v1.4h-4.694v2.497h4.302v1.348h-4.302v2.702h4.76v1.4h-6.294V36.57v.007ZM105.349 44.39l1.009-1.009c.505.724 1.142 1.155 2.218 1.155.996 0 1.646-.438 1.646-1.168 0-2.125-4.302-1.01-4.302-4.25 0-1.593 1.295-2.522 2.968-2.522 1.188 0 2.151.518 2.749 1.241l-1.01 1.01c-.518-.585-1.049-.87-1.772-.87-.91 0-1.441.378-1.441 1.035 0 1.92 4.302.897 4.302 4.263 0 1.633-1.228 2.642-3.187 2.642-1.44 0-2.383-.518-3.173-1.527h-.007Z" fill="#3D3B6E"/><path d="M12.545 30.713 8.45 32.745c-1.806.836-3.579 1.72-5.331 2.629-.95.491-1.846.883-2.723 1.587-.717.577-.278 1.912-.08 2.948.798-.146 1.282-.492 1.807-.75 2.456-1.216 4.913-2.43 7.37-3.645L12.551 34m14.407-7.124 9.428-4.661c12.33-6.102 24.658-12.21 36.98-18.318.884-.438 1.594-.478 2.544-.166 25.395 8.346 50.81 16.665 76.212 24.997.876.286 1.739.452 2.682.445 10.875-.013 21.757-.007 32.632-.013.359 0 .717 0 1.076-.007.212 0 .444-.066.451-.259.02-.61.093-1.241-.053-1.832-.1-.399-.75-.385-1.162-.512C158.855 17.84 129.954 9.136 101.06.418a9.611 9.611 0 0 0-2.855-.411C90.87.02 83.533.033 76.19 0a6.567 6.567 0 0 0-3.04.704 13503.621 13503.621 0 0 1-35.42 17.534l-10.776 5.338" fill="#B22335"/><path d="m12.54 30.713-4.336 2.145.053 11.917c0 .63.471 1.149 1.042 1.149h20.94c.578 0 1.043-.518 1.043-1.149V21.432l-4.336 2.15v18.066H12.54V30.72" fill="#3D3B6E"/><path d="M28.307 26.311c.08-.252.153-.51.246-.756.086-.22.06-.366-.16-.492-.218-.133-.418-.298-.736-.53.378 0 .637-.02.896 0 .272.026.378-.094.438-.333.06-.232.146-.465.233-.73.192.172.225.392.259.577.073.405.285.538.677.479.192-.027.385 0 .577 0v.08c-.278.225-.703.397-.79.683-.086.279.16.664.266 1.01-.04.006-.073.02-.08.012-.597-.63-1.188-.67-1.773.12l-.04-.12h-.013ZM28.307 35.7c.08-.253.153-.512.246-.758.086-.219.06-.365-.16-.49-.218-.134-.418-.3-.736-.532.378 0 .637-.02.896 0 .272.027.378-.093.438-.332.06-.232.146-.465.233-.73.192.172.225.392.259.577.073.405.285.538.677.478.192-.026.385 0 .577 0v.08c-.278.226-.703.398-.79.684-.086.279.16.664.266 1.01-.04.006-.073.019-.08.012-.597-.63-1.188-.67-1.773.12l-.04-.12h-.013ZM28.307 45.08c.08-.252.153-.51.246-.756.086-.22.06-.365-.16-.491-.218-.133-.418-.3-.736-.532.378 0 .637-.02.896 0 .272.027.378-.093.438-.332.06-.232.146-.464.233-.73.192.173.225.392.259.578.073.405.285.538.677.478.192-.027.385 0 .577 0v.08c-.278.225-.703.398-.79.683-.086.28.16.664.266 1.01-.04.006-.073.02-.08.013-.597-.631-1.188-.67-1.773.12l-.04-.12h-.013ZM18.94 45.08c.079-.252.152-.51.245-.756.086-.22.06-.365-.16-.491-.219-.133-.418-.3-.736-.532.378 0 .637-.02.896 0 .272.027.378-.093.438-.332.06-.232.146-.464.232-.73.193.173.226.392.26.578.072.405.285.538.677.478.192-.027.385 0 .577 0v.08c-.279.225-.704.398-.79.683-.086.28.16.664.266 1.01-.04.006-.073.02-.08.013-.598-.631-1.188-.67-1.773.12l-.04-.12h-.013ZM9.565 45.08c.08-.252.152-.51.245-.756.087-.22.06-.365-.159-.491-.22-.133-.418-.3-.737-.532.379 0 .637-.02.896 0 .273.027.379-.093.439-.332.06-.232.146-.464.232-.73.193.173.226.392.259.578.073.405.285.538.677.478.193-.027.385 0 .578 0v.08c-.28.225-.704.398-.79.683-.087.28.159.664.265 1.01-.04.006-.073.02-.08.013-.597-.631-1.188-.67-1.772.12l-.04-.12h-.013ZM9.565 35.7c.08-.253.152-.512.245-.758.087-.219.06-.365-.159-.49-.22-.134-.418-.3-.737-.532.379 0 .637-.02.896 0 .273.027.379-.093.439-.332.06-.232.146-.465.232-.73.193.172.226.392.259.577.073.405.285.538.677.478.193-.026.385 0 .578 0v.08c-.28.226-.704.398-.79.684-.087.279.159.664.265 1.01-.04.006-.073.019-.08.012-.597-.63-1.188-.67-1.772.12l-.04-.12h-.013Z" fill="#FDFDFD"/></svg>